<svg version="1.1" xmlns="http://www.w3.org/2000/svg" xmlns:xlink="http://www.w3.org/1999/xlink" stroke-linecap="round" stroke-linejoin="round" stroke-width="0" fill-rule="evenodd" clip-rule="evenodd" id="jnq_COBbMc2O_bottom" viewBox="43180 -109220 91440 66040" width="91.44mm" height="66.04mm"><defs><style>.jnq_COBbMc2O_fr4 {color: #666666;}
.jnq_COBbMc2O_cu {color: #cccccc;}
.jnq_COBbMc2O_cf {color: #cc9933;}
.jnq_COBbMc2O_sm {color: #ff0000; opacity: 0.75;}
.jnq_COBbMc2O_ss {color: #ffffff;}
.jnq_COBbMc2O_sp {color: #999999;}
.jnq_COBbMc2O_out {color: #000000;}</style><circle cx="0" cy="0" r="800" id="CpmxQciYNKsn_pad-10"/><rect x="-800" y="-800" width="1600" height="1600" id="CpmxQciYNKsn_pad-11"/><rect x="-850" y="-850" width="1700" height="1700" rx="850" ry="850" id="CpmxQciYNKsn_pad-12"/><rect x="-850" y="-850" width="1700" height="1700" id="CpmxQciYNKsn_pad-13"/><rect x="-1750" y="-1750" width="3500" height="3500" id="CpmxQciYNKsn_pad-14"/><rect x="-950" y="-1050" width="1900" height="2100" rx="950" ry="950" id="CpmxQciYNKsn_pad-15"/><rect x="-950" y="-1050" width="1900" height="2100" id="CpmxQciYNKsn_pad-16"/><circle cx="0" cy="0" r="400" id="CpmxQciYNKsn_pad-17"/><circle cx="0" cy="0" r="800" id="Mbq1dcTIesi2_pad-10"/><rect x="-800" y="-800" width="1600" height="1600" id="Mbq1dcTIesi2_pad-11"/><rect x="-850" y="-850" width="1700" height="1700" rx="850" ry="850" id="Mbq1dcTIesi2_pad-12"/><rect x="-850" y="-850" width="1700" height="1700" id="Mbq1dcTIesi2_pad-13"/><rect x="-1750" y="-1750" width="3500" height="3500" id="Mbq1dcTIesi2_pad-14"/><rect x="-950" y="-1050" width="1900" height="2100" rx="950" ry="950" id="Mbq1dcTIesi2_pad-15"/><rect x="-950" y="-1050" width="1900" height="2100" id="Mbq1dcTIesi2_pad-16"/><circle cx="0" cy="0" r="1600" id="Mbq1dcTIesi2_pad-17"/><circle cx="0" cy="0" r="63" id="w2KK2zUsZQY0_pad-1"/><circle cx="0" cy="0" r="7.85" id="KQD8Z0oHVeSd_pad-1"/><circle cx="0" cy="0" r="15.75" id="KQD8Z0oHVeSd_pad-2"/><circle cx="0" cy="0" r="19.7" id="KQD8Z0oHVeSd_pad-3"/><circle cx="0" cy="0" r="20.1" id="KQD8Z0oHVeSd_pad-4"/><g id="jnq_COBbMc2O_bottom_copper"><use xlink:href="#CpmxQciYNKsn_pad-10" x="60920" y="-59690"/><use xlink:href="#CpmxQciYNKsn_pad-11" x="58420" y="-59690"/><use xlink:href="#CpmxQciYNKsn_pad-12" x="78740" y="-101600"/><use xlink:href="#CpmxQciYNKsn_pad-12" x="76200" y="-101600"/><use xlink:href="#CpmxQciYNKsn_pad-12" x="73660" y="-101600"/><use xlink:href="#CpmxQciYNKsn_pad-12" x="71120" y="-101600"/><use xlink:href="#CpmxQciYNKsn_pad-12" x="68580" y="-101600"/><use xlink:href="#CpmxQciYNKsn_pad-12" x="66040" y="-101600"/><use xlink:href="#CpmxQciYNKsn_pad-13" x="63500" y="-101600"/><path d="M 57925 -48590 59675 -48590 A 875 875 0 0 0 60550 -49465 L 60550 -51215 A 875 875 0 0 0 59675 -52090 L 57925 -52090 A 875 875 0 0 0 57050 -51215 L 57050 -49465 A 875 875 0 0 0 57925 -48590"/><path d="M 62500 -45840 64500 -45840 A 750 750 0 0 0 65250 -46590 L 65250 -48090 A 750 750 0 0 0 64500 -48840 L 62500 -48840 A 750 750 0 0 0 61750 -48090 L 61750 -46590 A 750 750 0 0 0 62500 -45840"/><use xlink:href="#CpmxQciYNKsn_pad-14" x="63500" y="-53340"/><use xlink:href="#CpmxQciYNKsn_pad-15" x="91440" y="-71120"/><use xlink:href="#CpmxQciYNKsn_pad-15" x="91440" y="-50800"/><use xlink:href="#CpmxQciYNKsn_pad-15" x="93980" y="-71120"/><use xlink:href="#CpmxQciYNKsn_pad-15" x="93980" y="-50800"/><use xlink:href="#CpmxQciYNKsn_pad-15" x="96520" y="-71120"/><use xlink:href="#CpmxQciYNKsn_pad-15" x="96520" y="-50800"/><use xlink:href="#CpmxQciYNKsn_pad-15" x="99060" y="-71120"/><use xlink:href="#CpmxQciYNKsn_pad-15" x="99060" y="-50800"/><use xlink:href="#CpmxQciYNKsn_pad-15" x="101600" y="-71120"/><use xlink:href="#CpmxQciYNKsn_pad-15" x="101600" y="-50800"/><use xlink:href="#CpmxQciYNKsn_pad-15" x="104140" y="-71120"/><use xlink:href="#CpmxQciYNKsn_pad-15" x="104140" y="-50800"/><use xlink:href="#CpmxQciYNKsn_pad-15" x="106680" y="-71120"/><use xlink:href="#CpmxQciYNKsn_pad-15" x="106680" y="-50800"/><use xlink:href="#CpmxQciYNKsn_pad-15" x="109220" y="-71120"/><use xlink:href="#CpmxQciYNKsn_pad-15" x="109220" y="-50800"/><use xlink:href="#CpmxQciYNKsn_pad-15" x="111760" y="-71120"/><use xlink:href="#CpmxQciYNKsn_pad-15" x="111760" y="-50800"/><use xlink:href="#CpmxQciYNKsn_pad-15" x="114300" y="-71120"/><use xlink:href="#CpmxQciYNKsn_pad-16" x="114300" y="-50800"/><use xlink:href="#CpmxQciYNKsn_pad-17" x="66040" y="-76200"/><path d="M 76200 -101600 101600 -76200 114300 -76200 116840 -73660 116840 -69850 115570 -68580 107950 -68580 106680 -69850 106680 -71120 M 71120 -101600 71120 -95250 92710 -73660 107950 -73660 M 109220 -72390 109220 -71120 M 107950 -73660 109220 -72390 M 66040 -76200 66040 -74930 87630 -53340 95250 -53340 M 96520 -52070 96520 -50800 M 95250 -53340 96520 -52070 M 63500 -101600 63500 -93980 88900 -68580 95250 -68580 M 96520 -69850 96520 -71120 M 95250 -68580 96520 -69850 M 58420 -55781 58420 -59690 M 60861 -53340 58420 -55781 M 63500 -53340 60861 -53340" fill="none" stroke-width="889"/><path d="M 128004.47 -43914.617 128987.898 -44131.739 129929.675 -44488.546 130810.095 -44977.575 131610.687 -45588.569 132314.694 -46308.732 132907.37 -47122.987 133376.296 -48014.269 133711.647 -48963.9 133907.127 -49955.692 133960 -50820.164 133960.001 -101576.08 133885.382 -102604.47 133668.262 -103587.896 133311.454 -104529.675 132822.424 -105410.095 132211.435 -106210.684 131491.268 -106914.694 130677.013 -107507.37 129785.731 -107976.296 128836.099 -108311.647 127844.309 -108507.127 126979.835 -108560 50823.906 -108560 49795.53 -108485.382 48812.104 -108268.262 47870.325 -107911.454 46989.905 -107422.424 46189.316 -106811.435 45485.306 -106091.268 44892.63 -105277.013 44423.704 -104385.731 44088.353 -103436.099 43892.873 -102444.309 43840 -101579.835 43840 -101379.872 48565 -101379.872 48565 -101820.128 48650.89 -102251.925 48819.369 -102658.669 49063.962 -103024.729 49375.271 -103336.038 49741.331 -103580.631 50148.075 -103749.11 50579.872 -103835 51020.128 -103835 51451.925 -103749.11 51858.669 -103580.631 52224.729 -103336.038 52536.038 -103024.729 52780.631 -102658.669 52949.11 -102251.925 53035 -101820.128 53035 -101379.872 52949.11 -100948.075 52867.065 -100750 62011.928 -100750 62011.928 -102450 62024.188 -102574.482 62060.498 -102694.18 62119.463 -102804.494 62198.815 -102901.185 62295.506 -102980.537 62405.82 -103039.502 62525.518 -103075.812 62650 -103088.072 64350 -103088.072 64474.482 -103075.812 64594.18 -103039.502 64704.494 -102980.537 64801.185 -102901.185 64880.537 -102804.494 64939.502 -102694.18 64961.513 -102621.62 65093.368 -102753.475 65336.589 -102915.99 65606.842 -103027.932 65893.74 -103085 66186.26 -103085 66473.158 -103027.932 66743.411 -102915.99 66986.632 -102753.475 67193.475 -102546.632 67315.195 -102364.466 67384.822 -102481.355 67579.731 -102697.588 67813.08 -102871.641 68075.901 -102996.825 68223.11 -103041.476 68453 -102920.155 68453 -101727 68433 -101727 68433 -101473 68453 -101473 68453 -100279.845 68223.11 -100158.524 68075.901 -100203.175 67813.08 -100328.359 67579.731 -100502.412 67384.822 -100718.645 67315.195 -100835.534 67193.475 -100653.368 66986.632 -100446.525 66743.411 -100284.01 66473.158 -100172.068 66186.26 -100115 65893.74 -100115 65606.842 -100172.068 65336.589 -100284.01 65093.368 -100446.525 64961.513 -100578.38 64939.502 -100505.82 64880.537 -100395.506 64801.185 -100298.815 64704.494 -100219.463 64594.18 -100160.498 64579.5 -100156.045 64579.5 -94427.142 87512.195 -71494.447 89879.805 -71494.447 89963.326 -71793.553 90103.595 -72070.617 90295.221 -72314.992 90530.84 -72517.287 90801.397 -72669.728 91067.412 -72760.586 91313 -72640.584 91313 -71247 90014.831 -71247 89879.805 -71494.447 87512.195 -71494.447 89347.143 -69659.5 90643.032 -69659.5 90530.84 -69722.713 90295.221 -69925.008 90103.595 -70169.383 89963.326 -70446.447 89879.805 -70745.553 90014.831 -70993 91313 -70993 91313 -70973 91567 -70973 91567 -70993 91587 -70993 91587 -71247 91567 -71247 91567 -72640.584 91812.588 -72760.586 92078.603 -72669.728 92349.16 -72517.287 92584.779 -72314.992 92703.725 -72163.303 92853.813 -72346.187 93095.161 -72544.256 93162.969 -72580.5 92763.029 -72580.5 92710 -72575.277 92656.971 -72580.5 92498.381 -72596.12 92294.894 -72657.847 92107.36 -72758.086 91942.985 -72892.985 91909.182 -72934.174 70394.18 -94449.178 70352.986 -94482.985 70218.087 -94647.36 70164.821 -94747.014 70117.847 -94834.896 70056.12 -95038.382 70035.277 -95250 70040.501 -95303.039 70040.5 -100579.393 69966.525 -100653.368 69844.805 -100835.534 69775.178 -100718.645 69580.269 -100502.412 69346.92 -100328.359 69084.099 -100203.175 68936.89 -100158.524 68707 -100279.845 68707 -101473 68727 -101473 68727 -101727 68707 -101727 68707 -102920.155 68936.89 -103041.476 69084.099 -102996.825 69346.92 -102871.641 69580.269 -102697.588 69775.178 -102481.355 69844.805 -102364.466 69966.525 -102546.632 70173.368 -102753.475 70416.589 -102915.99 70686.842 -103027.932 70973.74 -103085 71266.26 -103085 71553.158 -103027.932 71823.411 -102915.99 72066.632 -102753.475 72273.475 -102546.632 72390 -102372.24 72506.525 -102546.632 72713.368 -102753.475 72956.589 -102915.99 73226.842 -103027.932 73513.74 -103085 73806.26 -103085 74093.158 -103027.932 74363.411 -102915.99 74606.632 -102753.475 74813.475 -102546.632 74930 -102372.24 75046.525 -102546.632 75253.368 -102753.475 75496.589 -102915.99 75766.842 -103027.932 76053.74 -103085 76346.26 -103085 76633.158 -103027.932 76903.411 -102915.99 77146.632 -102753.475 77353.475 -102546.632 77470 -102372.24 77586.525 -102546.632 77793.368 -102753.475 78036.589 -102915.99 78306.842 -103027.932 78593.74 -103085 78886.26 -103085 79173.158 -103027.932 79443.411 -102915.99 79686.632 -102753.475 79893.475 -102546.632 80055.99 -102303.411 80167.932 -102033.158 80225 -101746.26 80225 -101453.74 80210.307 -101379.872 124765 -101379.872 124765 -101820.128 124850.89 -102251.925 125019.369 -102658.669 125263.962 -103024.729 125575.271 -103336.038 125941.331 -103580.631 126348.075 -103749.11 126779.872 -103835 127220.128 -103835 127651.925 -103749.11 128058.669 -103580.631 128424.729 -103336.038 128736.038 -103024.729 128980.631 -102658.669 129149.11 -102251.925 129235 -101820.128 129235 -101379.872 129149.11 -100948.075 128980.631 -100541.331 128736.038 -100175.271 128424.729 -99863.962 128058.669 -99619.369 127651.925 -99450.89 127220.128 -99365 126779.872 -99365 126348.075 -99450.89 125941.331 -99619.369 125575.271 -99863.962 125263.962 -100175.271 125019.369 -100541.331 124850.89 -100948.075 124765 -101379.872 80210.307 -101379.872 80167.932 -101166.842 80055.99 -100896.589 79893.475 -100653.368 79686.632 -100446.525 79443.411 -100284.01 79173.158 -100172.068 79157.657 -100168.985 102047.143 -77279.5 114246.971 -77279.5 114300 -77284.723 114353.029 -77279.5 114511.619 -77263.88 114715.106 -77202.153 114902.64 -77101.914 115067.015 -76967.015 115100.827 -76925.815 117565.821 -74460.822 117607.015 -74427.015 117741.914 -74262.64 117842.153 -74075.106 117903.88 -73871.619 117919.5 -73713.029 117919.5 -73713.022 117924.722 -73660.001 117919.5 -73606.979 117919.5 -69903.021 117924.722 -69849.999 117919.5 -69796.978 117919.5 -69796.971 117903.88 -69638.381 117842.153 -69434.894 117741.914 -69247.36 117607.015 -69082.985 117565.821 -69049.178 116370.826 -67854.184 116337.015 -67812.985 116172.64 -67678.086 115985.106 -67577.847 115781.619 -67516.12 115623.029 -67500.5 115570 -67495.277 115516.971 -67500.5 108003.021 -67500.5 107949.999 -67495.278 107896.978 -67500.5 107896.971 -67500.5 107738.381 -67516.12 107534.894 -67577.847 107347.36 -67678.086 107182.985 -67812.985 107149.178 -67854.179 105954.184 -69049.174 105912.985 -69082.985 105778.086 -69247.36 105677.847 -69434.895 105663.584 -69481.914 105616.12 -69638.382 105595.277 -69850 105596.169 -69859.053 105553.813 -69893.813 105410 -70069.05 105266.187 -69893.813 105024.839 -69695.744 104749.488 -69548.566 104450.714 -69457.934 104140 -69427.331 103829.287 -69457.934 103530.513 -69548.566 103255.162 -69695.744 103013.813 -69893.813 102870 -70069.05 102726.187 -69893.813 102484.839 -69695.744 102209.488 -69548.566 101910.714 -69457.934 101600 -69427.331 101289.287 -69457.934 100990.513 -69548.566 100715.162 -69695.744 100473.813 -69893.813 100330 -70069.05 100186.187 -69893.813 99944.839 -69695.744 99669.488 -69548.566 99370.714 -69457.934 99060 -69427.331 98749.287 -69457.934 98450.513 -69548.566 98175.162 -69695.744 97933.813 -69893.813 97790 -70069.05 97646.187 -69893.813 97603.83 -69859.052 97604.722 -69849.999 97599.5 -69796.978 97599.5 -69796.971 97583.88 -69638.381 97522.153 -69434.894 97421.914 -69247.36 97287.015 -69082.985 97245.821 -69049.178 96050.826 -67854.184 96017.015 -67812.985 95852.64 -67678.086 95665.106 -67577.847 95461.619 -67516.12 95303.029 -67500.5 95250 -67495.277 95196.971 -67500.5 88953.018 -67500.5 88899.999 -67495.278 88846.98 -67500.5 88846.971 -67500.5 88688.381 -67516.12 88484.894 -67577.847 88297.36 -67678.086 88132.985 -67812.985 88099.178 -67854.179 62774.18 -93179.178 62732.986 -93212.985 62598.087 -93377.36 62497.848 -93564.894 62497.847 -93564.896 62436.12 -93768.382 62415.277 -93980 62420.501 -94033.039 62420.5 -100156.045 62405.82 -100160.498 62295.506 -100219.463 62198.815 -100298.815 62119.463 -100395.506 62060.498 -100505.82 62024.188 -100625.518 62011.928 -100750 52867.065 -100750 52780.631 -100541.331 52536.038 -100175.271 52224.729 -99863.962 51858.669 -99619.369 51451.925 -99450.89 51020.128 -99365 50579.872 -99365 50148.075 -99450.89 49741.331 -99619.369 49375.271 -99863.962 49063.962 -100175.271 48819.369 -100541.331 48650.89 -100948.075 48565 -101379.872 43840 -101379.872 43840 -74930 64955.277 -74930 64960.5 -74983.029 64960.5 -76253.028 64976.12 -76411.618 65037.847 -76615.105 65138.086 -76802.64 65272.985 -76967.015 65437.36 -77101.914 65624.894 -77202.153 65828.381 -77263.88 66040 -77284.723 66251.618 -77263.88 66455.105 -77202.153 66642.64 -77101.914 66807.015 -76967.015 66941.914 -76802.64 67042.153 -76615.106 67103.88 -76411.619 67119.5 -76253.029 67119.5 -75377.142 88077.144 -54419.5 95196.971 -54419.5 95250 -54424.723 95303.029 -54419.5 95461.619 -54403.88 95665.106 -54342.153 95852.64 -54241.914 96017.015 -54107.015 96050.826 -54065.816 97245.821 -52870.822 97287.015 -52837.015 97421.914 -52672.64 97522.153 -52485.106 97583.88 -52281.619 97599.5 -52123.029 97599.5 -52123.022 97604.722 -52070.001 97603.83 -52060.948 97646.187 -52026.187 97790 -51850.95 97933.813 -52026.187 98175.161 -52224.256 98450.512 -52371.434 98749.286 -52462.066 99060 -52492.669 99370.713 -52462.066 99669.487 -52371.434 99944.838 -52224.256 100186.187 -52026.187 100330 -51850.95 100473.813 -52026.187 100715.161 -52224.256 100990.512 -52371.434 101289.286 -52462.066 101600 -52492.669 101910.713 -52462.066 102209.487 -52371.434 102484.838 -52224.256 102726.187 -52026.187 102870 -51850.95 103013.813 -52026.187 103255.161 -52224.256 103530.512 -52371.434 103829.286 -52462.066 104140 -52492.669 104450.713 -52462.066 104749.487 -52371.434 105024.838 -52224.256 105266.187 -52026.187 105410 -51850.95 105553.813 -52026.187 105795.161 -52224.256 106070.512 -52371.434 106369.286 -52462.066 106680 -52492.669 106990.713 -52462.066 107289.487 -52371.434 107564.838 -52224.256 107806.187 -52026.187 107950 -51850.95 108093.813 -52026.187 108335.161 -52224.256 108610.512 -52371.434 108909.286 -52462.066 109220 -52492.669 109530.713 -52462.066 109829.487 -52371.434 110104.838 -52224.256 110346.187 -52026.187 110490 -51850.95 110633.813 -52026.187 110875.161 -52224.256 111150.512 -52371.434 111449.286 -52462.066 111760 -52492.669 112070.713 -52462.066 112369.487 -52371.434 112644.838 -52224.256 112773.56 -52118.617 112819.463 -52204.494 112898.815 -52301.185 112995.506 -52380.537 113105.82 -52439.502 113225.518 -52475.812 113350 -52488.072 115250 -52488.072 115374.482 -52475.812 115494.18 -52439.502 115604.494 -52380.537 115701.185 -52301.185 115780.537 -52204.494 115839.502 -52094.18 115875.812 -51974.482 115888.072 -51850 115888.072 -50579.872 124765 -50579.872 124765 -51020.128 124850.89 -51451.925 125019.369 -51858.669 125263.962 -52224.729 125575.271 -52536.038 125941.331 -52780.631 126348.075 -52949.11 126779.872 -53035 127220.128 -53035 127651.925 -52949.11 128058.669 -52780.631 128424.729 -52536.038 128736.038 -52224.729 128980.631 -51858.669 129149.11 -51451.925 129235 -51020.128 129235 -50579.872 129149.11 -50148.075 128980.631 -49741.331 128736.038 -49375.271 128424.729 -49063.962 128058.669 -48819.369 127651.925 -48650.89 127220.128 -48565 126779.872 -48565 126348.075 -48650.89 125941.331 -48819.369 125575.271 -49063.962 125263.962 -49375.271 125019.369 -49741.331 124850.89 -50148.075 124765 -50579.872 115888.072 -50579.872 115888.072 -49750 115875.812 -49625.518 115839.502 -49505.82 115780.537 -49395.506 115701.185 -49298.815 115604.494 -49219.463 115494.18 -49160.498 115374.482 -49124.188 115250 -49111.928 113350 -49111.928 113225.518 -49124.188 113105.82 -49160.498 112995.506 -49219.463 112898.815 -49298.815 112819.463 -49395.506 112773.56 -49481.383 112644.839 -49375.744 112369.488 -49228.566 112070.714 -49137.934 111760 -49107.331 111449.287 -49137.934 111150.513 -49228.566 110875.162 -49375.744 110633.813 -49573.813 110490 -49749.05 110346.187 -49573.813 110104.839 -49375.744 109829.488 -49228.566 109530.714 -49137.934 109220 -49107.331 108909.287 -49137.934 108610.513 -49228.566 108335.162 -49375.744 108093.813 -49573.813 107950 -49749.05 107806.187 -49573.813 107564.839 -49375.744 107289.488 -49228.566 106990.714 -49137.934 106680 -49107.331 106369.287 -49137.934 106070.513 -49228.566 105795.162 -49375.744 105553.813 -49573.813 105410 -49749.05 105266.187 -49573.813 105024.839 -49375.744 104749.488 -49228.566 104450.714 -49137.934 104140 -49107.331 103829.287 -49137.934 103530.513 -49228.566 103255.162 -49375.744 103013.813 -49573.813 102870 -49749.05 102726.187 -49573.813 102484.839 -49375.744 102209.488 -49228.566 101910.714 -49137.934 101600 -49107.331 101289.287 -49137.934 100990.513 -49228.566 100715.162 -49375.744 100473.813 -49573.813 100330 -49749.05 100186.187 -49573.813 99944.839 -49375.744 99669.488 -49228.566 99370.714 -49137.934 99060 -49107.331 98749.287 -49137.934 98450.513 -49228.566 98175.162 -49375.744 97933.813 -49573.813 97790 -49749.05 97646.187 -49573.813 97404.839 -49375.744 97129.488 -49228.566 96830.714 -49137.934 96520 -49107.331 96209.287 -49137.934 95910.513 -49228.566 95635.162 -49375.744 95393.813 -49573.813 95250 -49749.05 95106.187 -49573.813 94864.839 -49375.744 94589.488 -49228.566 94290.714 -49137.934 93980 -49107.331 93669.287 -49137.934 93370.513 -49228.566 93095.162 -49375.744 92853.813 -49573.813 92703.725 -49756.696 92584.779 -49605.008 92349.16 -49402.713 92078.603 -49250.272 91812.588 -49159.414 91567 -49279.416 91567 -50673 91587 -50673 91587 -50927 91567 -50927 91567 -50947 91313 -50947 91313 -50927 90014.831 -50927 89879.805 -51174.447 89963.326 -51473.553 90103.595 -51750.617 90295.221 -51994.992 90530.84 -52197.287 90643.032 -52260.5 87683.029 -52260.5 87630 -52255.277 87576.971 -52260.5 87418.381 -52276.12 87214.894 -52337.847 87027.36 -52438.086 86862.985 -52572.985 86829.182 -52614.174 65314.18 -74129.178 65272.986 -74162.985 65138.087 -74327.36 65037.848 -74514.894 64976.12 -74718.381 64960.5 -74876.971 64955.277 -74930 43840 -74930 43840 -50823.92 43857.707 -50579.872 48565 -50579.872 48565 -51020.128 48650.89 -51451.925 48819.369 -51858.669 49063.962 -52224.729 49375.271 -52536.038 49741.331 -52780.631 50148.075 -52949.11 50579.872 -53035 51020.128 -53035 51451.925 -52949.11 51858.669 -52780.631 52224.729 -52536.038 52536.038 -52224.729 52780.631 -51858.669 52949.11 -51451.925 53035 -51020.128 53035 -50579.872 52949.11 -50148.075 52780.631 -49741.331 52595.993 -49465 56411.928 -49465 56411.928 -51215 56441.001 -51510.186 56527.104 -51794.028 56666.927 -52055.618 56855.097 -52284.903 57084.382 -52473.073 57345.972 -52612.896 57629.814 -52698.999 57925 -52728.072 59675 -52728.072 59970.186 -52698.999 59977.61 -52696.747 57694.185 -54980.173 57652.985 -55013.985 57518.086 -55178.36 57417.847 -55365.895 57417.847 -55365.896 57356.12 -55569.382 57335.277 -55781 57340.5 -55834.029 57340.501 -58319.377 57265.506 -58359.463 57168.815 -58438.815 57089.463 -58535.506 57030.498 -58645.82 56994.188 -58765.518 56981.928 -58890 56981.928 -60490 56994.188 -60614.482 57030.498 -60734.18 57089.463 -60844.494 57168.815 -60941.185 57265.506 -61020.537 57375.82 -61079.502 57495.518 -61115.812 57620 -61128.072 59220 -61128.072 59344.482 -61115.812 59464.18 -61079.502 59574.494 -61020.537 59671.185 -60941.185 59750.537 -60844.494 59809.502 -60734.18 59825.117 -60682.702 60106.903 -60682.702 60178.486 -60926.671 60433.996 -61047.571 60708.184 -61116.3 60990.512 -61130.217 61270.13 -61088.787 61536.292 -60993.603 61661.514 -60926.671 61733.097 -60682.702 60920 -59869.605 60106.903 -60682.702 59825.117 -60682.702 59845.812 -60614.482 59858.072 -60490 59858.072 -60482.785 59927.298 -60503.097 60740.395 -59690 61099.605 -59690 61912.702 -60503.097 62156.671 -60431.514 62277.571 -60176.004 62346.3 -59901.816 62360.217 -59619.488 62318.787 -59339.87 62223.603 -59073.708 62156.671 -58948.486 61912.702 -58876.903 61099.605 -59690 60740.395 -59690 59927.298 -58876.903 59858.072 -58897.215 59858.072 -58890 59845.812 -58765.518 59825.118 -58697.298 60106.903 -58697.298 60920 -59510.395 61733.097 -58697.298 61661.514 -58453.329 61406.004 -58332.429 61131.816 -58263.7 60849.488 -58249.783 60569.87 -58291.213 60303.708 -58386.397 60178.486 -58453.329 60106.903 -58697.298 59825.118 -58697.298 59809.502 -58645.82 59750.537 -58535.506 59671.185 -58438.815 59574.494 -58359.463 59499.5 -58319.377 59499.5 -56228.142 61111.928 -54615.715 61111.928 -55090 61124.188 -55214.482 61160.498 -55334.18 61219.463 -55444.494 61298.815 -55541.185 61395.506 -55620.537 61505.82 -55679.502 61625.518 -55715.812 61750 -55728.072 65250 -55728.072 65374.482 -55715.812 65494.18 -55679.502 65604.494 -55620.537 65701.185 -55541.185 65780.537 -55444.494 65839.502 -55334.18 65875.812 -55214.482 65888.072 -55090 65888.072 -51590 65875.812 -51465.518 65839.502 -51345.82 65780.537 -51235.506 65701.185 -51138.815 65604.494 -51059.463 65494.18 -51000.498 65374.482 -50964.188 65250 -50951.928 61750 -50951.928 61625.518 -50964.188 61505.82 -51000.498 61395.506 -51059.463 61298.815 -51138.815 61219.463 -51235.506 61178.506 -51312.131 61188.072 -51215 61188.072 -50425.553 89879.805 -50425.553 90014.831 -50673 91313 -50673 91313 -49279.416 91067.412 -49159.414 90801.397 -49250.272 90530.84 -49402.713 90295.221 -49605.008 90103.595 -49849.383 89963.326 -50126.447 89879.805 -50425.553 61188.072 -50425.553 61188.072 -49465 61158.999 -49169.814 61072.896 -48885.972 61048.324 -48840 61111.928 -48840 61124.188 -48964.482 61160.498 -49084.18 61219.463 -49194.494 61298.815 -49291.185 61395.506 -49370.537 61505.82 -49429.502 61625.518 -49465.812 61750 -49478.072 63214.25 -49475 63373 -49316.25 63373 -47467 63627 -47467 63627 -49316.25 63785.75 -49475 65250 -49478.072 65374.482 -49465.812 65494.18 -49429.502 65604.494 -49370.537 65701.185 -49291.185 65780.537 -49194.494 65839.502 -49084.18 65875.812 -48964.482 65888.072 -48840 65885 -47625.75 65726.25 -47467 63627 -47467 63373 -47467 61273.75 -47467 61115 -47625.75 61111.928 -48840 61048.324 -48840 60933.073 -48624.382 60744.903 -48395.097 60515.618 -48206.927 60254.028 -48067.104 59970.186 -47981.001 59675 -47951.928 57925 -47951.928 57629.814 -47981.001 57345.972 -48067.104 57084.382 -48206.927 56855.097 -48395.097 56666.927 -48624.382 56527.104 -48885.972 56441.001 -49169.814 56411.928 -49465 52595.993 -49465 52536.038 -49375.271 52224.729 -49063.962 51858.669 -48819.369 51451.925 -48650.89 51020.128 -48565 50579.872 -48565 50148.075 -48650.89 49741.331 -48819.369 49375.271 -49063.962 49063.962 -49375.271 48819.369 -49741.331 48650.89 -50148.075 48565 -50579.872 43857.707 -50579.872 43914.617 -49795.53 44131.739 -48812.102 44488.546 -47870.325 44977.575 -46989.905 45588.569 -46189.313 45945.898 -45840 61111.928 -45840 61115 -47054.25 61273.75 -47213 63373 -47213 63373 -45363.75 63627 -45363.75 63627 -47213 65726.25 -47213 65885 -47054.25 65888.072 -45840 65875.812 -45715.518 65839.502 -45595.82 65780.537 -45485.506 65701.185 -45388.815 65604.494 -45309.463 65494.18 -45250.498 65374.482 -45214.188 65250 -45201.928 63785.75 -45205 63627 -45363.75 63373 -45363.75 63214.25 -45205 61750 -45201.928 61625.518 -45214.188 61505.82 -45250.498 61395.506 -45309.463 61298.815 -45388.815 61219.463 -45485.506 61160.498 -45595.82 61124.188 -45715.518 61111.928 -45840 45945.898 -45840 46308.732 -45485.306 47122.987 -44892.63 48014.269 -44423.704 48963.9 -44088.353 49955.692 -43892.873 50820.164 -43840 126976.08 -43840 128004.47 -43914.617" fill="none" stroke-width="254"/><path d="M 128004.47 -43914.617 128987.898 -44131.739 129929.675 -44488.546 130810.095 -44977.575 131610.687 -45588.569 132314.694 -46308.732 132907.37 -47122.987 133376.296 -48014.269 133711.647 -48963.9 133907.127 -49955.692 133960 -50820.164 133960.001 -101576.08 133885.382 -102604.47 133668.262 -103587.896 133311.454 -104529.675 132822.424 -105410.095 132211.435 -106210.684 131491.268 -106914.694 130677.013 -107507.37 129785.731 -107976.296 128836.099 -108311.647 127844.309 -108507.127 126979.835 -108560 50823.906 -108560 49795.53 -108485.382 48812.104 -108268.262 47870.325 -107911.454 46989.905 -107422.424 46189.316 -106811.435 45485.306 -106091.268 44892.63 -105277.013 44423.704 -104385.731 44088.353 -103436.099 43892.873 -102444.309 43840 -101579.835 43840 -101379.872 48565 -101379.872 48565 -101820.128 48650.89 -102251.925 48819.369 -102658.669 49063.962 -103024.729 49375.271 -103336.038 49741.331 -103580.631 50148.075 -103749.11 50579.872 -103835 51020.128 -103835 51451.925 -103749.11 51858.669 -103580.631 52224.729 -103336.038 52536.038 -103024.729 52780.631 -102658.669 52949.11 -102251.925 53035 -101820.128 53035 -101379.872 52949.11 -100948.075 52867.065 -100750 62011.928 -100750 62011.928 -102450 62024.188 -102574.482 62060.498 -102694.18 62119.463 -102804.494 62198.815 -102901.185 62295.506 -102980.537 62405.82 -103039.502 62525.518 -103075.812 62650 -103088.072 64350 -103088.072 64474.482 -103075.812 64594.18 -103039.502 64704.494 -102980.537 64801.185 -102901.185 64880.537 -102804.494 64939.502 -102694.18 64961.513 -102621.62 65093.368 -102753.475 65336.589 -102915.99 65606.842 -103027.932 65893.74 -103085 66186.26 -103085 66473.158 -103027.932 66743.411 -102915.99 66986.632 -102753.475 67193.475 -102546.632 67315.195 -102364.466 67384.822 -102481.355 67579.731 -102697.588 67813.08 -102871.641 68075.901 -102996.825 68223.11 -103041.476 68453 -102920.155 68453 -101727 68433 -101727 68433 -101473 68453 -101473 68453 -100279.845 68223.11 -100158.524 68075.901 -100203.175 67813.08 -100328.359 67579.731 -100502.412 67384.822 -100718.645 67315.195 -100835.534 67193.475 -100653.368 66986.632 -100446.525 66743.411 -100284.01 66473.158 -100172.068 66186.26 -100115 65893.74 -100115 65606.842 -100172.068 65336.589 -100284.01 65093.368 -100446.525 64961.513 -100578.38 64939.502 -100505.82 64880.537 -100395.506 64801.185 -100298.815 64704.494 -100219.463 64594.18 -100160.498 64579.5 -100156.045 64579.5 -94427.142 87512.195 -71494.447 89879.805 -71494.447 89963.326 -71793.553 90103.595 -72070.617 90295.221 -72314.992 90530.84 -72517.287 90801.397 -72669.728 91067.412 -72760.586 91313 -72640.584 91313 -71247 90014.831 -71247 89879.805 -71494.447 87512.195 -71494.447 89347.143 -69659.5 90643.032 -69659.5 90530.84 -69722.713 90295.221 -69925.008 90103.595 -70169.383 89963.326 -70446.447 89879.805 -70745.553 90014.831 -70993 91313 -70993 91313 -70973 91567 -70973 91567 -70993 91587 -70993 91587 -71247 91567 -71247 91567 -72640.584 91812.588 -72760.586 92078.603 -72669.728 92349.16 -72517.287 92584.779 -72314.992 92703.725 -72163.303 92853.813 -72346.187 93095.161 -72544.256 93162.969 -72580.5 92763.029 -72580.5 92710 -72575.277 92656.971 -72580.5 92498.381 -72596.12 92294.894 -72657.847 92107.36 -72758.086 91942.985 -72892.985 91909.182 -72934.174 70394.18 -94449.178 70352.986 -94482.985 70218.087 -94647.36 70164.821 -94747.014 70117.847 -94834.896 70056.12 -95038.382 70035.277 -95250 70040.501 -95303.039 70040.5 -100579.393 69966.525 -100653.368 69844.805 -100835.534 69775.178 -100718.645 69580.269 -100502.412 69346.92 -100328.359 69084.099 -100203.175 68936.89 -100158.524 68707 -100279.845 68707 -101473 68727 -101473 68727 -101727 68707 -101727 68707 -102920.155 68936.89 -103041.476 69084.099 -102996.825 69346.92 -102871.641 69580.269 -102697.588 69775.178 -102481.355 69844.805 -102364.466 69966.525 -102546.632 70173.368 -102753.475 70416.589 -102915.99 70686.842 -103027.932 70973.74 -103085 71266.26 -103085 71553.158 -103027.932 71823.411 -102915.99 72066.632 -102753.475 72273.475 -102546.632 72390 -102372.24 72506.525 -102546.632 72713.368 -102753.475 72956.589 -102915.99 73226.842 -103027.932 73513.74 -103085 73806.26 -103085 74093.158 -103027.932 74363.411 -102915.99 74606.632 -102753.475 74813.475 -102546.632 74930 -102372.24 75046.525 -102546.632 75253.368 -102753.475 75496.589 -102915.99 75766.842 -103027.932 76053.74 -103085 76346.26 -103085 76633.158 -103027.932 76903.411 -102915.99 77146.632 -102753.475 77353.475 -102546.632 77470 -102372.24 77586.525 -102546.632 77793.368 -102753.475 78036.589 -102915.99 78306.842 -103027.932 78593.74 -103085 78886.26 -103085 79173.158 -103027.932 79443.411 -102915.99 79686.632 -102753.475 79893.475 -102546.632 80055.99 -102303.411 80167.932 -102033.158 80225 -101746.26 80225 -101453.74 80210.307 -101379.872 124765 -101379.872 124765 -101820.128 124850.89 -102251.925 125019.369 -102658.669 125263.962 -103024.729 125575.271 -103336.038 125941.331 -103580.631 126348.075 -103749.11 126779.872 -103835 127220.128 -103835 127651.925 -103749.11 128058.669 -103580.631 128424.729 -103336.038 128736.038 -103024.729 128980.631 -102658.669 129149.11 -102251.925 129235 -101820.128 129235 -101379.872 129149.11 -100948.075 128980.631 -100541.331 128736.038 -100175.271 128424.729 -99863.962 128058.669 -99619.369 127651.925 -99450.89 127220.128 -99365 126779.872 -99365 126348.075 -99450.89 125941.331 -99619.369 125575.271 -99863.962 125263.962 -100175.271 125019.369 -100541.331 124850.89 -100948.075 124765 -101379.872 80210.307 -101379.872 80167.932 -101166.842 80055.99 -100896.589 79893.475 -100653.368 79686.632 -100446.525 79443.411 -100284.01 79173.158 -100172.068 79157.657 -100168.985 102047.143 -77279.5 114246.971 -77279.5 114300 -77284.723 114353.029 -77279.5 114511.619 -77263.88 114715.106 -77202.153 114902.64 -77101.914 115067.015 -76967.015 115100.827 -76925.815 117565.821 -74460.822 117607.015 -74427.015 117741.914 -74262.64 117842.153 -74075.106 117903.88 -73871.619 117919.5 -73713.029 117919.5 -73713.022 117924.722 -73660.001 117919.5 -73606.979 117919.5 -69903.021 117924.722 -69849.999 117919.5 -69796.978 117919.5 -69796.971 117903.88 -69638.381 117842.153 -69434.894 117741.914 -69247.36 117607.015 -69082.985 117565.821 -69049.178 116370.826 -67854.184 116337.015 -67812.985 116172.64 -67678.086 115985.106 -67577.847 115781.619 -67516.12 115623.029 -67500.5 115570 -67495.277 115516.971 -67500.5 108003.021 -67500.5 107949.999 -67495.278 107896.978 -67500.5 107896.971 -67500.5 107738.381 -67516.12 107534.894 -67577.847 107347.36 -67678.086 107182.985 -67812.985 107149.178 -67854.179 105954.184 -69049.174 105912.985 -69082.985 105778.086 -69247.36 105677.847 -69434.895 105663.584 -69481.914 105616.12 -69638.382 105595.277 -69850 105596.169 -69859.053 105553.813 -69893.813 105410 -70069.05 105266.187 -69893.813 105024.839 -69695.744 104749.488 -69548.566 104450.714 -69457.934 104140 -69427.331 103829.287 -69457.934 103530.513 -69548.566 103255.162 -69695.744 103013.813 -69893.813 102870 -70069.05 102726.187 -69893.813 102484.839 -69695.744 102209.488 -69548.566 101910.714 -69457.934 101600 -69427.331 101289.287 -69457.934 100990.513 -69548.566 100715.162 -69695.744 100473.813 -69893.813 100330 -70069.05 100186.187 -69893.813 99944.839 -69695.744 99669.488 -69548.566 99370.714 -69457.934 99060 -69427.331 98749.287 -69457.934 98450.513 -69548.566 98175.162 -69695.744 97933.813 -69893.813 97790 -70069.05 97646.187 -69893.813 97603.83 -69859.052 97604.722 -69849.999 97599.5 -69796.978 97599.5 -69796.971 97583.88 -69638.381 97522.153 -69434.894 97421.914 -69247.36 97287.015 -69082.985 97245.821 -69049.178 96050.826 -67854.184 96017.015 -67812.985 95852.64 -67678.086 95665.106 -67577.847 95461.619 -67516.12 95303.029 -67500.5 95250 -67495.277 95196.971 -67500.5 88953.018 -67500.5 88899.999 -67495.278 88846.98 -67500.5 88846.971 -67500.5 88688.381 -67516.12 88484.894 -67577.847 88297.36 -67678.086 88132.985 -67812.985 88099.178 -67854.179 62774.18 -93179.178 62732.986 -93212.985 62598.087 -93377.36 62497.848 -93564.894 62497.847 -93564.896 62436.12 -93768.382 62415.277 -93980 62420.501 -94033.039 62420.5 -100156.045 62405.82 -100160.498 62295.506 -100219.463 62198.815 -100298.815 62119.463 -100395.506 62060.498 -100505.82 62024.188 -100625.518 62011.928 -100750 52867.065 -100750 52780.631 -100541.331 52536.038 -100175.271 52224.729 -99863.962 51858.669 -99619.369 51451.925 -99450.89 51020.128 -99365 50579.872 -99365 50148.075 -99450.89 49741.331 -99619.369 49375.271 -99863.962 49063.962 -100175.271 48819.369 -100541.331 48650.89 -100948.075 48565 -101379.872 43840 -101379.872 43840 -74930 64955.277 -74930 64960.5 -74983.029 64960.5 -76253.028 64976.12 -76411.618 65037.847 -76615.105 65138.086 -76802.64 65272.985 -76967.015 65437.36 -77101.914 65624.894 -77202.153 65828.381 -77263.88 66040 -77284.723 66251.618 -77263.88 66455.105 -77202.153 66642.64 -77101.914 66807.015 -76967.015 66941.914 -76802.64 67042.153 -76615.106 67103.88 -76411.619 67119.5 -76253.029 67119.5 -75377.142 88077.144 -54419.5 95196.971 -54419.5 95250 -54424.723 95303.029 -54419.5 95461.619 -54403.88 95665.106 -54342.153 95852.64 -54241.914 96017.015 -54107.015 96050.826 -54065.816 97245.821 -52870.822 97287.015 -52837.015 97421.914 -52672.64 97522.153 -52485.106 97583.88 -52281.619 97599.5 -52123.029 97599.5 -52123.022 97604.722 -52070.001 97603.83 -52060.948 97646.187 -52026.187 97790 -51850.95 97933.813 -52026.187 98175.161 -52224.256 98450.512 -52371.434 98749.286 -52462.066 99060 -52492.669 99370.713 -52462.066 99669.487 -52371.434 99944.838 -52224.256 100186.187 -52026.187 100330 -51850.95 100473.813 -52026.187 100715.161 -52224.256 100990.512 -52371.434 101289.286 -52462.066 101600 -52492.669 101910.713 -52462.066 102209.487 -52371.434 102484.838 -52224.256 102726.187 -52026.187 102870 -51850.95 103013.813 -52026.187 103255.161 -52224.256 103530.512 -52371.434 103829.286 -52462.066 104140 -52492.669 104450.713 -52462.066 104749.487 -52371.434 105024.838 -52224.256 105266.187 -52026.187 105410 -51850.95 105553.813 -52026.187 105795.161 -52224.256 106070.512 -52371.434 106369.286 -52462.066 106680 -52492.669 106990.713 -52462.066 107289.487 -52371.434 107564.838 -52224.256 107806.187 -52026.187 107950 -51850.95 108093.813 -52026.187 108335.161 -52224.256 108610.512 -52371.434 108909.286 -52462.066 109220 -52492.669 109530.713 -52462.066 109829.487 -52371.434 110104.838 -52224.256 110346.187 -52026.187 110490 -51850.95 110633.813 -52026.187 110875.161 -52224.256 111150.512 -52371.434 111449.286 -52462.066 111760 -52492.669 112070.713 -52462.066 112369.487 -52371.434 112644.838 -52224.256 112773.56 -52118.617 112819.463 -52204.494 112898.815 -52301.185 112995.506 -52380.537 113105.82 -52439.502 113225.518 -52475.812 113350 -52488.072 115250 -52488.072 115374.482 -52475.812 115494.18 -52439.502 115604.494 -52380.537 115701.185 -52301.185 115780.537 -52204.494 115839.502 -52094.18 115875.812 -51974.482 115888.072 -51850 115888.072 -50579.872 124765 -50579.872 124765 -51020.128 124850.89 -51451.925 125019.369 -51858.669 125263.962 -52224.729 125575.271 -52536.038 125941.331 -52780.631 126348.075 -52949.11 126779.872 -53035 127220.128 -53035 127651.925 -52949.11 128058.669 -52780.631 128424.729 -52536.038 128736.038 -52224.729 128980.631 -51858.669 129149.11 -51451.925 129235 -51020.128 129235 -50579.872 129149.11 -50148.075 128980.631 -49741.331 128736.038 -49375.271 128424.729 -49063.962 128058.669 -48819.369 127651.925 -48650.89 127220.128 -48565 126779.872 -48565 126348.075 -48650.89 125941.331 -48819.369 125575.271 -49063.962 125263.962 -49375.271 125019.369 -49741.331 124850.89 -50148.075 124765 -50579.872 115888.072 -50579.872 115888.072 -49750 115875.812 -49625.518 115839.502 -49505.82 115780.537 -49395.506 115701.185 -49298.815 115604.494 -49219.463 115494.18 -49160.498 115374.482 -49124.188 115250 -49111.928 113350 -49111.928 113225.518 -49124.188 113105.82 -49160.498 112995.506 -49219.463 112898.815 -49298.815 112819.463 -49395.506 112773.56 -49481.383 112644.839 -49375.744 112369.488 -49228.566 112070.714 -49137.934 111760 -49107.331 111449.287 -49137.934 111150.513 -49228.566 110875.162 -49375.744 110633.813 -49573.813 110490 -49749.05 110346.187 -49573.813 110104.839 -49375.744 109829.488 -49228.566 109530.714 -49137.934 109220 -49107.331 108909.287 -49137.934 108610.513 -49228.566 108335.162 -49375.744 108093.813 -49573.813 107950 -49749.05 107806.187 -49573.813 107564.839 -49375.744 107289.488 -49228.566 106990.714 -49137.934 106680 -49107.331 106369.287 -49137.934 106070.513 -49228.566 105795.162 -49375.744 105553.813 -49573.813 105410 -49749.05 105266.187 -49573.813 105024.839 -49375.744 104749.488 -49228.566 104450.714 -49137.934 104140 -49107.331 103829.287 -49137.934 103530.513 -49228.566 103255.162 -49375.744 103013.813 -49573.813 102870 -49749.05 102726.187 -49573.813 102484.839 -49375.744 102209.488 -49228.566 101910.714 -49137.934 101600 -49107.331 101289.287 -49137.934 100990.513 -49228.566 100715.162 -49375.744 100473.813 -49573.813 100330 -49749.05 100186.187 -49573.813 99944.839 -49375.744 99669.488 -49228.566 99370.714 -49137.934 99060 -49107.331 98749.287 -49137.934 98450.513 -49228.566 98175.162 -49375.744 97933.813 -49573.813 97790 -49749.05 97646.187 -49573.813 97404.839 -49375.744 97129.488 -49228.566 96830.714 -49137.934 96520 -49107.331 96209.287 -49137.934 95910.513 -49228.566 95635.162 -49375.744 95393.813 -49573.813 95250 -49749.05 95106.187 -49573.813 94864.839 -49375.744 94589.488 -49228.566 94290.714 -49137.934 93980 -49107.331 93669.287 -49137.934 93370.513 -49228.566 93095.162 -49375.744 92853.813 -49573.813 92703.725 -49756.696 92584.779 -49605.008 92349.16 -49402.713 92078.603 -49250.272 91812.588 -49159.414 91567 -49279.416 91567 -50673 91587 -50673 91587 -50927 91567 -50927 91567 -50947 91313 -50947 91313 -50927 90014.831 -50927 89879.805 -51174.447 89963.326 -51473.553 90103.595 -51750.617 90295.221 -51994.992 90530.84 -52197.287 90643.032 -52260.5 87683.029 -52260.5 87630 -52255.277 87576.971 -52260.5 87418.381 -52276.12 87214.894 -52337.847 87027.36 -52438.086 86862.985 -52572.985 86829.182 -52614.174 65314.18 -74129.178 65272.986 -74162.985 65138.087 -74327.36 65037.848 -74514.894 64976.12 -74718.381 64960.5 -74876.971 64955.277 -74930 43840 -74930 43840 -50823.92 43857.707 -50579.872 48565 -50579.872 48565 -51020.128 48650.89 -51451.925 48819.369 -51858.669 49063.962 -52224.729 49375.271 -52536.038 49741.331 -52780.631 50148.075 -52949.11 50579.872 -53035 51020.128 -53035 51451.925 -52949.11 51858.669 -52780.631 52224.729 -52536.038 52536.038 -52224.729 52780.631 -51858.669 52949.11 -51451.925 53035 -51020.128 53035 -50579.872 52949.11 -50148.075 52780.631 -49741.331 52595.993 -49465 56411.928 -49465 56411.928 -51215 56441.001 -51510.186 56527.104 -51794.028 56666.927 -52055.618 56855.097 -52284.903 57084.382 -52473.073 57345.972 -52612.896 57629.814 -52698.999 57925 -52728.072 59675 -52728.072 59970.186 -52698.999 59977.61 -52696.747 57694.185 -54980.173 57652.985 -55013.985 57518.086 -55178.36 57417.847 -55365.895 57417.847 -55365.896 57356.12 -55569.382 57335.277 -55781 57340.5 -55834.029 57340.501 -58319.377 57265.506 -58359.463 57168.815 -58438.815 57089.463 -58535.506 57030.498 -58645.82 56994.188 -58765.518 56981.928 -58890 56981.928 -60490 56994.188 -60614.482 57030.498 -60734.18 57089.463 -60844.494 57168.815 -60941.185 57265.506 -61020.537 57375.82 -61079.502 57495.518 -61115.812 57620 -61128.072 59220 -61128.072 59344.482 -61115.812 59464.18 -61079.502 59574.494 -61020.537 59671.185 -60941.185 59750.537 -60844.494 59809.502 -60734.18 59825.117 -60682.702 60106.903 -60682.702 60178.486 -60926.671 60433.996 -61047.571 60708.184 -61116.3 60990.512 -61130.217 61270.13 -61088.787 61536.292 -60993.603 61661.514 -60926.671 61733.097 -60682.702 60920 -59869.605 60106.903 -60682.702 59825.117 -60682.702 59845.812 -60614.482 59858.072 -60490 59858.072 -60482.785 59927.298 -60503.097 60740.395 -59690 61099.605 -59690 61912.702 -60503.097 62156.671 -60431.514 62277.571 -60176.004 62346.3 -59901.816 62360.217 -59619.488 62318.787 -59339.87 62223.603 -59073.708 62156.671 -58948.486 61912.702 -58876.903 61099.605 -59690 60740.395 -59690 59927.298 -58876.903 59858.072 -58897.215 59858.072 -58890 59845.812 -58765.518 59825.118 -58697.298 60106.903 -58697.298 60920 -59510.395 61733.097 -58697.298 61661.514 -58453.329 61406.004 -58332.429 61131.816 -58263.7 60849.488 -58249.783 60569.87 -58291.213 60303.708 -58386.397 60178.486 -58453.329 60106.903 -58697.298 59825.118 -58697.298 59809.502 -58645.82 59750.537 -58535.506 59671.185 -58438.815 59574.494 -58359.463 59499.5 -58319.377 59499.5 -56228.142 61111.928 -54615.715 61111.928 -55090 61124.188 -55214.482 61160.498 -55334.18 61219.463 -55444.494 61298.815 -55541.185 61395.506 -55620.537 61505.82 -55679.502 61625.518 -55715.812 61750 -55728.072 65250 -55728.072 65374.482 -55715.812 65494.18 -55679.502 65604.494 -55620.537 65701.185 -55541.185 65780.537 -55444.494 65839.502 -55334.18 65875.812 -55214.482 65888.072 -55090 65888.072 -51590 65875.812 -51465.518 65839.502 -51345.82 65780.537 -51235.506 65701.185 -51138.815 65604.494 -51059.463 65494.18 -51000.498 65374.482 -50964.188 65250 -50951.928 61750 -50951.928 61625.518 -50964.188 61505.82 -51000.498 61395.506 -51059.463 61298.815 -51138.815 61219.463 -51235.506 61178.506 -51312.131 61188.072 -51215 61188.072 -50425.553 89879.805 -50425.553 90014.831 -50673 91313 -50673 91313 -49279.416 91067.412 -49159.414 90801.397 -49250.272 90530.84 -49402.713 90295.221 -49605.008 90103.595 -49849.383 89963.326 -50126.447 89879.805 -50425.553 61188.072 -50425.553 61188.072 -49465 61158.999 -49169.814 61072.896 -48885.972 61048.324 -48840 61111.928 -48840 61124.188 -48964.482 61160.498 -49084.18 61219.463 -49194.494 61298.815 -49291.185 61395.506 -49370.537 61505.82 -49429.502 61625.518 -49465.812 61750 -49478.072 63214.25 -49475 63373 -49316.25 63373 -47467 63627 -47467 63627 -49316.25 63785.75 -49475 65250 -49478.072 65374.482 -49465.812 65494.18 -49429.502 65604.494 -49370.537 65701.185 -49291.185 65780.537 -49194.494 65839.502 -49084.18 65875.812 -48964.482 65888.072 -48840 65885 -47625.75 65726.25 -47467 63627 -47467 63373 -47467 61273.75 -47467 61115 -47625.75 61111.928 -48840 61048.324 -48840 60933.073 -48624.382 60744.903 -48395.097 60515.618 -48206.927 60254.028 -48067.104 59970.186 -47981.001 59675 -47951.928 57925 -47951.928 57629.814 -47981.001 57345.972 -48067.104 57084.382 -48206.927 56855.097 -48395.097 56666.927 -48624.382 56527.104 -48885.972 56441.001 -49169.814 56411.928 -49465 52595.993 -49465 52536.038 -49375.271 52224.729 -49063.962 51858.669 -48819.369 51451.925 -48650.89 51020.128 -48565 50579.872 -48565 50148.075 -48650.89 49741.331 -48819.369 49375.271 -49063.962 49063.962 -49375.271 48819.369 -49741.331 48650.89 -50148.075 48565 -50579.872 43857.707 -50579.872 43914.617 -49795.53 44131.739 -48812.102 44488.546 -47870.325 44977.575 -46989.905 45588.569 -46189.313 45945.898 -45840 61111.928 -45840 61115 -47054.25 61273.75 -47213 63373 -47213 63373 -45363.75 63627 -45363.75 63627 -47213 65726.25 -47213 65885 -47054.25 65888.072 -45840 65875.812 -45715.518 65839.502 -45595.82 65780.537 -45485.506 65701.185 -45388.815 65604.494 -45309.463 65494.18 -45250.498 65374.482 -45214.188 65250 -45201.928 63785.75 -45205 63627 -45363.75 63373 -45363.75 63214.25 -45205 61750 -45201.928 61625.518 -45214.188 61505.82 -45250.498 61395.506 -45309.463 61298.815 -45388.815 61219.463 -45485.506 61160.498 -45595.82 61124.188 -45715.518 61111.928 -45840 45945.898 -45840 46308.732 -45485.306 47122.987 -44892.63 48014.269 -44423.704 48963.9 -44088.353 49955.692 -43892.873 50820.164 -43840 126976.08 -43840 128004.47 -43914.617"/></g><g id="jnq_COBbMc2O_bottom_soldermask"><use xlink:href="#Mbq1dcTIesi2_pad-10" x="60920" y="-59690"/><use xlink:href="#Mbq1dcTIesi2_pad-11" x="58420" y="-59690"/><use xlink:href="#Mbq1dcTIesi2_pad-12" x="78740" y="-101600"/><use xlink:href="#Mbq1dcTIesi2_pad-12" x="76200" y="-101600"/><use xlink:href="#Mbq1dcTIesi2_pad-12" x="73660" y="-101600"/><use xlink:href="#Mbq1dcTIesi2_pad-12" x="71120" y="-101600"/><use xlink:href="#Mbq1dcTIesi2_pad-12" x="68580" y="-101600"/><use xlink:href="#Mbq1dcTIesi2_pad-12" x="66040" y="-101600"/><use xlink:href="#Mbq1dcTIesi2_pad-13" x="63500" y="-101600"/><path d="M 57925 -48590 59675 -48590 A 875 875 0 0 0 60550 -49465 L 60550 -51215 A 875 875 0 0 0 59675 -52090 L 57925 -52090 A 875 875 0 0 0 57050 -51215 L 57050 -49465 A 875 875 0 0 0 57925 -48590"/><path d="M 62500 -45840 64500 -45840 A 750 750 0 0 0 65250 -46590 L 65250 -48090 A 750 750 0 0 0 64500 -48840 L 62500 -48840 A 750 750 0 0 0 61750 -48090 L 61750 -46590 A 750 750 0 0 0 62500 -45840"/><use xlink:href="#Mbq1dcTIesi2_pad-14" x="63500" y="-53340"/><use xlink:href="#Mbq1dcTIesi2_pad-15" x="91440" y="-71120"/><use xlink:href="#Mbq1dcTIesi2_pad-15" x="91440" y="-50800"/><use xlink:href="#Mbq1dcTIesi2_pad-15" x="93980" y="-71120"/><use xlink:href="#Mbq1dcTIesi2_pad-15" x="93980" y="-50800"/><use xlink:href="#Mbq1dcTIesi2_pad-15" x="96520" y="-71120"/><use xlink:href="#Mbq1dcTIesi2_pad-15" x="96520" y="-50800"/><use xlink:href="#Mbq1dcTIesi2_pad-15" x="99060" y="-71120"/><use xlink:href="#Mbq1dcTIesi2_pad-15" x="99060" y="-50800"/><use xlink:href="#Mbq1dcTIesi2_pad-15" x="101600" y="-71120"/><use xlink:href="#Mbq1dcTIesi2_pad-15" x="101600" y="-50800"/><use xlink:href="#Mbq1dcTIesi2_pad-15" x="104140" y="-71120"/><use xlink:href="#Mbq1dcTIesi2_pad-15" x="104140" y="-50800"/><use xlink:href="#Mbq1dcTIesi2_pad-15" x="106680" y="-71120"/><use xlink:href="#Mbq1dcTIesi2_pad-15" x="106680" y="-50800"/><use xlink:href="#Mbq1dcTIesi2_pad-15" x="109220" y="-71120"/><use xlink:href="#Mbq1dcTIesi2_pad-15" x="109220" y="-50800"/><use xlink:href="#Mbq1dcTIesi2_pad-15" x="111760" y="-71120"/><use xlink:href="#Mbq1dcTIesi2_pad-15" x="111760" y="-50800"/><use xlink:href="#Mbq1dcTIesi2_pad-15" x="114300" y="-71120"/><use xlink:href="#Mbq1dcTIesi2_pad-16" x="114300" y="-50800"/><use xlink:href="#Mbq1dcTIesi2_pad-17" x="127000" y="-50800"/><use xlink:href="#Mbq1dcTIesi2_pad-17" x="127000" y="-101600"/><use xlink:href="#Mbq1dcTIesi2_pad-17" x="50800" y="-101600"/><use xlink:href="#Mbq1dcTIesi2_pad-17" x="50800" y="-50800"/></g><g id="jnq_COBbMc2O_bottom_silkscreen"><path d="M 51172.619 -93622.38 51648.809 -93955.714 M 51172.619 -94193.809 52172.619 -94193.809 52172.619 -93812.857 52125 -93717.619 52077.38 -93670 51982.142 -93622.38 51839.285 -93622.38 51744.047 -93670 51696.428 -93717.619 51648.809 -93812.857 51648.809 -94193.809 M 51696.428 -93193.809 51696.428 -92860.476 M 51172.619 -92717.619 51172.619 -93193.809 52172.619 -93193.809 52172.619 -92717.619 M 52172.619 -92431.904 51172.619 -92098.571 52172.619 -91765.238 M 51172.619 -91431.904 52172.619 -91431.904 M 51220.238 -91003.333 51172.619 -90860.476 51172.619 -90622.38 51220.238 -90527.142 51267.857 -90479.523 51363.095 -90431.904 51458.333 -90431.904 51553.571 -90479.523 51601.19 -90527.142 51648.809 -90622.38 51696.428 -90812.857 51744.047 -90908.095 51791.666 -90955.714 51886.904 -91003.333 51982.142 -91003.333 52077.38 -90955.714 52125 -90908.095 52172.619 -90812.857 52172.619 -90574.761 52125 -90431.904 M 51172.619 -90003.333 52172.619 -90003.333 M 52172.619 -89336.666 52172.619 -89146.19 52125 -89050.952 52029.761 -88955.714 51839.285 -88908.095 51505.952 -88908.095 51315.476 -88955.714 51220.238 -89050.952 51172.619 -89146.19 51172.619 -89336.666 51220.238 -89431.904 51315.476 -89527.142 51505.952 -89574.761 51839.285 -89574.761 52029.761 -89527.142 52125 -89431.904 52172.619 -89336.666 M 51172.619 -88479.523 52172.619 -88479.523 51172.619 -87908.095 52172.619 -87908.095 M 51696.428 -86336.666 51648.809 -86193.809 51601.19 -86146.19 51505.952 -86098.571 51363.095 -86098.571 51267.857 -86146.19 51220.238 -86193.809 51172.619 -86289.047 51172.619 -86670 52172.619 -86670 52172.619 -86336.666 52125 -86241.428 52077.38 -86193.809 51982.142 -86146.19 51886.904 -86146.19 51791.666 -86193.809 51744.047 -86241.428 51696.428 -86336.666 51696.428 -86670 M 49808.333 -94336.666 49808.333 -93860.476 M 49522.619 -94431.904 50522.619 -94098.571 49522.619 -93765.238 M 49522.619 -93431.904 50522.619 -93431.904 50522.619 -93050.952 50475 -92955.714 50427.38 -92908.095 50332.142 -92860.476 50189.285 -92860.476 50094.047 -92908.095 50046.428 -92955.714 49998.809 -93050.952 49998.809 -93431.904 M 49522.619 -91860.476 49998.809 -92193.809 M 49522.619 -92431.904 50522.619 -92431.904 50522.619 -92050.952 50475 -91955.714 50427.38 -91908.095 50332.142 -91860.476 50189.285 -91860.476 50094.047 -91908.095 50046.428 -91955.714 49998.809 -92050.952 49998.809 -92431.904 M 49522.619 -91431.904 50522.619 -91431.904 M 49522.619 -90479.523 49522.619 -90955.714 50522.619 -90955.714 M 50427.38 -89431.904 50475 -89384.285 50522.619 -89289.047 50522.619 -89050.952 50475 -88955.714 50427.38 -88908.095 50332.142 -88860.476 50236.904 -88860.476 50094.047 -88908.095 49522.619 -89479.523 49522.619 -88860.476 M 50522.619 -88241.428 50522.619 -88146.19 50475 -88050.952 50427.38 -88003.333 50332.142 -87955.714 50141.666 -87908.095 49903.571 -87908.095 49713.095 -87955.714 49617.857 -88003.333 49570.238 -88050.952 49522.619 -88146.19 49522.619 -88241.428 49570.238 -88336.666 49617.857 -88384.285 49713.095 -88431.904 49903.571 -88479.523 50141.666 -88479.523 50332.142 -88431.904 50427.38 -88384.285 50475 -88336.666 50522.619 -88241.428 M 50427.38 -87527.142 50475 -87479.523 50522.619 -87384.285 50522.619 -87146.19 50475 -87050.952 50427.38 -87003.333 50332.142 -86955.714 50236.904 -86955.714 50094.047 -87003.333 49522.619 -87574.761 49522.619 -86955.714 M 49522.619 -86003.333 49522.619 -86574.761 M 49522.619 -86289.047 50522.619 -86289.047 50379.761 -86384.285 50284.523 -86479.523 50236.904 -86574.761" fill="none" stroke-width="150"/></g><g id="jnq_COBbMc2O_bottom_drill1" transform="scale(25.4,25.4)"><use xlink:href="#w2KK2zUsZQY0_pad-1" x="5000" y="-4000"/><use xlink:href="#w2KK2zUsZQY0_pad-1" x="5000" y="-2000"/><use xlink:href="#w2KK2zUsZQY0_pad-1" x="2000" y="-4000"/><use xlink:href="#w2KK2zUsZQY0_pad-1" x="2000" y="-2000"/></g><g id="jnq_COBbMc2O_bottom_drill2" transform="scale(25.4,25.4)"><use xlink:href="#KQD8Z0oHVeSd_pad-1" x="2600" y="-3000"/><use xlink:href="#KQD8Z0oHVeSd_pad-2" x="2300" y="-2350"/><use xlink:href="#KQD8Z0oHVeSd_pad-2" x="2398.4" y="-2350"/><use xlink:href="#KQD8Z0oHVeSd_pad-3" x="2500" y="-4000"/><use xlink:href="#KQD8Z0oHVeSd_pad-3" x="2600" y="-4000"/><use xlink:href="#KQD8Z0oHVeSd_pad-3" x="2700" y="-4000"/><use xlink:href="#KQD8Z0oHVeSd_pad-3" x="2800" y="-4000"/><use xlink:href="#KQD8Z0oHVeSd_pad-3" x="2900" y="-4000"/><use xlink:href="#KQD8Z0oHVeSd_pad-3" x="3000" y="-4000"/><use xlink:href="#KQD8Z0oHVeSd_pad-3" x="3100" y="-4000"/><use xlink:href="#KQD8Z0oHVeSd_pad-4" x="3600" y="-2000"/><use xlink:href="#KQD8Z0oHVeSd_pad-4" x="3600" y="-2800"/><use xlink:href="#KQD8Z0oHVeSd_pad-4" x="3700" y="-2000"/><use xlink:href="#KQD8Z0oHVeSd_pad-4" x="3700" y="-2800"/><use xlink:href="#KQD8Z0oHVeSd_pad-4" x="3800" y="-2000"/><use xlink:href="#KQD8Z0oHVeSd_pad-4" x="3800" y="-2800"/><use xlink:href="#KQD8Z0oHVeSd_pad-4" x="3900" y="-2000"/><use xlink:href="#KQD8Z0oHVeSd_pad-4" x="3900" y="-2800"/><use xlink:href="#KQD8Z0oHVeSd_pad-4" x="4000" y="-2000"/><use xlink:href="#KQD8Z0oHVeSd_pad-4" x="4000" y="-2800"/><use xlink:href="#KQD8Z0oHVeSd_pad-4" x="4100" y="-2000"/><use xlink:href="#KQD8Z0oHVeSd_pad-4" x="4100" y="-2800"/><use xlink:href="#KQD8Z0oHVeSd_pad-4" x="4200" y="-2000"/><use xlink:href="#KQD8Z0oHVeSd_pad-4" x="4200" y="-2800"/><use xlink:href="#KQD8Z0oHVeSd_pad-4" x="4300" y="-2000"/><use xlink:href="#KQD8Z0oHVeSd_pad-4" x="4300" y="-2800"/><use xlink:href="#KQD8Z0oHVeSd_pad-4" x="4400" y="-2000"/><use xlink:href="#KQD8Z0oHVeSd_pad-4" x="4400" y="-2800"/><use xlink:href="#KQD8Z0oHVeSd_pad-4" x="4500" y="-2000"/><use xlink:href="#KQD8Z0oHVeSd_pad-4" x="4500" y="-2800"/><path d="M 2315 -1942.5 2315 -2021.3 M 2539.4 -1863.8 2460.6 -1863.8 M 2539.4 -2100 2460.6 -2100" fill="none" stroke-width="39.4"/></g><clipPath id="jnq_COBbMc2O_bottom_outline"><path d="M 50800 -109220 127000 -109220 A 7620 7620 0 0 1 134620 -101600 L 134620 -50800 A 7620 7620 0 0 1 127000 -43180 L 50800 -43180 A 7620 7620 0 0 1 43180 -50800 L 43180 -101600 A 7620 7620 0 0 1 50800 -109220" fill="none" stroke-width="50"/></clipPath><mask id="jnq_COBbMc2O_bottom_mech-mask"><g fill="#000" stroke="#000"><rect x="43180" y="-109220" width="91440" height="66040" fill="#fff"/><use xlink:href="#jnq_COBbMc2O_bottom_drill1"/><use xlink:href="#jnq_COBbMc2O_bottom_drill2"/></g></mask><mask id="jnq_COBbMc2O_bottom_cf-mask"><g fill="#fff" stroke="#fff"><use xlink:href="#jnq_COBbMc2O_bottom_soldermask"/></g></mask><mask id="jnq_COBbMc2O_bottom_sm-mask"><g fill="#000" stroke="#000"><rect x="43180" y="-109220" width="91440" height="66040" fill="#fff"/><use xlink:href="#jnq_COBbMc2O_bottom_soldermask"/></g></mask></defs><g transform="translate(0,-152400) scale(1,-1)"><g mask="url(#jnq_COBbMc2O_bottom_mech-mask)" clip-path="url(#jnq_COBbMc2O_bottom_outline)" transform="translate(177800,0) scale(-1,1)"><rect x="43180" y="-109220" width="91440" height="66040" fill="currentColor" class="jnq_COBbMc2O_fr4"/><use xlink:href="#jnq_COBbMc2O_bottom_copper" fill="currentColor" stroke="currentColor" class="jnq_COBbMc2O_cu"/><use xlink:href="#jnq_COBbMc2O_bottom_copper" fill="currentColor" stroke="currentColor" class="jnq_COBbMc2O_cf" mask="url(#jnq_COBbMc2O_bottom_cf-mask)"/><g mask="url(#jnq_COBbMc2O_bottom_sm-mask)"><rect x="43180" y="-109220" width="91440" height="66040" fill="currentColor" class="jnq_COBbMc2O_sm"/><use xlink:href="#jnq_COBbMc2O_bottom_silkscreen" fill="currentColor" stroke="currentColor" class="jnq_COBbMc2O_ss"/></g></g></g></svg>