<svg version="1.1" xmlns="http://www.w3.org/2000/svg" xmlns:xlink="http://www.w3.org/1999/xlink" stroke-linecap="round" stroke-linejoin="round" stroke-width="0" fill-rule="evenodd" clip-rule="evenodd" id="bbQJxN2h56vd_bottom" viewBox="43180 -109220 91440 66040" width="91.44mm" height="66.04mm"><defs><style>.bbQJxN2h56vd_fr4 {color: #666666;}
.bbQJxN2h56vd_cu {color: #cccccc;}
.bbQJxN2h56vd_cf {color: #cc9933;}
.bbQJxN2h56vd_sm {color: #ff0000; opacity: 0.75;}
.bbQJxN2h56vd_ss {color: #ffffff;}
.bbQJxN2h56vd_sp {color: #999999;}
.bbQJxN2h56vd_out {color: #000000;}</style><circle cx="0" cy="0" r="800" id="qSXRgQ4gDjWa_pad-10"/><rect x="-800" y="-800" width="1600" height="1600" id="qSXRgQ4gDjWa_pad-11"/><rect x="-750" y="-525" width="1500" height="1050" id="qSXRgQ4gDjWa_pad-12"/><rect x="-750" y="-525" width="1500" height="1050" rx="525" ry="525" id="qSXRgQ4gDjWa_pad-13"/><rect x="-850" y="-850" width="1700" height="1700" rx="850" ry="850" id="qSXRgQ4gDjWa_pad-14"/><rect x="-850" y="-850" width="1700" height="1700" id="qSXRgQ4gDjWa_pad-15"/><rect x="-1750" y="-1750" width="3500" height="3500" id="qSXRgQ4gDjWa_pad-16"/><rect x="-950" y="-1050" width="1900" height="2100" rx="950" ry="950" id="qSXRgQ4gDjWa_pad-17"/><rect x="-950" y="-1050" width="1900" height="2100" id="qSXRgQ4gDjWa_pad-18"/><circle cx="0" cy="0" r="400" id="qSXRgQ4gDjWa_pad-19"/><circle cx="0" cy="0" r="800" id="L20K_SVAbzd6_pad-10"/><rect x="-800" y="-800" width="1600" height="1600" id="L20K_SVAbzd6_pad-11"/><rect x="-750" y="-525" width="1500" height="1050" id="L20K_SVAbzd6_pad-12"/><rect x="-750" y="-525" width="1500" height="1050" rx="525" ry="525" id="L20K_SVAbzd6_pad-13"/><rect x="-850" y="-850" width="1700" height="1700" rx="850" ry="850" id="L20K_SVAbzd6_pad-14"/><rect x="-850" y="-850" width="1700" height="1700" id="L20K_SVAbzd6_pad-15"/><rect x="-1750" y="-1750" width="3500" height="3500" id="L20K_SVAbzd6_pad-16"/><rect x="-950" y="-1050" width="1900" height="2100" rx="950" ry="950" id="L20K_SVAbzd6_pad-17"/><rect x="-950" y="-1050" width="1900" height="2100" id="L20K_SVAbzd6_pad-18"/><circle cx="0" cy="0" r="1600" id="L20K_SVAbzd6_pad-19"/><circle cx="0" cy="0" r="63" id="k7XCx_n_EJdM_pad-1"/><circle cx="0" cy="0" r="7.85" id="pcNq-iOttwvE_pad-1"/><circle cx="0" cy="0" r="14.75" id="pcNq-iOttwvE_pad-2"/><circle cx="0" cy="0" r="15.75" id="pcNq-iOttwvE_pad-3"/><circle cx="0" cy="0" r="19.7" id="pcNq-iOttwvE_pad-4"/><circle cx="0" cy="0" r="20.1" id="pcNq-iOttwvE_pad-5"/><g id="bbQJxN2h56vd_bottom_copper"><use xlink:href="#qSXRgQ4gDjWa_pad-10" x="76160" y="-53340"/><use xlink:href="#qSXRgQ4gDjWa_pad-11" x="73660" y="-53340"/><use xlink:href="#qSXRgQ4gDjWa_pad-12" x="127000" y="-62230"/><use xlink:href="#qSXRgQ4gDjWa_pad-13" x="127000" y="-64770"/><use xlink:href="#qSXRgQ4gDjWa_pad-13" x="127000" y="-63500"/><use xlink:href="#qSXRgQ4gDjWa_pad-14" x="78740" y="-101600"/><use xlink:href="#qSXRgQ4gDjWa_pad-14" x="76200" y="-101600"/><use xlink:href="#qSXRgQ4gDjWa_pad-14" x="73660" y="-101600"/><use xlink:href="#qSXRgQ4gDjWa_pad-14" x="71120" y="-101600"/><use xlink:href="#qSXRgQ4gDjWa_pad-14" x="68580" y="-101600"/><use xlink:href="#qSXRgQ4gDjWa_pad-14" x="66040" y="-101600"/><use xlink:href="#qSXRgQ4gDjWa_pad-15" x="63500" y="-101600"/><path d="M 57925 -48590 59675 -48590 A 875 875 0 0 0 60550 -49465 L 60550 -51215 A 875 875 0 0 0 59675 -52090 L 57925 -52090 A 875 875 0 0 0 57050 -51215 L 57050 -49465 A 875 875 0 0 0 57925 -48590"/><path d="M 62500 -45840 64500 -45840 A 750 750 0 0 0 65250 -46590 L 65250 -48090 A 750 750 0 0 0 64500 -48840 L 62500 -48840 A 750 750 0 0 0 61750 -48090 L 61750 -46590 A 750 750 0 0 0 62500 -45840"/><use xlink:href="#qSXRgQ4gDjWa_pad-16" x="63500" y="-53340"/><use xlink:href="#qSXRgQ4gDjWa_pad-17" x="91440" y="-71120"/><use xlink:href="#qSXRgQ4gDjWa_pad-17" x="91440" y="-50800"/><use xlink:href="#qSXRgQ4gDjWa_pad-17" x="93980" y="-71120"/><use xlink:href="#qSXRgQ4gDjWa_pad-17" x="93980" y="-50800"/><use xlink:href="#qSXRgQ4gDjWa_pad-17" x="96520" y="-71120"/><use xlink:href="#qSXRgQ4gDjWa_pad-17" x="96520" y="-50800"/><use xlink:href="#qSXRgQ4gDjWa_pad-17" x="99060" y="-71120"/><use xlink:href="#qSXRgQ4gDjWa_pad-17" x="99060" y="-50800"/><use xlink:href="#qSXRgQ4gDjWa_pad-17" x="101600" y="-71120"/><use xlink:href="#qSXRgQ4gDjWa_pad-17" x="101600" y="-50800"/><use xlink:href="#qSXRgQ4gDjWa_pad-17" x="104140" y="-71120"/><use xlink:href="#qSXRgQ4gDjWa_pad-17" x="104140" y="-50800"/><use xlink:href="#qSXRgQ4gDjWa_pad-17" x="106680" y="-71120"/><use xlink:href="#qSXRgQ4gDjWa_pad-17" x="106680" y="-50800"/><use xlink:href="#qSXRgQ4gDjWa_pad-17" x="109220" y="-71120"/><use xlink:href="#qSXRgQ4gDjWa_pad-17" x="109220" y="-50800"/><use xlink:href="#qSXRgQ4gDjWa_pad-17" x="111760" y="-71120"/><use xlink:href="#qSXRgQ4gDjWa_pad-17" x="111760" y="-50800"/><use xlink:href="#qSXRgQ4gDjWa_pad-17" x="114300" y="-71120"/><use xlink:href="#qSXRgQ4gDjWa_pad-18" x="114300" y="-50800"/><use xlink:href="#qSXRgQ4gDjWa_pad-19" x="66040" y="-76200"/><path d="M 127000 -63500 110490 -63500 M 101600 -54610 101600 -50800 M 110490 -63500 101600 -54610 M 76200 -101600 101600 -76200 114300 -76200 116840 -73660 116840 -69850 115570 -68580 107950 -68580 106680 -69850 106680 -71120 M 71120 -101600 71120 -95250 92710 -73660 107950 -73660 M 109220 -72390 109220 -71120 M 107950 -73660 109220 -72390 M 106680 -50800 106680 -53340 107950 -54610 113030 -54610 114300 -53340 114300 -50800 M 68580 -93980 91440 -71120 M 68580 -101600 68580 -93980 M 66040 -76200 66040 -74930 87630 -53340 95250 -53340 M 96520 -52070 96520 -50800 M 95250 -53340 96520 -52070 M 63500 -101600 63500 -93980 88900 -68580 95250 -68580 M 96520 -69850 96520 -71120 M 95250 -68580 96520 -69850 M 73660 -53340 63500 -53340" fill="none" stroke-width="889"/></g><g id="bbQJxN2h56vd_bottom_soldermask"><use xlink:href="#L20K_SVAbzd6_pad-10" x="76160" y="-53340"/><use xlink:href="#L20K_SVAbzd6_pad-11" x="73660" y="-53340"/><use xlink:href="#L20K_SVAbzd6_pad-12" x="127000" y="-62230"/><use xlink:href="#L20K_SVAbzd6_pad-13" x="127000" y="-64770"/><use xlink:href="#L20K_SVAbzd6_pad-13" x="127000" y="-63500"/><use xlink:href="#L20K_SVAbzd6_pad-14" x="78740" y="-101600"/><use xlink:href="#L20K_SVAbzd6_pad-14" x="76200" y="-101600"/><use xlink:href="#L20K_SVAbzd6_pad-14" x="73660" y="-101600"/><use xlink:href="#L20K_SVAbzd6_pad-14" x="71120" y="-101600"/><use xlink:href="#L20K_SVAbzd6_pad-14" x="68580" y="-101600"/><use xlink:href="#L20K_SVAbzd6_pad-14" x="66040" y="-101600"/><use xlink:href="#L20K_SVAbzd6_pad-15" x="63500" y="-101600"/><path d="M 57925 -48590 59675 -48590 A 875 875 0 0 0 60550 -49465 L 60550 -51215 A 875 875 0 0 0 59675 -52090 L 57925 -52090 A 875 875 0 0 0 57050 -51215 L 57050 -49465 A 875 875 0 0 0 57925 -48590"/><path d="M 62500 -45840 64500 -45840 A 750 750 0 0 0 65250 -46590 L 65250 -48090 A 750 750 0 0 0 64500 -48840 L 62500 -48840 A 750 750 0 0 0 61750 -48090 L 61750 -46590 A 750 750 0 0 0 62500 -45840"/><use xlink:href="#L20K_SVAbzd6_pad-16" x="63500" y="-53340"/><use xlink:href="#L20K_SVAbzd6_pad-17" x="91440" y="-71120"/><use xlink:href="#L20K_SVAbzd6_pad-17" x="91440" y="-50800"/><use xlink:href="#L20K_SVAbzd6_pad-17" x="93980" y="-71120"/><use xlink:href="#L20K_SVAbzd6_pad-17" x="93980" y="-50800"/><use xlink:href="#L20K_SVAbzd6_pad-17" x="96520" y="-71120"/><use xlink:href="#L20K_SVAbzd6_pad-17" x="96520" y="-50800"/><use xlink:href="#L20K_SVAbzd6_pad-17" x="99060" y="-71120"/><use xlink:href="#L20K_SVAbzd6_pad-17" x="99060" y="-50800"/><use xlink:href="#L20K_SVAbzd6_pad-17" x="101600" y="-71120"/><use xlink:href="#L20K_SVAbzd6_pad-17" x="101600" y="-50800"/><use xlink:href="#L20K_SVAbzd6_pad-17" x="104140" y="-71120"/><use xlink:href="#L20K_SVAbzd6_pad-17" x="104140" y="-50800"/><use xlink:href="#L20K_SVAbzd6_pad-17" x="106680" y="-71120"/><use xlink:href="#L20K_SVAbzd6_pad-17" x="106680" y="-50800"/><use xlink:href="#L20K_SVAbzd6_pad-17" x="109220" y="-71120"/><use xlink:href="#L20K_SVAbzd6_pad-17" x="109220" y="-50800"/><use xlink:href="#L20K_SVAbzd6_pad-17" x="111760" y="-71120"/><use xlink:href="#L20K_SVAbzd6_pad-17" x="111760" y="-50800"/><use xlink:href="#L20K_SVAbzd6_pad-17" x="114300" y="-71120"/><use xlink:href="#L20K_SVAbzd6_pad-18" x="114300" y="-50800"/><use xlink:href="#L20K_SVAbzd6_pad-19" x="127000" y="-50800"/><use xlink:href="#L20K_SVAbzd6_pad-19" x="127000" y="-101600"/><use xlink:href="#L20K_SVAbzd6_pad-19" x="50800" y="-101600"/><use xlink:href="#L20K_SVAbzd6_pad-19" x="50800" y="-50800"/></g><g id="bbQJxN2h56vd_bottom_silkscreen"><path d="M 51172.619 -95027.142 51648.809 -95360.476 M 51172.619 -95598.571 52172.619 -95598.571 52172.619 -95217.619 52125 -95122.38 52077.38 -95074.761 51982.142 -95027.142 51839.285 -95027.142 51744.047 -95074.761 51696.428 -95122.38 51648.809 -95217.619 51648.809 -95598.571 M 51696.428 -94598.571 51696.428 -94265.238 M 51172.619 -94122.38 51172.619 -94598.571 52172.619 -94598.571 52172.619 -94122.38 M 52172.619 -93836.666 51172.619 -93503.333 52172.619 -93170 M 51172.619 -92836.666 52172.619 -92836.666 M 51220.238 -92408.095 51172.619 -92265.238 51172.619 -92027.142 51220.238 -91931.904 51267.857 -91884.285 51363.095 -91836.666 51458.333 -91836.666 51553.571 -91884.285 51601.19 -91931.904 51648.809 -92027.142 51696.428 -92217.619 51744.047 -92312.857 51791.666 -92360.476 51886.904 -92408.095 51982.142 -92408.095 52077.38 -92360.476 52125 -92312.857 52172.619 -92217.619 52172.619 -91979.523 52125 -91836.666 M 51172.619 -91408.095 52172.619 -91408.095 M 52172.619 -90741.428 52172.619 -90550.952 52125 -90455.714 52029.761 -90360.476 51839.285 -90312.857 51505.952 -90312.857 51315.476 -90360.476 51220.238 -90455.714 51172.619 -90550.952 51172.619 -90741.428 51220.238 -90836.666 51315.476 -90931.904 51505.952 -90979.523 51839.285 -90979.523 52029.761 -90931.904 52125 -90836.666 52172.619 -90741.428 M 51172.619 -89884.285 52172.619 -89884.285 51172.619 -89312.857 52172.619 -89312.857 M 51172.619 -87550.952 51172.619 -88122.38 M 51172.619 -87836.666 52172.619 -87836.666 52029.761 -87931.904 51934.523 -88027.142 51886.904 -88122.38 M 51267.857 -87122.38 51220.238 -87074.761 51172.619 -87122.38 51220.238 -87170 51267.857 -87122.38 51172.619 -87122.38 M 51172.619 -86122.38 51172.619 -86693.809 M 51172.619 -86408.095 52172.619 -86408.095 52029.761 -86503.333 51934.523 -86598.571 51886.904 -86693.809 M 51267.857 -85693.809 51220.238 -85646.19 51172.619 -85693.809 51220.238 -85741.428 51267.857 -85693.809 51172.619 -85693.809 M 51172.619 -84693.809 51172.619 -85265.238 M 51172.619 -84979.523 52172.619 -84979.523 52029.761 -85074.761 51934.523 -85170 51886.904 -85265.238 M 49522.619 -96146.19 50522.619 -96146.19 50522.619 -95908.095 50475 -95765.238 50379.761 -95670 50284.523 -95622.38 50094.047 -95574.761 49951.19 -95574.761 49760.714 -95622.38 49665.476 -95670 49570.238 -95765.238 49522.619 -95908.095 49522.619 -96146.19 M 50046.428 -95146.19 50046.428 -94812.857 M 49522.619 -94670 49522.619 -95146.19 50522.619 -95146.19 50522.619 -94670 M 49617.857 -93670 49570.238 -93717.619 49522.619 -93860.476 49522.619 -93955.714 49570.238 -94098.571 49665.476 -94193.809 49760.714 -94241.428 49951.19 -94289.047 50094.047 -94289.047 50284.523 -94241.428 50379.761 -94193.809 50475 -94098.571 50522.619 -93955.714 50522.619 -93860.476 50475 -93717.619 50427.38 -93670 M 50046.428 -93241.428 50046.428 -92908.095 M 49522.619 -92765.238 49522.619 -93241.428 50522.619 -93241.428 50522.619 -92765.238 M 49522.619 -92336.666 50522.619 -92336.666 49808.333 -92003.333 50522.619 -91670 49522.619 -91670 M 50046.428 -90860.476 49998.809 -90717.619 49951.19 -90670 49855.952 -90622.38 49713.095 -90622.38 49617.857 -90670 49570.238 -90717.619 49522.619 -90812.857 49522.619 -91193.809 50522.619 -91193.809 50522.619 -90860.476 50475 -90765.238 50427.38 -90717.619 50332.142 -90670 50236.904 -90670 50141.666 -90717.619 50094.047 -90765.238 50046.428 -90860.476 50046.428 -91193.809 M 50046.428 -90193.809 50046.428 -89860.476 M 49522.619 -89717.619 49522.619 -90193.809 50522.619 -90193.809 50522.619 -89717.619 M 49522.619 -88717.619 49998.809 -89050.952 M 49522.619 -89289.047 50522.619 -89289.047 50522.619 -88908.095 50475 -88812.857 50427.38 -88765.238 50332.142 -88717.619 50189.285 -88717.619 50094.047 -88765.238 50046.428 -88812.857 49998.809 -88908.095 49998.809 -89289.047 M 50427.38 -87574.761 50475 -87527.142 50522.619 -87431.904 50522.619 -87193.809 50475 -87098.571 50427.38 -87050.952 50332.142 -87003.333 50236.904 -87003.333 50094.047 -87050.952 49522.619 -87622.38 49522.619 -87003.333 M 50522.619 -86384.285 50522.619 -86289.047 50475 -86193.809 50427.38 -86146.19 50332.142 -86098.571 50141.666 -86050.952 49903.571 -86050.952 49713.095 -86098.571 49617.857 -86146.19 49570.238 -86193.809 49522.619 -86289.047 49522.619 -86384.285 49570.238 -86479.523 49617.857 -86527.142 49713.095 -86574.761 49903.571 -86622.38 50141.666 -86622.38 50332.142 -86574.761 50427.38 -86527.142 50475 -86479.523 50522.619 -86384.285 M 50427.38 -85670 50475 -85622.38 50522.619 -85527.142 50522.619 -85289.047 50475 -85193.809 50427.38 -85146.19 50332.142 -85098.571 50236.904 -85098.571 50094.047 -85146.19 49522.619 -85717.619 49522.619 -85098.571 M 50522.619 -84479.523 50522.619 -84384.285 50475 -84289.047 50427.38 -84241.428 50332.142 -84193.809 50141.666 -84146.19 49903.571 -84146.19 49713.095 -84193.809 49617.857 -84241.428 49570.238 -84289.047 49522.619 -84384.285 49522.619 -84479.523 49570.238 -84574.761 49617.857 -84622.38 49713.095 -84670 49903.571 -84717.619 50141.666 -84717.619 50332.142 -84670 50427.38 -84622.38 50475 -84574.761 50522.619 -84479.523" fill="none" stroke-width="150"/></g><g id="bbQJxN2h56vd_bottom_drill1" transform="scale(25.4,25.4)"><use xlink:href="#k7XCx_n_EJdM_pad-1" x="5000" y="-2000"/><use xlink:href="#k7XCx_n_EJdM_pad-1" x="2000" y="-4000"/><use xlink:href="#k7XCx_n_EJdM_pad-1" x="5000" y="-4000"/><use xlink:href="#k7XCx_n_EJdM_pad-1" x="2000" y="-2000"/></g><g id="bbQJxN2h56vd_bottom_drill2" transform="scale(25.4,25.4)"><use xlink:href="#pcNq-iOttwvE_pad-1" x="2600" y="-3000"/><use xlink:href="#pcNq-iOttwvE_pad-2" x="5000" y="-2450"/><use xlink:href="#pcNq-iOttwvE_pad-2" x="5000" y="-2500"/><use xlink:href="#pcNq-iOttwvE_pad-2" x="5000" y="-2550"/><use xlink:href="#pcNq-iOttwvE_pad-3" x="2900" y="-2100"/><use xlink:href="#pcNq-iOttwvE_pad-3" x="2998.4" y="-2100"/><use xlink:href="#pcNq-iOttwvE_pad-4" x="2500" y="-4000"/><use xlink:href="#pcNq-iOttwvE_pad-4" x="2600" y="-4000"/><use xlink:href="#pcNq-iOttwvE_pad-4" x="2700" y="-4000"/><use xlink:href="#pcNq-iOttwvE_pad-4" x="2800" y="-4000"/><use xlink:href="#pcNq-iOttwvE_pad-4" x="2900" y="-4000"/><use xlink:href="#pcNq-iOttwvE_pad-4" x="3000" y="-4000"/><use xlink:href="#pcNq-iOttwvE_pad-4" x="3100" y="-4000"/><use xlink:href="#pcNq-iOttwvE_pad-5" x="3600" y="-2000"/><use xlink:href="#pcNq-iOttwvE_pad-5" x="3600" y="-2800"/><use xlink:href="#pcNq-iOttwvE_pad-5" x="3700" y="-2000"/><use xlink:href="#pcNq-iOttwvE_pad-5" x="3700" y="-2800"/><use xlink:href="#pcNq-iOttwvE_pad-5" x="3800" y="-2000"/><use xlink:href="#pcNq-iOttwvE_pad-5" x="3800" y="-2800"/><use xlink:href="#pcNq-iOttwvE_pad-5" x="3900" y="-2000"/><use xlink:href="#pcNq-iOttwvE_pad-5" x="3900" y="-2800"/><use xlink:href="#pcNq-iOttwvE_pad-5" x="4000" y="-2000"/><use xlink:href="#pcNq-iOttwvE_pad-5" x="4000" y="-2800"/><use xlink:href="#pcNq-iOttwvE_pad-5" x="4100" y="-2000"/><use xlink:href="#pcNq-iOttwvE_pad-5" x="4100" y="-2800"/><use xlink:href="#pcNq-iOttwvE_pad-5" x="4200" y="-2000"/><use xlink:href="#pcNq-iOttwvE_pad-5" x="4200" y="-2800"/><use xlink:href="#pcNq-iOttwvE_pad-5" x="4300" y="-2000"/><use xlink:href="#pcNq-iOttwvE_pad-5" x="4300" y="-2800"/><use xlink:href="#pcNq-iOttwvE_pad-5" x="4400" y="-2000"/><use xlink:href="#pcNq-iOttwvE_pad-5" x="4400" y="-2800"/><use xlink:href="#pcNq-iOttwvE_pad-5" x="4500" y="-2000"/><use xlink:href="#pcNq-iOttwvE_pad-5" x="4500" y="-2800"/><path d="M 2315 -1942.5 2315 -2021.3 M 2539.4 -1863.8 2460.6 -1863.8 M 2539.4 -2100 2460.6 -2100" fill="none" stroke-width="39.4"/></g><clipPath id="bbQJxN2h56vd_bottom_outline"><path d="M 50800 -109220 127000 -109220 A 7620 7620 0 0 1 134620 -101600 L 134620 -50800 A 7620 7620 0 0 1 127000 -43180 L 50800 -43180 A 7620 7620 0 0 1 43180 -50800 L 43180 -101600 A 7620 7620 0 0 1 50800 -109220" fill="none" stroke-width="50"/></clipPath><mask id="bbQJxN2h56vd_bottom_mech-mask"><g fill="#000" stroke="#000"><rect x="43180" y="-109220" width="91440" height="66040" fill="#fff"/><use xlink:href="#bbQJxN2h56vd_bottom_drill1"/><use xlink:href="#bbQJxN2h56vd_bottom_drill2"/></g></mask><mask id="bbQJxN2h56vd_bottom_cf-mask"><g fill="#fff" stroke="#fff"><use xlink:href="#bbQJxN2h56vd_bottom_soldermask"/></g></mask><mask id="bbQJxN2h56vd_bottom_sm-mask"><g fill="#000" stroke="#000"><rect x="43180" y="-109220" width="91440" height="66040" fill="#fff"/><use xlink:href="#bbQJxN2h56vd_bottom_soldermask"/></g></mask></defs><g transform="translate(0,-152400) scale(1,-1)"><g mask="url(#bbQJxN2h56vd_bottom_mech-mask)" clip-path="url(#bbQJxN2h56vd_bottom_outline)" transform="translate(177800,0) scale(-1,1)"><rect x="43180" y="-109220" width="91440" height="66040" fill="currentColor" class="bbQJxN2h56vd_fr4"/><use xlink:href="#bbQJxN2h56vd_bottom_copper" fill="currentColor" stroke="currentColor" class="bbQJxN2h56vd_cu"/><use xlink:href="#bbQJxN2h56vd_bottom_copper" fill="currentColor" stroke="currentColor" class="bbQJxN2h56vd_cf" mask="url(#bbQJxN2h56vd_bottom_cf-mask)"/><g mask="url(#bbQJxN2h56vd_bottom_sm-mask)"><rect x="43180" y="-109220" width="91440" height="66040" fill="currentColor" class="bbQJxN2h56vd_sm"/><use xlink:href="#bbQJxN2h56vd_bottom_silkscreen" fill="currentColor" stroke="currentColor" class="bbQJxN2h56vd_ss"/></g></g></g></svg>