%TF.GenerationSoftware,KiCad,Pcbnew,5.1.8+dfsg1-1+b1*%
%TF.CreationDate,2021-04-12T18:27:31-05:00*%
%TF.ProjectId,weather,77656174-6865-4722-9e6b-696361645f70,B*%
%TF.SameCoordinates,Original*%
%TF.FileFunction,Paste,Top*%
%TF.FilePolarity,Positive*%
%FSLAX46Y46*%
G04 Gerber Fmt 4.6, Leading zero omitted, Abs format (unit mm)*
G04 Created by KiCad (PCBNEW 5.1.8+dfsg1-1+b1) date 2021-04-12 18:27:31*
%MOMM*%
%LPD*%
G01*
G04 APERTURE LIST*
%ADD10R,0.800000X1.900000*%
%ADD11R,1.900000X0.800000*%
%ADD12R,2.500000X2.500000*%
G04 APERTURE END LIST*
D10*
%TO.C,Q2*%
X76200000Y-49300000D03*
X77150000Y-52300000D03*
X75250000Y-52300000D03*
%TD*%
D11*
%TO.C,Q1*%
X128500000Y-60325000D03*
X125500000Y-61275000D03*
X125500000Y-59375000D03*
%TD*%
%TO.C,R9*%
G36*
G01*
X77100000Y-65395000D02*
X77100000Y-64145000D01*
G75*
G02*
X77350000Y-63895000I250000J0D01*
G01*
X78150000Y-63895000D01*
G75*
G02*
X78400000Y-64145000I0J-250000D01*
G01*
X78400000Y-65395000D01*
G75*
G02*
X78150000Y-65645000I-250000J0D01*
G01*
X77350000Y-65645000D01*
G75*
G02*
X77100000Y-65395000I0J250000D01*
G01*
G37*
G36*
G01*
X74000000Y-65395000D02*
X74000000Y-64145000D01*
G75*
G02*
X74250000Y-63895000I250000J0D01*
G01*
X75050000Y-63895000D01*
G75*
G02*
X75300000Y-64145000I0J-250000D01*
G01*
X75300000Y-65395000D01*
G75*
G02*
X75050000Y-65645000I-250000J0D01*
G01*
X74250000Y-65645000D01*
G75*
G02*
X74000000Y-65395000I0J250000D01*
G01*
G37*
%TD*%
%TO.C,R8*%
G36*
G01*
X75300000Y-56525000D02*
X75300000Y-57775000D01*
G75*
G02*
X75050000Y-58025000I-250000J0D01*
G01*
X74250000Y-58025000D01*
G75*
G02*
X74000000Y-57775000I0J250000D01*
G01*
X74000000Y-56525000D01*
G75*
G02*
X74250000Y-56275000I250000J0D01*
G01*
X75050000Y-56275000D01*
G75*
G02*
X75300000Y-56525000I0J-250000D01*
G01*
G37*
G36*
G01*
X78400000Y-56525000D02*
X78400000Y-57775000D01*
G75*
G02*
X78150000Y-58025000I-250000J0D01*
G01*
X77350000Y-58025000D01*
G75*
G02*
X77100000Y-57775000I0J250000D01*
G01*
X77100000Y-56525000D01*
G75*
G02*
X77350000Y-56275000I250000J0D01*
G01*
X78150000Y-56275000D01*
G75*
G02*
X78400000Y-56525000I0J-250000D01*
G01*
G37*
%TD*%
%TO.C,R7*%
G36*
G01*
X81270000Y-49900000D02*
X80020000Y-49900000D01*
G75*
G02*
X79770000Y-49650000I0J250000D01*
G01*
X79770000Y-48850000D01*
G75*
G02*
X80020000Y-48600000I250000J0D01*
G01*
X81270000Y-48600000D01*
G75*
G02*
X81520000Y-48850000I0J-250000D01*
G01*
X81520000Y-49650000D01*
G75*
G02*
X81270000Y-49900000I-250000J0D01*
G01*
G37*
G36*
G01*
X81270000Y-53000000D02*
X80020000Y-53000000D01*
G75*
G02*
X79770000Y-52750000I0J250000D01*
G01*
X79770000Y-51950000D01*
G75*
G02*
X80020000Y-51700000I250000J0D01*
G01*
X81270000Y-51700000D01*
G75*
G02*
X81520000Y-51950000I0J-250000D01*
G01*
X81520000Y-52750000D01*
G75*
G02*
X81270000Y-53000000I-250000J0D01*
G01*
G37*
%TD*%
%TO.C,R6*%
G36*
G01*
X75300000Y-67955000D02*
X75300000Y-69205000D01*
G75*
G02*
X75050000Y-69455000I-250000J0D01*
G01*
X74250000Y-69455000D01*
G75*
G02*
X74000000Y-69205000I0J250000D01*
G01*
X74000000Y-67955000D01*
G75*
G02*
X74250000Y-67705000I250000J0D01*
G01*
X75050000Y-67705000D01*
G75*
G02*
X75300000Y-67955000I0J-250000D01*
G01*
G37*
G36*
G01*
X78400000Y-67955000D02*
X78400000Y-69205000D01*
G75*
G02*
X78150000Y-69455000I-250000J0D01*
G01*
X77350000Y-69455000D01*
G75*
G02*
X77100000Y-69205000I0J250000D01*
G01*
X77100000Y-67955000D01*
G75*
G02*
X77350000Y-67705000I250000J0D01*
G01*
X78150000Y-67705000D01*
G75*
G02*
X78400000Y-67955000I0J-250000D01*
G01*
G37*
%TD*%
%TO.C,R5*%
G36*
G01*
X75300000Y-71765000D02*
X75300000Y-73015000D01*
G75*
G02*
X75050000Y-73265000I-250000J0D01*
G01*
X74250000Y-73265000D01*
G75*
G02*
X74000000Y-73015000I0J250000D01*
G01*
X74000000Y-71765000D01*
G75*
G02*
X74250000Y-71515000I250000J0D01*
G01*
X75050000Y-71515000D01*
G75*
G02*
X75300000Y-71765000I0J-250000D01*
G01*
G37*
G36*
G01*
X78400000Y-71765000D02*
X78400000Y-73015000D01*
G75*
G02*
X78150000Y-73265000I-250000J0D01*
G01*
X77350000Y-73265000D01*
G75*
G02*
X77100000Y-73015000I0J250000D01*
G01*
X77100000Y-71765000D01*
G75*
G02*
X77350000Y-71515000I250000J0D01*
G01*
X78150000Y-71515000D01*
G75*
G02*
X78400000Y-71765000I0J-250000D01*
G01*
G37*
%TD*%
%TO.C,C5*%
G36*
G01*
X77100000Y-61610001D02*
X77100000Y-60309999D01*
G75*
G02*
X77349999Y-60060000I249999J0D01*
G01*
X78175001Y-60060000D01*
G75*
G02*
X78425000Y-60309999I0J-249999D01*
G01*
X78425000Y-61610001D01*
G75*
G02*
X78175001Y-61860000I-249999J0D01*
G01*
X77349999Y-61860000D01*
G75*
G02*
X77100000Y-61610001I0J249999D01*
G01*
G37*
G36*
G01*
X73975000Y-61610001D02*
X73975000Y-60309999D01*
G75*
G02*
X74224999Y-60060000I249999J0D01*
G01*
X75050001Y-60060000D01*
G75*
G02*
X75300000Y-60309999I0J-249999D01*
G01*
X75300000Y-61610001D01*
G75*
G02*
X75050001Y-61860000I-249999J0D01*
G01*
X74224999Y-61860000D01*
G75*
G02*
X73975000Y-61610001I0J249999D01*
G01*
G37*
%TD*%
%TO.C,C4*%
G36*
G01*
X77100000Y-76850001D02*
X77100000Y-75549999D01*
G75*
G02*
X77349999Y-75300000I249999J0D01*
G01*
X78175001Y-75300000D01*
G75*
G02*
X78425000Y-75549999I0J-249999D01*
G01*
X78425000Y-76850001D01*
G75*
G02*
X78175001Y-77100000I-249999J0D01*
G01*
X77349999Y-77100000D01*
G75*
G02*
X77100000Y-76850001I0J249999D01*
G01*
G37*
G36*
G01*
X73975000Y-76850001D02*
X73975000Y-75549999D01*
G75*
G02*
X74224999Y-75300000I249999J0D01*
G01*
X75050001Y-75300000D01*
G75*
G02*
X75300000Y-75549999I0J-249999D01*
G01*
X75300000Y-76850001D01*
G75*
G02*
X75050001Y-77100000I-249999J0D01*
G01*
X74224999Y-77100000D01*
G75*
G02*
X73975000Y-76850001I0J249999D01*
G01*
G37*
%TD*%
%TO.C,U2*%
G36*
G01*
X69445000Y-61110000D02*
X69445000Y-60810000D01*
G75*
G02*
X69595000Y-60660000I150000J0D01*
G01*
X71245000Y-60660000D01*
G75*
G02*
X71395000Y-60810000I0J-150000D01*
G01*
X71395000Y-61110000D01*
G75*
G02*
X71245000Y-61260000I-150000J0D01*
G01*
X69595000Y-61260000D01*
G75*
G02*
X69445000Y-61110000I0J150000D01*
G01*
G37*
G36*
G01*
X69445000Y-62380000D02*
X69445000Y-62080000D01*
G75*
G02*
X69595000Y-61930000I150000J0D01*
G01*
X71245000Y-61930000D01*
G75*
G02*
X71395000Y-62080000I0J-150000D01*
G01*
X71395000Y-62380000D01*
G75*
G02*
X71245000Y-62530000I-150000J0D01*
G01*
X69595000Y-62530000D01*
G75*
G02*
X69445000Y-62380000I0J150000D01*
G01*
G37*
G36*
G01*
X69445000Y-63650000D02*
X69445000Y-63350000D01*
G75*
G02*
X69595000Y-63200000I150000J0D01*
G01*
X71245000Y-63200000D01*
G75*
G02*
X71395000Y-63350000I0J-150000D01*
G01*
X71395000Y-63650000D01*
G75*
G02*
X71245000Y-63800000I-150000J0D01*
G01*
X69595000Y-63800000D01*
G75*
G02*
X69445000Y-63650000I0J150000D01*
G01*
G37*
G36*
G01*
X69445000Y-64920000D02*
X69445000Y-64620000D01*
G75*
G02*
X69595000Y-64470000I150000J0D01*
G01*
X71245000Y-64470000D01*
G75*
G02*
X71395000Y-64620000I0J-150000D01*
G01*
X71395000Y-64920000D01*
G75*
G02*
X71245000Y-65070000I-150000J0D01*
G01*
X69595000Y-65070000D01*
G75*
G02*
X69445000Y-64920000I0J150000D01*
G01*
G37*
G36*
G01*
X69445000Y-66190000D02*
X69445000Y-65890000D01*
G75*
G02*
X69595000Y-65740000I150000J0D01*
G01*
X71245000Y-65740000D01*
G75*
G02*
X71395000Y-65890000I0J-150000D01*
G01*
X71395000Y-66190000D01*
G75*
G02*
X71245000Y-66340000I-150000J0D01*
G01*
X69595000Y-66340000D01*
G75*
G02*
X69445000Y-66190000I0J150000D01*
G01*
G37*
G36*
G01*
X69445000Y-67460000D02*
X69445000Y-67160000D01*
G75*
G02*
X69595000Y-67010000I150000J0D01*
G01*
X71245000Y-67010000D01*
G75*
G02*
X71395000Y-67160000I0J-150000D01*
G01*
X71395000Y-67460000D01*
G75*
G02*
X71245000Y-67610000I-150000J0D01*
G01*
X69595000Y-67610000D01*
G75*
G02*
X69445000Y-67460000I0J150000D01*
G01*
G37*
G36*
G01*
X69445000Y-68730000D02*
X69445000Y-68430000D01*
G75*
G02*
X69595000Y-68280000I150000J0D01*
G01*
X71245000Y-68280000D01*
G75*
G02*
X71395000Y-68430000I0J-150000D01*
G01*
X71395000Y-68730000D01*
G75*
G02*
X71245000Y-68880000I-150000J0D01*
G01*
X69595000Y-68880000D01*
G75*
G02*
X69445000Y-68730000I0J150000D01*
G01*
G37*
G36*
G01*
X69445000Y-70000000D02*
X69445000Y-69700000D01*
G75*
G02*
X69595000Y-69550000I150000J0D01*
G01*
X71245000Y-69550000D01*
G75*
G02*
X71395000Y-69700000I0J-150000D01*
G01*
X71395000Y-70000000D01*
G75*
G02*
X71245000Y-70150000I-150000J0D01*
G01*
X69595000Y-70150000D01*
G75*
G02*
X69445000Y-70000000I0J150000D01*
G01*
G37*
G36*
G01*
X64495000Y-70000000D02*
X64495000Y-69700000D01*
G75*
G02*
X64645000Y-69550000I150000J0D01*
G01*
X66295000Y-69550000D01*
G75*
G02*
X66445000Y-69700000I0J-150000D01*
G01*
X66445000Y-70000000D01*
G75*
G02*
X66295000Y-70150000I-150000J0D01*
G01*
X64645000Y-70150000D01*
G75*
G02*
X64495000Y-70000000I0J150000D01*
G01*
G37*
G36*
G01*
X64495000Y-68730000D02*
X64495000Y-68430000D01*
G75*
G02*
X64645000Y-68280000I150000J0D01*
G01*
X66295000Y-68280000D01*
G75*
G02*
X66445000Y-68430000I0J-150000D01*
G01*
X66445000Y-68730000D01*
G75*
G02*
X66295000Y-68880000I-150000J0D01*
G01*
X64645000Y-68880000D01*
G75*
G02*
X64495000Y-68730000I0J150000D01*
G01*
G37*
G36*
G01*
X64495000Y-67460000D02*
X64495000Y-67160000D01*
G75*
G02*
X64645000Y-67010000I150000J0D01*
G01*
X66295000Y-67010000D01*
G75*
G02*
X66445000Y-67160000I0J-150000D01*
G01*
X66445000Y-67460000D01*
G75*
G02*
X66295000Y-67610000I-150000J0D01*
G01*
X64645000Y-67610000D01*
G75*
G02*
X64495000Y-67460000I0J150000D01*
G01*
G37*
G36*
G01*
X64495000Y-66190000D02*
X64495000Y-65890000D01*
G75*
G02*
X64645000Y-65740000I150000J0D01*
G01*
X66295000Y-65740000D01*
G75*
G02*
X66445000Y-65890000I0J-150000D01*
G01*
X66445000Y-66190000D01*
G75*
G02*
X66295000Y-66340000I-150000J0D01*
G01*
X64645000Y-66340000D01*
G75*
G02*
X64495000Y-66190000I0J150000D01*
G01*
G37*
G36*
G01*
X64495000Y-64920000D02*
X64495000Y-64620000D01*
G75*
G02*
X64645000Y-64470000I150000J0D01*
G01*
X66295000Y-64470000D01*
G75*
G02*
X66445000Y-64620000I0J-150000D01*
G01*
X66445000Y-64920000D01*
G75*
G02*
X66295000Y-65070000I-150000J0D01*
G01*
X64645000Y-65070000D01*
G75*
G02*
X64495000Y-64920000I0J150000D01*
G01*
G37*
G36*
G01*
X64495000Y-63650000D02*
X64495000Y-63350000D01*
G75*
G02*
X64645000Y-63200000I150000J0D01*
G01*
X66295000Y-63200000D01*
G75*
G02*
X66445000Y-63350000I0J-150000D01*
G01*
X66445000Y-63650000D01*
G75*
G02*
X66295000Y-63800000I-150000J0D01*
G01*
X64645000Y-63800000D01*
G75*
G02*
X64495000Y-63650000I0J150000D01*
G01*
G37*
G36*
G01*
X64495000Y-62380000D02*
X64495000Y-62080000D01*
G75*
G02*
X64645000Y-61930000I150000J0D01*
G01*
X66295000Y-61930000D01*
G75*
G02*
X66445000Y-62080000I0J-150000D01*
G01*
X66445000Y-62380000D01*
G75*
G02*
X66295000Y-62530000I-150000J0D01*
G01*
X64645000Y-62530000D01*
G75*
G02*
X64495000Y-62380000I0J150000D01*
G01*
G37*
G36*
G01*
X64495000Y-61110000D02*
X64495000Y-60810000D01*
G75*
G02*
X64645000Y-60660000I150000J0D01*
G01*
X66295000Y-60660000D01*
G75*
G02*
X66445000Y-60810000I0J-150000D01*
G01*
X66445000Y-61110000D01*
G75*
G02*
X66295000Y-61260000I-150000J0D01*
G01*
X64645000Y-61260000D01*
G75*
G02*
X64495000Y-61110000I0J150000D01*
G01*
G37*
%TD*%
D12*
%TO.C,PS1*%
X50380000Y-79660000D03*
X61380000Y-79660000D03*
X61380000Y-67660000D03*
X50380000Y-67660000D03*
%TD*%
%TO.C,R4*%
G36*
G01*
X89800000Y-76825001D02*
X89800000Y-75574999D01*
G75*
G02*
X90049999Y-75325000I249999J0D01*
G01*
X90850001Y-75325000D01*
G75*
G02*
X91100000Y-75574999I0J-249999D01*
G01*
X91100000Y-76825001D01*
G75*
G02*
X90850001Y-77075000I-249999J0D01*
G01*
X90049999Y-77075000D01*
G75*
G02*
X89800000Y-76825001I0J249999D01*
G01*
G37*
G36*
G01*
X86700000Y-76825001D02*
X86700000Y-75574999D01*
G75*
G02*
X86949999Y-75325000I249999J0D01*
G01*
X87750001Y-75325000D01*
G75*
G02*
X88000000Y-75574999I0J-249999D01*
G01*
X88000000Y-76825001D01*
G75*
G02*
X87750001Y-77075000I-249999J0D01*
G01*
X86949999Y-77075000D01*
G75*
G02*
X86700000Y-76825001I0J249999D01*
G01*
G37*
%TD*%
%TO.C,R3*%
G36*
G01*
X95515000Y-79365001D02*
X95515000Y-78114999D01*
G75*
G02*
X95764999Y-77865000I249999J0D01*
G01*
X96565001Y-77865000D01*
G75*
G02*
X96815000Y-78114999I0J-249999D01*
G01*
X96815000Y-79365001D01*
G75*
G02*
X96565001Y-79615000I-249999J0D01*
G01*
X95764999Y-79615000D01*
G75*
G02*
X95515000Y-79365001I0J249999D01*
G01*
G37*
G36*
G01*
X92415000Y-79365001D02*
X92415000Y-78114999D01*
G75*
G02*
X92664999Y-77865000I249999J0D01*
G01*
X93465001Y-77865000D01*
G75*
G02*
X93715000Y-78114999I0J-249999D01*
G01*
X93715000Y-79365001D01*
G75*
G02*
X93465001Y-79615000I-249999J0D01*
G01*
X92664999Y-79615000D01*
G75*
G02*
X92415000Y-79365001I0J249999D01*
G01*
G37*
%TD*%
%TO.C,C3*%
G36*
G01*
X68502500Y-79390003D02*
X68502500Y-78089997D01*
G75*
G02*
X68752497Y-77840000I249997J0D01*
G01*
X69577503Y-77840000D01*
G75*
G02*
X69827500Y-78089997I0J-249997D01*
G01*
X69827500Y-79390003D01*
G75*
G02*
X69577503Y-79640000I-249997J0D01*
G01*
X68752497Y-79640000D01*
G75*
G02*
X68502500Y-79390003I0J249997D01*
G01*
G37*
G36*
G01*
X65377500Y-79390003D02*
X65377500Y-78089997D01*
G75*
G02*
X65627497Y-77840000I249997J0D01*
G01*
X66452503Y-77840000D01*
G75*
G02*
X66702500Y-78089997I0J-249997D01*
G01*
X66702500Y-79390003D01*
G75*
G02*
X66452503Y-79640000I-249997J0D01*
G01*
X65627497Y-79640000D01*
G75*
G02*
X65377500Y-79390003I0J249997D01*
G01*
G37*
%TD*%
%TO.C,C2*%
G36*
G01*
X52677500Y-62880003D02*
X52677500Y-61579997D01*
G75*
G02*
X52927497Y-61330000I249997J0D01*
G01*
X53752503Y-61330000D01*
G75*
G02*
X54002500Y-61579997I0J-249997D01*
G01*
X54002500Y-62880003D01*
G75*
G02*
X53752503Y-63130000I-249997J0D01*
G01*
X52927497Y-63130000D01*
G75*
G02*
X52677500Y-62880003I0J249997D01*
G01*
G37*
G36*
G01*
X49552500Y-62880003D02*
X49552500Y-61579997D01*
G75*
G02*
X49802497Y-61330000I249997J0D01*
G01*
X50627503Y-61330000D01*
G75*
G02*
X50877500Y-61579997I0J-249997D01*
G01*
X50877500Y-62880003D01*
G75*
G02*
X50627503Y-63130000I-249997J0D01*
G01*
X49802497Y-63130000D01*
G75*
G02*
X49552500Y-62880003I0J249997D01*
G01*
G37*
%TD*%
%TO.C,R2*%
G36*
G01*
X102500000Y-84445001D02*
X102500000Y-83194999D01*
G75*
G02*
X102749999Y-82945000I249999J0D01*
G01*
X103550001Y-82945000D01*
G75*
G02*
X103800000Y-83194999I0J-249999D01*
G01*
X103800000Y-84445001D01*
G75*
G02*
X103550001Y-84695000I-249999J0D01*
G01*
X102749999Y-84695000D01*
G75*
G02*
X102500000Y-84445001I0J249999D01*
G01*
G37*
G36*
G01*
X99400000Y-84445001D02*
X99400000Y-83194999D01*
G75*
G02*
X99649999Y-82945000I249999J0D01*
G01*
X100450001Y-82945000D01*
G75*
G02*
X100700000Y-83194999I0J-249999D01*
G01*
X100700000Y-84445001D01*
G75*
G02*
X100450001Y-84695000I-249999J0D01*
G01*
X99649999Y-84695000D01*
G75*
G02*
X99400000Y-84445001I0J249999D01*
G01*
G37*
%TD*%
%TO.C,R1*%
G36*
G01*
X102500000Y-79365001D02*
X102500000Y-78114999D01*
G75*
G02*
X102749999Y-77865000I249999J0D01*
G01*
X103550001Y-77865000D01*
G75*
G02*
X103800000Y-78114999I0J-249999D01*
G01*
X103800000Y-79365001D01*
G75*
G02*
X103550001Y-79615000I-249999J0D01*
G01*
X102749999Y-79615000D01*
G75*
G02*
X102500000Y-79365001I0J249999D01*
G01*
G37*
G36*
G01*
X99400000Y-79365001D02*
X99400000Y-78114999D01*
G75*
G02*
X99649999Y-77865000I249999J0D01*
G01*
X100450001Y-77865000D01*
G75*
G02*
X100700000Y-78114999I0J-249999D01*
G01*
X100700000Y-79365001D01*
G75*
G02*
X100450001Y-79615000I-249999J0D01*
G01*
X99649999Y-79615000D01*
G75*
G02*
X99400000Y-79365001I0J249999D01*
G01*
G37*
%TD*%
%TO.C,D2*%
G36*
G01*
X121145000Y-80020000D02*
X121145000Y-81270000D01*
G75*
G02*
X120895000Y-81520000I-250000J0D01*
G01*
X119970000Y-81520000D01*
G75*
G02*
X119720000Y-81270000I0J250000D01*
G01*
X119720000Y-80020000D01*
G75*
G02*
X119970000Y-79770000I250000J0D01*
G01*
X120895000Y-79770000D01*
G75*
G02*
X121145000Y-80020000I0J-250000D01*
G01*
G37*
G36*
G01*
X124120000Y-80020000D02*
X124120000Y-81270000D01*
G75*
G02*
X123870000Y-81520000I-250000J0D01*
G01*
X122945000Y-81520000D01*
G75*
G02*
X122695000Y-81270000I0J250000D01*
G01*
X122695000Y-80020000D01*
G75*
G02*
X122945000Y-79770000I250000J0D01*
G01*
X123870000Y-79770000D01*
G75*
G02*
X124120000Y-80020000I0J-250000D01*
G01*
G37*
%TD*%
%TO.C,D1*%
G36*
G01*
X111620000Y-80020000D02*
X111620000Y-81270000D01*
G75*
G02*
X111370000Y-81520000I-250000J0D01*
G01*
X110445000Y-81520000D01*
G75*
G02*
X110195000Y-81270000I0J250000D01*
G01*
X110195000Y-80020000D01*
G75*
G02*
X110445000Y-79770000I250000J0D01*
G01*
X111370000Y-79770000D01*
G75*
G02*
X111620000Y-80020000I0J-250000D01*
G01*
G37*
G36*
G01*
X114595000Y-80020000D02*
X114595000Y-81270000D01*
G75*
G02*
X114345000Y-81520000I-250000J0D01*
G01*
X113420000Y-81520000D01*
G75*
G02*
X113170000Y-81270000I0J250000D01*
G01*
X113170000Y-80020000D01*
G75*
G02*
X113420000Y-79770000I250000J0D01*
G01*
X114345000Y-79770000D01*
G75*
G02*
X114595000Y-80020000I0J-250000D01*
G01*
G37*
%TD*%
M02*
