M48
; DRILL file {KiCad 5.1.8+dfsg1-1+b1} date Mon Apr 12 18:27:33 2021
; FORMAT={-:-/ absolute / inch / decimal}
; #@! TF.CreationDate,2021-04-12T18:27:33-05:00
; #@! TF.GenerationSoftware,Kicad,Pcbnew,5.1.8+dfsg1-1+b1
; #@! TF.FileFunction,Plated,1,2,PTH
FMAT,2
INCH
T1C0.0157
T2C0.0315
T3C0.0394
T4C0.0402
%
G90
G05
T1
X2.6Y-3.0
T2
X2.3Y-2.35
X2.3984Y-2.35
T3
X2.5Y-4.0
X2.6Y-4.0
X2.7Y-4.0
X2.8Y-4.0
X2.9Y-4.0
X3.0Y-4.0
X3.1Y-4.0
T4
X3.6Y-2.0
X3.6Y-2.8
X3.7Y-2.0
X3.7Y-2.8
X3.8Y-2.0
X3.8Y-2.8
X3.9Y-2.0
X3.9Y-2.8
X4.0Y-2.0
X4.0Y-2.8
X4.1Y-2.0
X4.1Y-2.8
X4.2Y-2.0
X4.2Y-2.8
X4.3Y-2.0
X4.3Y-2.8
X4.4Y-2.0
X4.4Y-2.8
X4.5Y-2.0
X4.5Y-2.8
T3
G00X2.315Y-1.9425
M15
G01X2.315Y-2.0213
M16
G05
G00X2.5394Y-1.8638
M15
G01X2.4606Y-1.8638
M16
G05
G00X2.5394Y-2.1
M15
G01X2.4606Y-2.1
M16
G05
T0
M30
