%TF.GenerationSoftware,KiCad,Pcbnew,5.1.8+dfsg1-1+b1*%
%TF.CreationDate,2020-12-29T15:19:21-06:00*%
%TF.ProjectId,weather,77656174-6865-4722-9e6b-696361645f70,1.1.0*%
%TF.SameCoordinates,Original*%
%TF.FileFunction,Copper,L1,Top*%
%TF.FilePolarity,Positive*%
%FSLAX46Y46*%
G04 Gerber Fmt 4.6, Leading zero omitted, Abs format (unit mm)*
G04 Created by KiCad (PCBNEW 5.1.8+dfsg1-1+b1) date 2020-12-29 15:19:21*
%MOMM*%
%LPD*%
G01*
G04 APERTURE LIST*
%TA.AperFunction,ComponentPad*%
%ADD10C,1.600000*%
%TD*%
%TA.AperFunction,ComponentPad*%
%ADD11R,1.600000X1.600000*%
%TD*%
%TA.AperFunction,SMDPad,CuDef*%
%ADD12R,2.500000X2.500000*%
%TD*%
%TA.AperFunction,ComponentPad*%
%ADD13R,1.500000X1.050000*%
%TD*%
%TA.AperFunction,ComponentPad*%
%ADD14O,1.500000X1.050000*%
%TD*%
%TA.AperFunction,ComponentPad*%
%ADD15O,1.700000X1.700000*%
%TD*%
%TA.AperFunction,ComponentPad*%
%ADD16R,1.700000X1.700000*%
%TD*%
%TA.AperFunction,ComponentPad*%
%ADD17R,3.500000X3.500000*%
%TD*%
%TA.AperFunction,ComponentPad*%
%ADD18O,1.900000X2.100000*%
%TD*%
%TA.AperFunction,ComponentPad*%
%ADD19R,1.900000X2.100000*%
%TD*%
%TA.AperFunction,ViaPad*%
%ADD20C,0.800000*%
%TD*%
%TA.AperFunction,Conductor*%
%ADD21C,0.889000*%
%TD*%
%TA.AperFunction,Conductor*%
%ADD22C,0.254000*%
%TD*%
%TA.AperFunction,Conductor*%
%ADD23C,0.100000*%
%TD*%
G04 APERTURE END LIST*
D10*
%TO.P,C1,2*%
%TO.N,GND*%
X76160000Y-53340000D03*
D11*
%TO.P,C1,1*%
%TO.N,Net-(C1-Pad1)*%
X73660000Y-53340000D03*
%TD*%
D12*
%TO.P,PS1,4*%
%TO.N,N/C*%
X50380000Y-79660000D03*
%TO.P,PS1,3*%
%TO.N,+5V*%
X61380000Y-79660000D03*
%TO.P,PS1,2*%
%TO.N,GND*%
X61380000Y-67660000D03*
%TO.P,PS1,1*%
%TO.N,Net-(C1-Pad1)*%
X50380000Y-67660000D03*
%TD*%
%TO.P,R4,2*%
%TO.N,Net-(A1-Pad17)*%
%TA.AperFunction,SMDPad,CuDef*%
G36*
G01*
X75550000Y-79365001D02*
X75550000Y-78114999D01*
G75*
G02*
X75799999Y-77865000I249999J0D01*
G01*
X76600001Y-77865000D01*
G75*
G02*
X76850000Y-78114999I0J-249999D01*
G01*
X76850000Y-79365001D01*
G75*
G02*
X76600001Y-79615000I-249999J0D01*
G01*
X75799999Y-79615000D01*
G75*
G02*
X75550000Y-79365001I0J249999D01*
G01*
G37*
%TD.AperFunction*%
%TO.P,R4,1*%
%TO.N,+3V3*%
%TA.AperFunction,SMDPad,CuDef*%
G36*
G01*
X72450000Y-79365001D02*
X72450000Y-78114999D01*
G75*
G02*
X72699999Y-77865000I249999J0D01*
G01*
X73500001Y-77865000D01*
G75*
G02*
X73750000Y-78114999I0J-249999D01*
G01*
X73750000Y-79365001D01*
G75*
G02*
X73500001Y-79615000I-249999J0D01*
G01*
X72699999Y-79615000D01*
G75*
G02*
X72450000Y-79365001I0J249999D01*
G01*
G37*
%TD.AperFunction*%
%TD*%
%TO.P,R3,2*%
%TO.N,Net-(A1-Pad18)*%
%TA.AperFunction,SMDPad,CuDef*%
G36*
G01*
X75550000Y-74285001D02*
X75550000Y-73034999D01*
G75*
G02*
X75799999Y-72785000I249999J0D01*
G01*
X76600001Y-72785000D01*
G75*
G02*
X76850000Y-73034999I0J-249999D01*
G01*
X76850000Y-74285001D01*
G75*
G02*
X76600001Y-74535000I-249999J0D01*
G01*
X75799999Y-74535000D01*
G75*
G02*
X75550000Y-74285001I0J249999D01*
G01*
G37*
%TD.AperFunction*%
%TO.P,R3,1*%
%TO.N,+3V3*%
%TA.AperFunction,SMDPad,CuDef*%
G36*
G01*
X72450000Y-74285001D02*
X72450000Y-73034999D01*
G75*
G02*
X72699999Y-72785000I249999J0D01*
G01*
X73500001Y-72785000D01*
G75*
G02*
X73750000Y-73034999I0J-249999D01*
G01*
X73750000Y-74285001D01*
G75*
G02*
X73500001Y-74535000I-249999J0D01*
G01*
X72699999Y-74535000D01*
G75*
G02*
X72450000Y-74285001I0J249999D01*
G01*
G37*
%TD.AperFunction*%
%TD*%
D13*
%TO.P,Q1,1*%
%TO.N,GND*%
X127000000Y-62230000D03*
D14*
%TO.P,Q1,3*%
%TO.N,Net-(D2-Pad1)*%
X127000000Y-64770000D03*
%TO.P,Q1,2*%
%TO.N,Net-(A1-Pad6)*%
X127000000Y-63500000D03*
%TD*%
%TO.P,C3,2*%
%TO.N,GND*%
%TA.AperFunction,SMDPad,CuDef*%
G36*
G01*
X68502500Y-79390003D02*
X68502500Y-78089997D01*
G75*
G02*
X68752497Y-77840000I249997J0D01*
G01*
X69577503Y-77840000D01*
G75*
G02*
X69827500Y-78089997I0J-249997D01*
G01*
X69827500Y-79390003D01*
G75*
G02*
X69577503Y-79640000I-249997J0D01*
G01*
X68752497Y-79640000D01*
G75*
G02*
X68502500Y-79390003I0J249997D01*
G01*
G37*
%TD.AperFunction*%
%TO.P,C3,1*%
%TO.N,+5V*%
%TA.AperFunction,SMDPad,CuDef*%
G36*
G01*
X65377500Y-79390003D02*
X65377500Y-78089997D01*
G75*
G02*
X65627497Y-77840000I249997J0D01*
G01*
X66452503Y-77840000D01*
G75*
G02*
X66702500Y-78089997I0J-249997D01*
G01*
X66702500Y-79390003D01*
G75*
G02*
X66452503Y-79640000I-249997J0D01*
G01*
X65627497Y-79640000D01*
G75*
G02*
X65377500Y-79390003I0J249997D01*
G01*
G37*
%TD.AperFunction*%
%TD*%
%TO.P,C2,2*%
%TO.N,GND*%
%TA.AperFunction,SMDPad,CuDef*%
G36*
G01*
X52677500Y-62880003D02*
X52677500Y-61579997D01*
G75*
G02*
X52927497Y-61330000I249997J0D01*
G01*
X53752503Y-61330000D01*
G75*
G02*
X54002500Y-61579997I0J-249997D01*
G01*
X54002500Y-62880003D01*
G75*
G02*
X53752503Y-63130000I-249997J0D01*
G01*
X52927497Y-63130000D01*
G75*
G02*
X52677500Y-62880003I0J249997D01*
G01*
G37*
%TD.AperFunction*%
%TO.P,C2,1*%
%TO.N,Net-(C1-Pad1)*%
%TA.AperFunction,SMDPad,CuDef*%
G36*
G01*
X49552500Y-62880003D02*
X49552500Y-61579997D01*
G75*
G02*
X49802497Y-61330000I249997J0D01*
G01*
X50627503Y-61330000D01*
G75*
G02*
X50877500Y-61579997I0J-249997D01*
G01*
X50877500Y-62880003D01*
G75*
G02*
X50627503Y-63130000I-249997J0D01*
G01*
X49802497Y-63130000D01*
G75*
G02*
X49552500Y-62880003I0J249997D01*
G01*
G37*
%TD.AperFunction*%
%TD*%
%TO.P,R2,2*%
%TO.N,Net-(D2-Pad2)*%
%TA.AperFunction,SMDPad,CuDef*%
G36*
G01*
X88810000Y-84445001D02*
X88810000Y-83194999D01*
G75*
G02*
X89059999Y-82945000I249999J0D01*
G01*
X89860001Y-82945000D01*
G75*
G02*
X90110000Y-83194999I0J-249999D01*
G01*
X90110000Y-84445001D01*
G75*
G02*
X89860001Y-84695000I-249999J0D01*
G01*
X89059999Y-84695000D01*
G75*
G02*
X88810000Y-84445001I0J249999D01*
G01*
G37*
%TD.AperFunction*%
%TO.P,R2,1*%
%TO.N,+5V*%
%TA.AperFunction,SMDPad,CuDef*%
G36*
G01*
X85710000Y-84445001D02*
X85710000Y-83194999D01*
G75*
G02*
X85959999Y-82945000I249999J0D01*
G01*
X86760001Y-82945000D01*
G75*
G02*
X87010000Y-83194999I0J-249999D01*
G01*
X87010000Y-84445001D01*
G75*
G02*
X86760001Y-84695000I-249999J0D01*
G01*
X85959999Y-84695000D01*
G75*
G02*
X85710000Y-84445001I0J249999D01*
G01*
G37*
%TD.AperFunction*%
%TD*%
%TO.P,R1,2*%
%TO.N,Net-(D1-Pad2)*%
%TA.AperFunction,SMDPad,CuDef*%
G36*
G01*
X88810000Y-79365001D02*
X88810000Y-78114999D01*
G75*
G02*
X89059999Y-77865000I249999J0D01*
G01*
X89860001Y-77865000D01*
G75*
G02*
X90110000Y-78114999I0J-249999D01*
G01*
X90110000Y-79365001D01*
G75*
G02*
X89860001Y-79615000I-249999J0D01*
G01*
X89059999Y-79615000D01*
G75*
G02*
X88810000Y-79365001I0J249999D01*
G01*
G37*
%TD.AperFunction*%
%TO.P,R1,1*%
%TO.N,+5V*%
%TA.AperFunction,SMDPad,CuDef*%
G36*
G01*
X85710000Y-79365001D02*
X85710000Y-78114999D01*
G75*
G02*
X85959999Y-77865000I249999J0D01*
G01*
X86760001Y-77865000D01*
G75*
G02*
X87010000Y-78114999I0J-249999D01*
G01*
X87010000Y-79365001D01*
G75*
G02*
X86760001Y-79615000I-249999J0D01*
G01*
X85959999Y-79615000D01*
G75*
G02*
X85710000Y-79365001I0J249999D01*
G01*
G37*
%TD.AperFunction*%
%TD*%
%TO.P,D2,2*%
%TO.N,Net-(D2-Pad2)*%
%TA.AperFunction,SMDPad,CuDef*%
G36*
G01*
X121145000Y-80020000D02*
X121145000Y-81270000D01*
G75*
G02*
X120895000Y-81520000I-250000J0D01*
G01*
X119970000Y-81520000D01*
G75*
G02*
X119720000Y-81270000I0J250000D01*
G01*
X119720000Y-80020000D01*
G75*
G02*
X119970000Y-79770000I250000J0D01*
G01*
X120895000Y-79770000D01*
G75*
G02*
X121145000Y-80020000I0J-250000D01*
G01*
G37*
%TD.AperFunction*%
%TO.P,D2,1*%
%TO.N,Net-(D2-Pad1)*%
%TA.AperFunction,SMDPad,CuDef*%
G36*
G01*
X124120000Y-80020000D02*
X124120000Y-81270000D01*
G75*
G02*
X123870000Y-81520000I-250000J0D01*
G01*
X122945000Y-81520000D01*
G75*
G02*
X122695000Y-81270000I0J250000D01*
G01*
X122695000Y-80020000D01*
G75*
G02*
X122945000Y-79770000I250000J0D01*
G01*
X123870000Y-79770000D01*
G75*
G02*
X124120000Y-80020000I0J-250000D01*
G01*
G37*
%TD.AperFunction*%
%TD*%
%TO.P,D1,2*%
%TO.N,Net-(D1-Pad2)*%
%TA.AperFunction,SMDPad,CuDef*%
G36*
G01*
X111620000Y-80020000D02*
X111620000Y-81270000D01*
G75*
G02*
X111370000Y-81520000I-250000J0D01*
G01*
X110445000Y-81520000D01*
G75*
G02*
X110195000Y-81270000I0J250000D01*
G01*
X110195000Y-80020000D01*
G75*
G02*
X110445000Y-79770000I250000J0D01*
G01*
X111370000Y-79770000D01*
G75*
G02*
X111620000Y-80020000I0J-250000D01*
G01*
G37*
%TD.AperFunction*%
%TO.P,D1,1*%
%TO.N,GND*%
%TA.AperFunction,SMDPad,CuDef*%
G36*
G01*
X114595000Y-80020000D02*
X114595000Y-81270000D01*
G75*
G02*
X114345000Y-81520000I-250000J0D01*
G01*
X113420000Y-81520000D01*
G75*
G02*
X113170000Y-81270000I0J250000D01*
G01*
X113170000Y-80020000D01*
G75*
G02*
X113420000Y-79770000I250000J0D01*
G01*
X114345000Y-79770000D01*
G75*
G02*
X114595000Y-80020000I0J-250000D01*
G01*
G37*
%TD.AperFunction*%
%TD*%
D15*
%TO.P,U1,7*%
%TO.N,N/C*%
X78740000Y-101600000D03*
%TO.P,U1,6*%
%TO.N,Net-(A1-Pad17)*%
X76200000Y-101600000D03*
%TO.P,U1,5*%
%TO.N,N/C*%
X73660000Y-101600000D03*
%TO.P,U1,4*%
%TO.N,Net-(A1-Pad18)*%
X71120000Y-101600000D03*
%TO.P,U1,3*%
%TO.N,GND*%
X68580000Y-101600000D03*
%TO.P,U1,2*%
%TO.N,N/C*%
X66040000Y-101600000D03*
D16*
%TO.P,U1,1*%
%TO.N,+3V3*%
X63500000Y-101600000D03*
%TD*%
%TO.P,J1,3*%
%TO.N,N/C*%
%TA.AperFunction,ComponentPad*%
G36*
G01*
X57925000Y-48590000D02*
X59675000Y-48590000D01*
G75*
G02*
X60550000Y-49465000I0J-875000D01*
G01*
X60550000Y-51215000D01*
G75*
G02*
X59675000Y-52090000I-875000J0D01*
G01*
X57925000Y-52090000D01*
G75*
G02*
X57050000Y-51215000I0J875000D01*
G01*
X57050000Y-49465000D01*
G75*
G02*
X57925000Y-48590000I875000J0D01*
G01*
G37*
%TD.AperFunction*%
%TO.P,J1,2*%
%TO.N,GND*%
%TA.AperFunction,ComponentPad*%
G36*
G01*
X62500000Y-45840000D02*
X64500000Y-45840000D01*
G75*
G02*
X65250000Y-46590000I0J-750000D01*
G01*
X65250000Y-48090000D01*
G75*
G02*
X64500000Y-48840000I-750000J0D01*
G01*
X62500000Y-48840000D01*
G75*
G02*
X61750000Y-48090000I0J750000D01*
G01*
X61750000Y-46590000D01*
G75*
G02*
X62500000Y-45840000I750000J0D01*
G01*
G37*
%TD.AperFunction*%
D17*
%TO.P,J1,1*%
%TO.N,Net-(C1-Pad1)*%
X63500000Y-53340000D03*
%TD*%
D18*
%TO.P,A1,11*%
%TO.N,GND*%
X91440000Y-71120000D03*
%TO.P,A1,10*%
X91440000Y-50800000D03*
%TO.P,A1,12*%
%TO.N,N/C*%
X93980000Y-71120000D03*
%TO.P,A1,9*%
X93980000Y-50800000D03*
%TO.P,A1,13*%
%TO.N,+3V3*%
X96520000Y-71120000D03*
%TO.P,A1,8*%
%TO.N,+5V*%
X96520000Y-50800000D03*
%TO.P,A1,14*%
%TO.N,N/C*%
X99060000Y-71120000D03*
%TO.P,A1,7*%
X99060000Y-50800000D03*
%TO.P,A1,15*%
X101600000Y-71120000D03*
%TO.P,A1,6*%
%TO.N,Net-(A1-Pad6)*%
X101600000Y-50800000D03*
%TO.P,A1,16*%
%TO.N,N/C*%
X104140000Y-71120000D03*
%TO.P,A1,5*%
X104140000Y-50800000D03*
%TO.P,A1,17*%
%TO.N,Net-(A1-Pad17)*%
X106680000Y-71120000D03*
%TO.P,A1,4*%
%TO.N,Net-(A1-Pad1)*%
X106680000Y-50800000D03*
%TO.P,A1,18*%
%TO.N,Net-(A1-Pad18)*%
X109220000Y-71120000D03*
%TO.P,A1,3*%
%TO.N,N/C*%
X109220000Y-50800000D03*
%TO.P,A1,19*%
X111760000Y-71120000D03*
%TO.P,A1,2*%
X111760000Y-50800000D03*
%TO.P,A1,20*%
X114300000Y-71120000D03*
D19*
%TO.P,A1,1*%
%TO.N,Net-(A1-Pad1)*%
X114300000Y-50800000D03*
%TD*%
D20*
%TO.N,+5V*%
X66040000Y-76200000D03*
%TD*%
D21*
%TO.N,Net-(A1-Pad17)*%
X76200000Y-78740000D02*
X78740000Y-78740000D01*
X78740000Y-78740000D02*
X81280000Y-76200000D01*
X81280000Y-76200000D02*
X114300000Y-76200000D01*
X114300000Y-76200000D02*
X116840000Y-73660000D01*
X116840000Y-73660000D02*
X116840000Y-69850000D01*
X116840000Y-69850000D02*
X115570000Y-68580000D01*
X115570000Y-68580000D02*
X107950000Y-68580000D01*
X107950000Y-68580000D02*
X106680000Y-69850000D01*
X106680000Y-69850000D02*
X106680000Y-71120000D01*
%TO.N,Net-(A1-Pad18)*%
X76200000Y-73660000D02*
X107950000Y-73660000D01*
X107950000Y-73660000D02*
X109220000Y-72390000D01*
X109220000Y-72390000D02*
X109220000Y-71120000D01*
%TO.N,+5V*%
X66040000Y-78740000D02*
X66040000Y-80010000D01*
X61380000Y-79660000D02*
X65690000Y-79660000D01*
X65690000Y-79660000D02*
X66040000Y-80010000D01*
X85090000Y-81280000D02*
X86360000Y-82550000D01*
X86360000Y-82550000D02*
X86360000Y-83820000D01*
X86360000Y-80010000D02*
X86360000Y-78740000D01*
X85090000Y-81280000D02*
X86360000Y-80010000D01*
X67310000Y-81280000D02*
X85090000Y-81280000D01*
X66040000Y-80010000D02*
X67310000Y-81280000D01*
X66040000Y-78740000D02*
X66040000Y-76200000D01*
%TO.N,Net-(D1-Pad2)*%
X109002500Y-78740000D02*
X110907500Y-80645000D01*
X89460000Y-78740000D02*
X109002500Y-78740000D01*
%TO.N,Net-(D2-Pad2)*%
X117257500Y-83820000D02*
X120432500Y-80645000D01*
X89460000Y-83820000D02*
X117257500Y-83820000D01*
%TO.N,Net-(D2-Pad1)*%
X123407500Y-80645000D02*
X123825000Y-80645000D01*
X127000000Y-77470000D02*
X127000000Y-64770000D01*
X123825000Y-80645000D02*
X127000000Y-77470000D01*
%TO.N,+3V3*%
X73100000Y-78740000D02*
X73100000Y-73660000D01*
X73100000Y-73660000D02*
X73100000Y-70410000D01*
X73100000Y-70410000D02*
X74930000Y-68580000D01*
X74930000Y-68580000D02*
X95250000Y-68580000D01*
X96520000Y-69850000D02*
X96520000Y-71120000D01*
X95250000Y-68580000D02*
X96520000Y-69850000D01*
%TO.N,Net-(C1-Pad1)*%
X50380000Y-62395000D02*
X50215000Y-62230000D01*
X50380000Y-67660000D02*
X50380000Y-62395000D01*
X50215000Y-62230000D02*
X50215000Y-59005000D01*
X55880000Y-53340000D02*
X63500000Y-53340000D01*
X50215000Y-59005000D02*
X55880000Y-53340000D01*
%TD*%
D22*
%TO.N,GND*%
X128004470Y-43914617D02*
X128987898Y-44131739D01*
X129929675Y-44488546D01*
X130810095Y-44977575D01*
X131610687Y-45588569D01*
X132314694Y-46308732D01*
X132907370Y-47122987D01*
X133376296Y-48014269D01*
X133711647Y-48963900D01*
X133907127Y-49955692D01*
X133960000Y-50820164D01*
X133960001Y-101576080D01*
X133885382Y-102604470D01*
X133668262Y-103587896D01*
X133311454Y-104529675D01*
X132822424Y-105410095D01*
X132211435Y-106210684D01*
X131491268Y-106914694D01*
X130677013Y-107507370D01*
X129785731Y-107976296D01*
X128836099Y-108311647D01*
X127844309Y-108507127D01*
X126979835Y-108560000D01*
X50823906Y-108560000D01*
X49795530Y-108485382D01*
X48812104Y-108268262D01*
X47870325Y-107911454D01*
X46989905Y-107422424D01*
X46189316Y-106811435D01*
X45485306Y-106091268D01*
X44892630Y-105277013D01*
X44423704Y-104385731D01*
X44088353Y-103436099D01*
X43892873Y-102444309D01*
X43840000Y-101579835D01*
X43840000Y-101379872D01*
X48565000Y-101379872D01*
X48565000Y-101820128D01*
X48650890Y-102251925D01*
X48819369Y-102658669D01*
X49063962Y-103024729D01*
X49375271Y-103336038D01*
X49741331Y-103580631D01*
X50148075Y-103749110D01*
X50579872Y-103835000D01*
X51020128Y-103835000D01*
X51451925Y-103749110D01*
X51858669Y-103580631D01*
X52224729Y-103336038D01*
X52536038Y-103024729D01*
X52780631Y-102658669D01*
X52949110Y-102251925D01*
X53035000Y-101820128D01*
X53035000Y-101379872D01*
X52949110Y-100948075D01*
X52867065Y-100750000D01*
X62011928Y-100750000D01*
X62011928Y-102450000D01*
X62024188Y-102574482D01*
X62060498Y-102694180D01*
X62119463Y-102804494D01*
X62198815Y-102901185D01*
X62295506Y-102980537D01*
X62405820Y-103039502D01*
X62525518Y-103075812D01*
X62650000Y-103088072D01*
X64350000Y-103088072D01*
X64474482Y-103075812D01*
X64594180Y-103039502D01*
X64704494Y-102980537D01*
X64801185Y-102901185D01*
X64880537Y-102804494D01*
X64939502Y-102694180D01*
X64961513Y-102621620D01*
X65093368Y-102753475D01*
X65336589Y-102915990D01*
X65606842Y-103027932D01*
X65893740Y-103085000D01*
X66186260Y-103085000D01*
X66473158Y-103027932D01*
X66743411Y-102915990D01*
X66986632Y-102753475D01*
X67193475Y-102546632D01*
X67315195Y-102364466D01*
X67384822Y-102481355D01*
X67579731Y-102697588D01*
X67813080Y-102871641D01*
X68075901Y-102996825D01*
X68223110Y-103041476D01*
X68453000Y-102920155D01*
X68453000Y-101727000D01*
X68433000Y-101727000D01*
X68433000Y-101473000D01*
X68453000Y-101473000D01*
X68453000Y-100279845D01*
X68707000Y-100279845D01*
X68707000Y-101473000D01*
X68727000Y-101473000D01*
X68727000Y-101727000D01*
X68707000Y-101727000D01*
X68707000Y-102920155D01*
X68936890Y-103041476D01*
X69084099Y-102996825D01*
X69346920Y-102871641D01*
X69580269Y-102697588D01*
X69775178Y-102481355D01*
X69844805Y-102364466D01*
X69966525Y-102546632D01*
X70173368Y-102753475D01*
X70416589Y-102915990D01*
X70686842Y-103027932D01*
X70973740Y-103085000D01*
X71266260Y-103085000D01*
X71553158Y-103027932D01*
X71823411Y-102915990D01*
X72066632Y-102753475D01*
X72273475Y-102546632D01*
X72390000Y-102372240D01*
X72506525Y-102546632D01*
X72713368Y-102753475D01*
X72956589Y-102915990D01*
X73226842Y-103027932D01*
X73513740Y-103085000D01*
X73806260Y-103085000D01*
X74093158Y-103027932D01*
X74363411Y-102915990D01*
X74606632Y-102753475D01*
X74813475Y-102546632D01*
X74930000Y-102372240D01*
X75046525Y-102546632D01*
X75253368Y-102753475D01*
X75496589Y-102915990D01*
X75766842Y-103027932D01*
X76053740Y-103085000D01*
X76346260Y-103085000D01*
X76633158Y-103027932D01*
X76903411Y-102915990D01*
X77146632Y-102753475D01*
X77353475Y-102546632D01*
X77470000Y-102372240D01*
X77586525Y-102546632D01*
X77793368Y-102753475D01*
X78036589Y-102915990D01*
X78306842Y-103027932D01*
X78593740Y-103085000D01*
X78886260Y-103085000D01*
X79173158Y-103027932D01*
X79443411Y-102915990D01*
X79686632Y-102753475D01*
X79893475Y-102546632D01*
X80055990Y-102303411D01*
X80167932Y-102033158D01*
X80225000Y-101746260D01*
X80225000Y-101453740D01*
X80210307Y-101379872D01*
X124765000Y-101379872D01*
X124765000Y-101820128D01*
X124850890Y-102251925D01*
X125019369Y-102658669D01*
X125263962Y-103024729D01*
X125575271Y-103336038D01*
X125941331Y-103580631D01*
X126348075Y-103749110D01*
X126779872Y-103835000D01*
X127220128Y-103835000D01*
X127651925Y-103749110D01*
X128058669Y-103580631D01*
X128424729Y-103336038D01*
X128736038Y-103024729D01*
X128980631Y-102658669D01*
X129149110Y-102251925D01*
X129235000Y-101820128D01*
X129235000Y-101379872D01*
X129149110Y-100948075D01*
X128980631Y-100541331D01*
X128736038Y-100175271D01*
X128424729Y-99863962D01*
X128058669Y-99619369D01*
X127651925Y-99450890D01*
X127220128Y-99365000D01*
X126779872Y-99365000D01*
X126348075Y-99450890D01*
X125941331Y-99619369D01*
X125575271Y-99863962D01*
X125263962Y-100175271D01*
X125019369Y-100541331D01*
X124850890Y-100948075D01*
X124765000Y-101379872D01*
X80210307Y-101379872D01*
X80167932Y-101166842D01*
X80055990Y-100896589D01*
X79893475Y-100653368D01*
X79686632Y-100446525D01*
X79443411Y-100284010D01*
X79173158Y-100172068D01*
X78886260Y-100115000D01*
X78593740Y-100115000D01*
X78306842Y-100172068D01*
X78036589Y-100284010D01*
X77793368Y-100446525D01*
X77586525Y-100653368D01*
X77470000Y-100827760D01*
X77353475Y-100653368D01*
X77146632Y-100446525D01*
X76903411Y-100284010D01*
X76633158Y-100172068D01*
X76346260Y-100115000D01*
X76053740Y-100115000D01*
X75766842Y-100172068D01*
X75496589Y-100284010D01*
X75253368Y-100446525D01*
X75046525Y-100653368D01*
X74930000Y-100827760D01*
X74813475Y-100653368D01*
X74606632Y-100446525D01*
X74363411Y-100284010D01*
X74093158Y-100172068D01*
X73806260Y-100115000D01*
X73513740Y-100115000D01*
X73226842Y-100172068D01*
X72956589Y-100284010D01*
X72713368Y-100446525D01*
X72506525Y-100653368D01*
X72390000Y-100827760D01*
X72273475Y-100653368D01*
X72066632Y-100446525D01*
X71823411Y-100284010D01*
X71553158Y-100172068D01*
X71266260Y-100115000D01*
X70973740Y-100115000D01*
X70686842Y-100172068D01*
X70416589Y-100284010D01*
X70173368Y-100446525D01*
X69966525Y-100653368D01*
X69844805Y-100835534D01*
X69775178Y-100718645D01*
X69580269Y-100502412D01*
X69346920Y-100328359D01*
X69084099Y-100203175D01*
X68936890Y-100158524D01*
X68707000Y-100279845D01*
X68453000Y-100279845D01*
X68223110Y-100158524D01*
X68075901Y-100203175D01*
X67813080Y-100328359D01*
X67579731Y-100502412D01*
X67384822Y-100718645D01*
X67315195Y-100835534D01*
X67193475Y-100653368D01*
X66986632Y-100446525D01*
X66743411Y-100284010D01*
X66473158Y-100172068D01*
X66186260Y-100115000D01*
X65893740Y-100115000D01*
X65606842Y-100172068D01*
X65336589Y-100284010D01*
X65093368Y-100446525D01*
X64961513Y-100578380D01*
X64939502Y-100505820D01*
X64880537Y-100395506D01*
X64801185Y-100298815D01*
X64704494Y-100219463D01*
X64594180Y-100160498D01*
X64474482Y-100124188D01*
X64350000Y-100111928D01*
X62650000Y-100111928D01*
X62525518Y-100124188D01*
X62405820Y-100160498D01*
X62295506Y-100219463D01*
X62198815Y-100298815D01*
X62119463Y-100395506D01*
X62060498Y-100505820D01*
X62024188Y-100625518D01*
X62011928Y-100750000D01*
X52867065Y-100750000D01*
X52780631Y-100541331D01*
X52536038Y-100175271D01*
X52224729Y-99863962D01*
X51858669Y-99619369D01*
X51451925Y-99450890D01*
X51020128Y-99365000D01*
X50579872Y-99365000D01*
X50148075Y-99450890D01*
X49741331Y-99619369D01*
X49375271Y-99863962D01*
X49063962Y-100175271D01*
X48819369Y-100541331D01*
X48650890Y-100948075D01*
X48565000Y-101379872D01*
X43840000Y-101379872D01*
X43840000Y-78410000D01*
X48491928Y-78410000D01*
X48491928Y-80910000D01*
X48504188Y-81034482D01*
X48540498Y-81154180D01*
X48599463Y-81264494D01*
X48678815Y-81361185D01*
X48775506Y-81440537D01*
X48885820Y-81499502D01*
X49005518Y-81535812D01*
X49130000Y-81548072D01*
X51630000Y-81548072D01*
X51754482Y-81535812D01*
X51874180Y-81499502D01*
X51984494Y-81440537D01*
X52081185Y-81361185D01*
X52160537Y-81264494D01*
X52219502Y-81154180D01*
X52255812Y-81034482D01*
X52268072Y-80910000D01*
X52268072Y-78410000D01*
X59491928Y-78410000D01*
X59491928Y-80910000D01*
X59504188Y-81034482D01*
X59540498Y-81154180D01*
X59599463Y-81264494D01*
X59678815Y-81361185D01*
X59775506Y-81440537D01*
X59885820Y-81499502D01*
X60005518Y-81535812D01*
X60130000Y-81548072D01*
X62630000Y-81548072D01*
X62754482Y-81535812D01*
X62874180Y-81499502D01*
X62984494Y-81440537D01*
X63081185Y-81361185D01*
X63160537Y-81264494D01*
X63219502Y-81154180D01*
X63255812Y-81034482D01*
X63268072Y-80910000D01*
X63268072Y-80739500D01*
X65242198Y-80739500D01*
X65272986Y-80777015D01*
X65314175Y-80810818D01*
X65314176Y-80810819D01*
X65314181Y-80810823D01*
X66509178Y-82005821D01*
X66542985Y-82047015D01*
X66707360Y-82181914D01*
X66894894Y-82282153D01*
X67098381Y-82343880D01*
X67256971Y-82359500D01*
X67256978Y-82359500D01*
X67309999Y-82364722D01*
X67363021Y-82359500D01*
X84642858Y-82359500D01*
X85139290Y-82855933D01*
X85088992Y-83021745D01*
X85071928Y-83194999D01*
X85071928Y-84445001D01*
X85088992Y-84618255D01*
X85139528Y-84784851D01*
X85221595Y-84938387D01*
X85332038Y-85072962D01*
X85466613Y-85183405D01*
X85620149Y-85265472D01*
X85786745Y-85316008D01*
X85959999Y-85333072D01*
X86760001Y-85333072D01*
X86933255Y-85316008D01*
X87099851Y-85265472D01*
X87253387Y-85183405D01*
X87387962Y-85072962D01*
X87498405Y-84938387D01*
X87580472Y-84784851D01*
X87631008Y-84618255D01*
X87648072Y-84445001D01*
X87648072Y-83194999D01*
X88171928Y-83194999D01*
X88171928Y-84445001D01*
X88188992Y-84618255D01*
X88239528Y-84784851D01*
X88321595Y-84938387D01*
X88432038Y-85072962D01*
X88566613Y-85183405D01*
X88720149Y-85265472D01*
X88886745Y-85316008D01*
X89059999Y-85333072D01*
X89860001Y-85333072D01*
X90033255Y-85316008D01*
X90199851Y-85265472D01*
X90353387Y-85183405D01*
X90487962Y-85072962D01*
X90598405Y-84938387D01*
X90619191Y-84899500D01*
X117204471Y-84899500D01*
X117257500Y-84904723D01*
X117310529Y-84899500D01*
X117469119Y-84883880D01*
X117672606Y-84822153D01*
X117860140Y-84721914D01*
X118024515Y-84587015D01*
X118058327Y-84545815D01*
X120446071Y-82158072D01*
X120895000Y-82158072D01*
X121068254Y-82141008D01*
X121234850Y-82090472D01*
X121388386Y-82008405D01*
X121522962Y-81897962D01*
X121633405Y-81763386D01*
X121715472Y-81609850D01*
X121766008Y-81443254D01*
X121783072Y-81270000D01*
X121783072Y-80020000D01*
X122056928Y-80020000D01*
X122056928Y-81270000D01*
X122073992Y-81443254D01*
X122124528Y-81609850D01*
X122206595Y-81763386D01*
X122317038Y-81897962D01*
X122451614Y-82008405D01*
X122605150Y-82090472D01*
X122771746Y-82141008D01*
X122945000Y-82158072D01*
X123870000Y-82158072D01*
X124043254Y-82141008D01*
X124209850Y-82090472D01*
X124363386Y-82008405D01*
X124497962Y-81897962D01*
X124608405Y-81763386D01*
X124690472Y-81609850D01*
X124741008Y-81443254D01*
X124758072Y-81270000D01*
X124758072Y-81238570D01*
X127725821Y-78270822D01*
X127767015Y-78237015D01*
X127901914Y-78072640D01*
X128002153Y-77885106D01*
X128063880Y-77681619D01*
X128079500Y-77523029D01*
X128079500Y-77523022D01*
X128084722Y-77470001D01*
X128079500Y-77416979D01*
X128079500Y-65557306D01*
X128194171Y-65417579D01*
X128301885Y-65216060D01*
X128368215Y-64997400D01*
X128390612Y-64770000D01*
X128368215Y-64542600D01*
X128301885Y-64323940D01*
X128200895Y-64135000D01*
X128301885Y-63946060D01*
X128368215Y-63727400D01*
X128390612Y-63500000D01*
X128368215Y-63272600D01*
X128304907Y-63063902D01*
X128339502Y-62999180D01*
X128375812Y-62879482D01*
X128388072Y-62755000D01*
X128385000Y-62515750D01*
X128226250Y-62357000D01*
X127453109Y-62357000D01*
X127452400Y-62356785D01*
X127281979Y-62340000D01*
X126718021Y-62340000D01*
X126547600Y-62356785D01*
X126546891Y-62357000D01*
X125773750Y-62357000D01*
X125615000Y-62515750D01*
X125611928Y-62755000D01*
X125624188Y-62879482D01*
X125660498Y-62999180D01*
X125695093Y-63063902D01*
X125631785Y-63272600D01*
X125609388Y-63500000D01*
X125631785Y-63727400D01*
X125698115Y-63946060D01*
X125799105Y-64135000D01*
X125698115Y-64323940D01*
X125631785Y-64542600D01*
X125609388Y-64770000D01*
X125631785Y-64997400D01*
X125698115Y-65216060D01*
X125805829Y-65417579D01*
X125920501Y-65557307D01*
X125920500Y-77022857D01*
X123811430Y-79131928D01*
X122945000Y-79131928D01*
X122771746Y-79148992D01*
X122605150Y-79199528D01*
X122451614Y-79281595D01*
X122317038Y-79392038D01*
X122206595Y-79526614D01*
X122124528Y-79680150D01*
X122073992Y-79846746D01*
X122056928Y-80020000D01*
X121783072Y-80020000D01*
X121766008Y-79846746D01*
X121715472Y-79680150D01*
X121633405Y-79526614D01*
X121522962Y-79392038D01*
X121388386Y-79281595D01*
X121234850Y-79199528D01*
X121068254Y-79148992D01*
X120895000Y-79131928D01*
X119970000Y-79131928D01*
X119796746Y-79148992D01*
X119630150Y-79199528D01*
X119476614Y-79281595D01*
X119342038Y-79392038D01*
X119231595Y-79526614D01*
X119149528Y-79680150D01*
X119098992Y-79846746D01*
X119081928Y-80020000D01*
X119081928Y-80468929D01*
X116810358Y-82740500D01*
X90619191Y-82740500D01*
X90598405Y-82701613D01*
X90487962Y-82567038D01*
X90353387Y-82456595D01*
X90199851Y-82374528D01*
X90033255Y-82323992D01*
X89860001Y-82306928D01*
X89059999Y-82306928D01*
X88886745Y-82323992D01*
X88720149Y-82374528D01*
X88566613Y-82456595D01*
X88432038Y-82567038D01*
X88321595Y-82701613D01*
X88239528Y-82855149D01*
X88188992Y-83021745D01*
X88171928Y-83194999D01*
X87648072Y-83194999D01*
X87631008Y-83021745D01*
X87580472Y-82855149D01*
X87498405Y-82701613D01*
X87439500Y-82629837D01*
X87439500Y-82603021D01*
X87444722Y-82549999D01*
X87439500Y-82496978D01*
X87439500Y-82496971D01*
X87423880Y-82338381D01*
X87362153Y-82134894D01*
X87261914Y-81947360D01*
X87127015Y-81782985D01*
X87085821Y-81749178D01*
X86616643Y-81280000D01*
X87085821Y-80810822D01*
X87127015Y-80777015D01*
X87261914Y-80612640D01*
X87362153Y-80425106D01*
X87423880Y-80221619D01*
X87439500Y-80063029D01*
X87439500Y-80063022D01*
X87444722Y-80010001D01*
X87439500Y-79956979D01*
X87439500Y-79930163D01*
X87498405Y-79858387D01*
X87580472Y-79704851D01*
X87631008Y-79538255D01*
X87648072Y-79365001D01*
X87648072Y-78114999D01*
X87631008Y-77941745D01*
X87580472Y-77775149D01*
X87498405Y-77621613D01*
X87387962Y-77487038D01*
X87253387Y-77376595D01*
X87099851Y-77294528D01*
X87050310Y-77279500D01*
X88769690Y-77279500D01*
X88720149Y-77294528D01*
X88566613Y-77376595D01*
X88432038Y-77487038D01*
X88321595Y-77621613D01*
X88239528Y-77775149D01*
X88188992Y-77941745D01*
X88171928Y-78114999D01*
X88171928Y-79365001D01*
X88188992Y-79538255D01*
X88239528Y-79704851D01*
X88321595Y-79858387D01*
X88432038Y-79992962D01*
X88566613Y-80103405D01*
X88720149Y-80185472D01*
X88886745Y-80236008D01*
X89059999Y-80253072D01*
X89860001Y-80253072D01*
X90033255Y-80236008D01*
X90199851Y-80185472D01*
X90353387Y-80103405D01*
X90487962Y-79992962D01*
X90598405Y-79858387D01*
X90619191Y-79819500D01*
X108555358Y-79819500D01*
X109556928Y-80821071D01*
X109556928Y-81270000D01*
X109573992Y-81443254D01*
X109624528Y-81609850D01*
X109706595Y-81763386D01*
X109817038Y-81897962D01*
X109951614Y-82008405D01*
X110105150Y-82090472D01*
X110271746Y-82141008D01*
X110445000Y-82158072D01*
X111370000Y-82158072D01*
X111543254Y-82141008D01*
X111709850Y-82090472D01*
X111863386Y-82008405D01*
X111997962Y-81897962D01*
X112108405Y-81763386D01*
X112190472Y-81609850D01*
X112217727Y-81520000D01*
X112531928Y-81520000D01*
X112544188Y-81644482D01*
X112580498Y-81764180D01*
X112639463Y-81874494D01*
X112718815Y-81971185D01*
X112815506Y-82050537D01*
X112925820Y-82109502D01*
X113045518Y-82145812D01*
X113170000Y-82158072D01*
X113596750Y-82155000D01*
X113755500Y-81996250D01*
X113755500Y-80772000D01*
X114009500Y-80772000D01*
X114009500Y-81996250D01*
X114168250Y-82155000D01*
X114595000Y-82158072D01*
X114719482Y-82145812D01*
X114839180Y-82109502D01*
X114949494Y-82050537D01*
X115046185Y-81971185D01*
X115125537Y-81874494D01*
X115184502Y-81764180D01*
X115220812Y-81644482D01*
X115233072Y-81520000D01*
X115230000Y-80930750D01*
X115071250Y-80772000D01*
X114009500Y-80772000D01*
X113755500Y-80772000D01*
X112693750Y-80772000D01*
X112535000Y-80930750D01*
X112531928Y-81520000D01*
X112217727Y-81520000D01*
X112241008Y-81443254D01*
X112258072Y-81270000D01*
X112258072Y-80020000D01*
X112241008Y-79846746D01*
X112217728Y-79770000D01*
X112531928Y-79770000D01*
X112535000Y-80359250D01*
X112693750Y-80518000D01*
X113755500Y-80518000D01*
X113755500Y-79293750D01*
X114009500Y-79293750D01*
X114009500Y-80518000D01*
X115071250Y-80518000D01*
X115230000Y-80359250D01*
X115233072Y-79770000D01*
X115220812Y-79645518D01*
X115184502Y-79525820D01*
X115125537Y-79415506D01*
X115046185Y-79318815D01*
X114949494Y-79239463D01*
X114839180Y-79180498D01*
X114719482Y-79144188D01*
X114595000Y-79131928D01*
X114168250Y-79135000D01*
X114009500Y-79293750D01*
X113755500Y-79293750D01*
X113596750Y-79135000D01*
X113170000Y-79131928D01*
X113045518Y-79144188D01*
X112925820Y-79180498D01*
X112815506Y-79239463D01*
X112718815Y-79318815D01*
X112639463Y-79415506D01*
X112580498Y-79525820D01*
X112544188Y-79645518D01*
X112531928Y-79770000D01*
X112217728Y-79770000D01*
X112190472Y-79680150D01*
X112108405Y-79526614D01*
X111997962Y-79392038D01*
X111863386Y-79281595D01*
X111709850Y-79199528D01*
X111543254Y-79148992D01*
X111370000Y-79131928D01*
X110921071Y-79131928D01*
X109803326Y-78014184D01*
X109769515Y-77972985D01*
X109605140Y-77838086D01*
X109417606Y-77737847D01*
X109214119Y-77676120D01*
X109055529Y-77660500D01*
X109002500Y-77655277D01*
X108949471Y-77660500D01*
X90619191Y-77660500D01*
X90598405Y-77621613D01*
X90487962Y-77487038D01*
X90353387Y-77376595D01*
X90199851Y-77294528D01*
X90150310Y-77279500D01*
X114246971Y-77279500D01*
X114300000Y-77284723D01*
X114353029Y-77279500D01*
X114511619Y-77263880D01*
X114715106Y-77202153D01*
X114902640Y-77101914D01*
X115067015Y-76967015D01*
X115100827Y-76925815D01*
X117565821Y-74460822D01*
X117607015Y-74427015D01*
X117741914Y-74262640D01*
X117842153Y-74075106D01*
X117903880Y-73871619D01*
X117919500Y-73713029D01*
X117919500Y-73713022D01*
X117924722Y-73660001D01*
X117919500Y-73606979D01*
X117919500Y-69903021D01*
X117924722Y-69849999D01*
X117919500Y-69796978D01*
X117919500Y-69796971D01*
X117903880Y-69638381D01*
X117842153Y-69434894D01*
X117741914Y-69247360D01*
X117607015Y-69082985D01*
X117565821Y-69049178D01*
X116370826Y-67854184D01*
X116337015Y-67812985D01*
X116172640Y-67678086D01*
X115985106Y-67577847D01*
X115781619Y-67516120D01*
X115623029Y-67500500D01*
X115570000Y-67495277D01*
X115516971Y-67500500D01*
X108003021Y-67500500D01*
X107949999Y-67495278D01*
X107896978Y-67500500D01*
X107896971Y-67500500D01*
X107738381Y-67516120D01*
X107534894Y-67577847D01*
X107347360Y-67678086D01*
X107182985Y-67812985D01*
X107149178Y-67854179D01*
X105954184Y-69049174D01*
X105912985Y-69082985D01*
X105778086Y-69247360D01*
X105677847Y-69434895D01*
X105663584Y-69481914D01*
X105616120Y-69638382D01*
X105595277Y-69850000D01*
X105596169Y-69859053D01*
X105553813Y-69893813D01*
X105410000Y-70069050D01*
X105266187Y-69893813D01*
X105024839Y-69695744D01*
X104749488Y-69548566D01*
X104450714Y-69457934D01*
X104140000Y-69427331D01*
X103829287Y-69457934D01*
X103530513Y-69548566D01*
X103255162Y-69695744D01*
X103013813Y-69893813D01*
X102870000Y-70069050D01*
X102726187Y-69893813D01*
X102484839Y-69695744D01*
X102209488Y-69548566D01*
X101910714Y-69457934D01*
X101600000Y-69427331D01*
X101289287Y-69457934D01*
X100990513Y-69548566D01*
X100715162Y-69695744D01*
X100473813Y-69893813D01*
X100330000Y-70069050D01*
X100186187Y-69893813D01*
X99944839Y-69695744D01*
X99669488Y-69548566D01*
X99370714Y-69457934D01*
X99060000Y-69427331D01*
X98749287Y-69457934D01*
X98450513Y-69548566D01*
X98175162Y-69695744D01*
X97933813Y-69893813D01*
X97790000Y-70069050D01*
X97646187Y-69893813D01*
X97603830Y-69859052D01*
X97604722Y-69849999D01*
X97599500Y-69796978D01*
X97599500Y-69796971D01*
X97583880Y-69638381D01*
X97522153Y-69434894D01*
X97421914Y-69247360D01*
X97287015Y-69082985D01*
X97245821Y-69049178D01*
X96050826Y-67854184D01*
X96017015Y-67812985D01*
X95852640Y-67678086D01*
X95665106Y-67577847D01*
X95461619Y-67516120D01*
X95303029Y-67500500D01*
X95250000Y-67495277D01*
X95196971Y-67500500D01*
X74983029Y-67500500D01*
X74930000Y-67495277D01*
X74876971Y-67500500D01*
X74718381Y-67516120D01*
X74514894Y-67577847D01*
X74327360Y-67678086D01*
X74162985Y-67812985D01*
X74129182Y-67854174D01*
X72374180Y-69609178D01*
X72332986Y-69642985D01*
X72198087Y-69807360D01*
X72151877Y-69893813D01*
X72097847Y-69994896D01*
X72036120Y-70198382D01*
X72015277Y-70410000D01*
X72020501Y-70463039D01*
X72020500Y-72469837D01*
X71961595Y-72541613D01*
X71879528Y-72695149D01*
X71828992Y-72861745D01*
X71811928Y-73034999D01*
X71811928Y-74285001D01*
X71828992Y-74458255D01*
X71879528Y-74624851D01*
X71961595Y-74778387D01*
X72020501Y-74850164D01*
X72020500Y-77549837D01*
X71961595Y-77621613D01*
X71879528Y-77775149D01*
X71828992Y-77941745D01*
X71811928Y-78114999D01*
X71811928Y-79365001D01*
X71828992Y-79538255D01*
X71879528Y-79704851D01*
X71961595Y-79858387D01*
X72072038Y-79992962D01*
X72206613Y-80103405D01*
X72360149Y-80185472D01*
X72409690Y-80200500D01*
X70125938Y-80200500D01*
X70181994Y-80170537D01*
X70278685Y-80091185D01*
X70358037Y-79994494D01*
X70417002Y-79884180D01*
X70453312Y-79764482D01*
X70465572Y-79640000D01*
X70462500Y-79025750D01*
X70303750Y-78867000D01*
X69292000Y-78867000D01*
X69292000Y-78887000D01*
X69038000Y-78887000D01*
X69038000Y-78867000D01*
X68026250Y-78867000D01*
X67867500Y-79025750D01*
X67864428Y-79640000D01*
X67876688Y-79764482D01*
X67912998Y-79884180D01*
X67971963Y-79994494D01*
X68051315Y-80091185D01*
X68148006Y-80170537D01*
X68204062Y-80200500D01*
X67757143Y-80200500D01*
X67276119Y-79719477D01*
X67323508Y-79563257D01*
X67340572Y-79390003D01*
X67340572Y-78089997D01*
X67323508Y-77916743D01*
X67300229Y-77840000D01*
X67864428Y-77840000D01*
X67867500Y-78454250D01*
X68026250Y-78613000D01*
X69038000Y-78613000D01*
X69038000Y-77363750D01*
X69292000Y-77363750D01*
X69292000Y-78613000D01*
X70303750Y-78613000D01*
X70462500Y-78454250D01*
X70465572Y-77840000D01*
X70453312Y-77715518D01*
X70417002Y-77595820D01*
X70358037Y-77485506D01*
X70278685Y-77388815D01*
X70181994Y-77309463D01*
X70071680Y-77250498D01*
X69951982Y-77214188D01*
X69827500Y-77201928D01*
X69450750Y-77205000D01*
X69292000Y-77363750D01*
X69038000Y-77363750D01*
X68879250Y-77205000D01*
X68502500Y-77201928D01*
X68378018Y-77214188D01*
X68258320Y-77250498D01*
X68148006Y-77309463D01*
X68051315Y-77388815D01*
X67971963Y-77485506D01*
X67912998Y-77595820D01*
X67876688Y-77715518D01*
X67864428Y-77840000D01*
X67300229Y-77840000D01*
X67272972Y-77750148D01*
X67190905Y-77596612D01*
X67119500Y-77509604D01*
X67119500Y-76146971D01*
X67103880Y-75988381D01*
X67042153Y-75784894D01*
X66941914Y-75597360D01*
X66807015Y-75432985D01*
X66642640Y-75298086D01*
X66455106Y-75197847D01*
X66251619Y-75136120D01*
X66040000Y-75115277D01*
X65828382Y-75136120D01*
X65624895Y-75197847D01*
X65437361Y-75298086D01*
X65272986Y-75432985D01*
X65138087Y-75597360D01*
X65037848Y-75784894D01*
X64976121Y-75988381D01*
X64960501Y-76146971D01*
X64960500Y-77509603D01*
X64889095Y-77596612D01*
X64807028Y-77750148D01*
X64756492Y-77916743D01*
X64739428Y-78089997D01*
X64739428Y-78580500D01*
X63268072Y-78580500D01*
X63268072Y-78410000D01*
X63255812Y-78285518D01*
X63219502Y-78165820D01*
X63160537Y-78055506D01*
X63081185Y-77958815D01*
X62984494Y-77879463D01*
X62874180Y-77820498D01*
X62754482Y-77784188D01*
X62630000Y-77771928D01*
X60130000Y-77771928D01*
X60005518Y-77784188D01*
X59885820Y-77820498D01*
X59775506Y-77879463D01*
X59678815Y-77958815D01*
X59599463Y-78055506D01*
X59540498Y-78165820D01*
X59504188Y-78285518D01*
X59491928Y-78410000D01*
X52268072Y-78410000D01*
X52255812Y-78285518D01*
X52219502Y-78165820D01*
X52160537Y-78055506D01*
X52081185Y-77958815D01*
X51984494Y-77879463D01*
X51874180Y-77820498D01*
X51754482Y-77784188D01*
X51630000Y-77771928D01*
X49130000Y-77771928D01*
X49005518Y-77784188D01*
X48885820Y-77820498D01*
X48775506Y-77879463D01*
X48678815Y-77958815D01*
X48599463Y-78055506D01*
X48540498Y-78165820D01*
X48504188Y-78285518D01*
X48491928Y-78410000D01*
X43840000Y-78410000D01*
X43840000Y-66410000D01*
X48491928Y-66410000D01*
X48491928Y-68910000D01*
X48504188Y-69034482D01*
X48540498Y-69154180D01*
X48599463Y-69264494D01*
X48678815Y-69361185D01*
X48775506Y-69440537D01*
X48885820Y-69499502D01*
X49005518Y-69535812D01*
X49130000Y-69548072D01*
X51630000Y-69548072D01*
X51754482Y-69535812D01*
X51874180Y-69499502D01*
X51984494Y-69440537D01*
X52081185Y-69361185D01*
X52160537Y-69264494D01*
X52219502Y-69154180D01*
X52255812Y-69034482D01*
X52268072Y-68910000D01*
X59491928Y-68910000D01*
X59504188Y-69034482D01*
X59540498Y-69154180D01*
X59599463Y-69264494D01*
X59678815Y-69361185D01*
X59775506Y-69440537D01*
X59885820Y-69499502D01*
X60005518Y-69535812D01*
X60130000Y-69548072D01*
X61094250Y-69545000D01*
X61253000Y-69386250D01*
X61253000Y-67787000D01*
X61507000Y-67787000D01*
X61507000Y-69386250D01*
X61665750Y-69545000D01*
X62630000Y-69548072D01*
X62754482Y-69535812D01*
X62874180Y-69499502D01*
X62984494Y-69440537D01*
X63081185Y-69361185D01*
X63160537Y-69264494D01*
X63219502Y-69154180D01*
X63255812Y-69034482D01*
X63268072Y-68910000D01*
X63265000Y-67945750D01*
X63106250Y-67787000D01*
X61507000Y-67787000D01*
X61253000Y-67787000D01*
X59653750Y-67787000D01*
X59495000Y-67945750D01*
X59491928Y-68910000D01*
X52268072Y-68910000D01*
X52268072Y-66410000D01*
X59491928Y-66410000D01*
X59495000Y-67374250D01*
X59653750Y-67533000D01*
X61253000Y-67533000D01*
X61253000Y-65933750D01*
X61507000Y-65933750D01*
X61507000Y-67533000D01*
X63106250Y-67533000D01*
X63265000Y-67374250D01*
X63268072Y-66410000D01*
X63255812Y-66285518D01*
X63219502Y-66165820D01*
X63160537Y-66055506D01*
X63081185Y-65958815D01*
X62984494Y-65879463D01*
X62874180Y-65820498D01*
X62754482Y-65784188D01*
X62630000Y-65771928D01*
X61665750Y-65775000D01*
X61507000Y-65933750D01*
X61253000Y-65933750D01*
X61094250Y-65775000D01*
X60130000Y-65771928D01*
X60005518Y-65784188D01*
X59885820Y-65820498D01*
X59775506Y-65879463D01*
X59678815Y-65958815D01*
X59599463Y-66055506D01*
X59540498Y-66165820D01*
X59504188Y-66285518D01*
X59491928Y-66410000D01*
X52268072Y-66410000D01*
X52255812Y-66285518D01*
X52219502Y-66165820D01*
X52160537Y-66055506D01*
X52081185Y-65958815D01*
X51984494Y-65879463D01*
X51874180Y-65820498D01*
X51754482Y-65784188D01*
X51630000Y-65771928D01*
X51459500Y-65771928D01*
X51459500Y-63181849D01*
X51475228Y-63130000D01*
X52039428Y-63130000D01*
X52051688Y-63254482D01*
X52087998Y-63374180D01*
X52146963Y-63484494D01*
X52226315Y-63581185D01*
X52323006Y-63660537D01*
X52433320Y-63719502D01*
X52553018Y-63755812D01*
X52677500Y-63768072D01*
X53054250Y-63765000D01*
X53213000Y-63606250D01*
X53213000Y-62357000D01*
X53467000Y-62357000D01*
X53467000Y-63606250D01*
X53625750Y-63765000D01*
X54002500Y-63768072D01*
X54126982Y-63755812D01*
X54246680Y-63719502D01*
X54356994Y-63660537D01*
X54453685Y-63581185D01*
X54533037Y-63484494D01*
X54592002Y-63374180D01*
X54628312Y-63254482D01*
X54640572Y-63130000D01*
X54637500Y-62515750D01*
X54478750Y-62357000D01*
X53467000Y-62357000D01*
X53213000Y-62357000D01*
X52201250Y-62357000D01*
X52042500Y-62515750D01*
X52039428Y-63130000D01*
X51475228Y-63130000D01*
X51498508Y-63053257D01*
X51515572Y-62880003D01*
X51515572Y-61579997D01*
X51498508Y-61406743D01*
X51475229Y-61330000D01*
X52039428Y-61330000D01*
X52042500Y-61944250D01*
X52201250Y-62103000D01*
X53213000Y-62103000D01*
X53213000Y-60853750D01*
X53467000Y-60853750D01*
X53467000Y-62103000D01*
X54478750Y-62103000D01*
X54637500Y-61944250D01*
X54638696Y-61705000D01*
X125611928Y-61705000D01*
X125615000Y-61944250D01*
X125773750Y-62103000D01*
X126873000Y-62103000D01*
X126873000Y-61228750D01*
X127127000Y-61228750D01*
X127127000Y-62103000D01*
X128226250Y-62103000D01*
X128385000Y-61944250D01*
X128388072Y-61705000D01*
X128375812Y-61580518D01*
X128339502Y-61460820D01*
X128280537Y-61350506D01*
X128201185Y-61253815D01*
X128104494Y-61174463D01*
X127994180Y-61115498D01*
X127874482Y-61079188D01*
X127750000Y-61066928D01*
X127285750Y-61070000D01*
X127127000Y-61228750D01*
X126873000Y-61228750D01*
X126714250Y-61070000D01*
X126250000Y-61066928D01*
X126125518Y-61079188D01*
X126005820Y-61115498D01*
X125895506Y-61174463D01*
X125798815Y-61253815D01*
X125719463Y-61350506D01*
X125660498Y-61460820D01*
X125624188Y-61580518D01*
X125611928Y-61705000D01*
X54638696Y-61705000D01*
X54640572Y-61330000D01*
X54628312Y-61205518D01*
X54592002Y-61085820D01*
X54533037Y-60975506D01*
X54453685Y-60878815D01*
X54356994Y-60799463D01*
X54246680Y-60740498D01*
X54126982Y-60704188D01*
X54002500Y-60691928D01*
X53625750Y-60695000D01*
X53467000Y-60853750D01*
X53213000Y-60853750D01*
X53054250Y-60695000D01*
X52677500Y-60691928D01*
X52553018Y-60704188D01*
X52433320Y-60740498D01*
X52323006Y-60799463D01*
X52226315Y-60878815D01*
X52146963Y-60975506D01*
X52087998Y-61085820D01*
X52051688Y-61205518D01*
X52039428Y-61330000D01*
X51475229Y-61330000D01*
X51447972Y-61240148D01*
X51365905Y-61086612D01*
X51294500Y-60999604D01*
X51294500Y-59452142D01*
X56327144Y-54419500D01*
X61111928Y-54419500D01*
X61111928Y-55090000D01*
X61124188Y-55214482D01*
X61160498Y-55334180D01*
X61219463Y-55444494D01*
X61298815Y-55541185D01*
X61395506Y-55620537D01*
X61505820Y-55679502D01*
X61625518Y-55715812D01*
X61750000Y-55728072D01*
X65250000Y-55728072D01*
X65374482Y-55715812D01*
X65494180Y-55679502D01*
X65604494Y-55620537D01*
X65701185Y-55541185D01*
X65780537Y-55444494D01*
X65839502Y-55334180D01*
X65875812Y-55214482D01*
X65888072Y-55090000D01*
X65888072Y-52540000D01*
X72221928Y-52540000D01*
X72221928Y-54140000D01*
X72234188Y-54264482D01*
X72270498Y-54384180D01*
X72329463Y-54494494D01*
X72408815Y-54591185D01*
X72505506Y-54670537D01*
X72615820Y-54729502D01*
X72735518Y-54765812D01*
X72860000Y-54778072D01*
X74460000Y-54778072D01*
X74584482Y-54765812D01*
X74704180Y-54729502D01*
X74814494Y-54670537D01*
X74911185Y-54591185D01*
X74990537Y-54494494D01*
X75049502Y-54384180D01*
X75065117Y-54332702D01*
X75346903Y-54332702D01*
X75418486Y-54576671D01*
X75673996Y-54697571D01*
X75948184Y-54766300D01*
X76230512Y-54780217D01*
X76510130Y-54738787D01*
X76776292Y-54643603D01*
X76901514Y-54576671D01*
X76973097Y-54332702D01*
X76160000Y-53519605D01*
X75346903Y-54332702D01*
X75065117Y-54332702D01*
X75085812Y-54264482D01*
X75098072Y-54140000D01*
X75098072Y-54132785D01*
X75167298Y-54153097D01*
X75980395Y-53340000D01*
X76339605Y-53340000D01*
X77152702Y-54153097D01*
X77396671Y-54081514D01*
X77517571Y-53826004D01*
X77586300Y-53551816D01*
X77600217Y-53269488D01*
X77558787Y-52989870D01*
X77463603Y-52723708D01*
X77396671Y-52598486D01*
X77152702Y-52526903D01*
X76339605Y-53340000D01*
X75980395Y-53340000D01*
X75167298Y-52526903D01*
X75098072Y-52547215D01*
X75098072Y-52540000D01*
X75085812Y-52415518D01*
X75065118Y-52347298D01*
X75346903Y-52347298D01*
X76160000Y-53160395D01*
X76973097Y-52347298D01*
X76901514Y-52103329D01*
X76646004Y-51982429D01*
X76371816Y-51913700D01*
X76089488Y-51899783D01*
X75809870Y-51941213D01*
X75543708Y-52036397D01*
X75418486Y-52103329D01*
X75346903Y-52347298D01*
X75065118Y-52347298D01*
X75049502Y-52295820D01*
X74990537Y-52185506D01*
X74911185Y-52088815D01*
X74814494Y-52009463D01*
X74704180Y-51950498D01*
X74584482Y-51914188D01*
X74460000Y-51901928D01*
X72860000Y-51901928D01*
X72735518Y-51914188D01*
X72615820Y-51950498D01*
X72505506Y-52009463D01*
X72408815Y-52088815D01*
X72329463Y-52185506D01*
X72270498Y-52295820D01*
X72234188Y-52415518D01*
X72221928Y-52540000D01*
X65888072Y-52540000D01*
X65888072Y-51590000D01*
X65875812Y-51465518D01*
X65839502Y-51345820D01*
X65780537Y-51235506D01*
X65730428Y-51174447D01*
X89879805Y-51174447D01*
X89963326Y-51473553D01*
X90103595Y-51750617D01*
X90295221Y-51994992D01*
X90530840Y-52197287D01*
X90801397Y-52349728D01*
X91067412Y-52440586D01*
X91313000Y-52320584D01*
X91313000Y-50927000D01*
X90014831Y-50927000D01*
X89879805Y-51174447D01*
X65730428Y-51174447D01*
X65701185Y-51138815D01*
X65604494Y-51059463D01*
X65494180Y-51000498D01*
X65374482Y-50964188D01*
X65250000Y-50951928D01*
X61750000Y-50951928D01*
X61625518Y-50964188D01*
X61505820Y-51000498D01*
X61395506Y-51059463D01*
X61298815Y-51138815D01*
X61219463Y-51235506D01*
X61178506Y-51312131D01*
X61188072Y-51215000D01*
X61188072Y-50425553D01*
X89879805Y-50425553D01*
X90014831Y-50673000D01*
X91313000Y-50673000D01*
X91313000Y-49279416D01*
X91567000Y-49279416D01*
X91567000Y-50673000D01*
X91587000Y-50673000D01*
X91587000Y-50927000D01*
X91567000Y-50927000D01*
X91567000Y-52320584D01*
X91812588Y-52440586D01*
X92078603Y-52349728D01*
X92349160Y-52197287D01*
X92584779Y-51994992D01*
X92703725Y-51843303D01*
X92853813Y-52026187D01*
X93095161Y-52224256D01*
X93370512Y-52371434D01*
X93669286Y-52462066D01*
X93980000Y-52492669D01*
X94290713Y-52462066D01*
X94589487Y-52371434D01*
X94864838Y-52224256D01*
X95106187Y-52026187D01*
X95250000Y-51850950D01*
X95393813Y-52026187D01*
X95635161Y-52224256D01*
X95910512Y-52371434D01*
X96209286Y-52462066D01*
X96520000Y-52492669D01*
X96830713Y-52462066D01*
X97129487Y-52371434D01*
X97404838Y-52224256D01*
X97646187Y-52026187D01*
X97790000Y-51850950D01*
X97933813Y-52026187D01*
X98175161Y-52224256D01*
X98450512Y-52371434D01*
X98749286Y-52462066D01*
X99060000Y-52492669D01*
X99370713Y-52462066D01*
X99669487Y-52371434D01*
X99944838Y-52224256D01*
X100186187Y-52026187D01*
X100330000Y-51850950D01*
X100473813Y-52026187D01*
X100715161Y-52224256D01*
X100990512Y-52371434D01*
X101289286Y-52462066D01*
X101600000Y-52492669D01*
X101910713Y-52462066D01*
X102209487Y-52371434D01*
X102484838Y-52224256D01*
X102726187Y-52026187D01*
X102870000Y-51850950D01*
X103013813Y-52026187D01*
X103255161Y-52224256D01*
X103530512Y-52371434D01*
X103829286Y-52462066D01*
X104140000Y-52492669D01*
X104450713Y-52462066D01*
X104749487Y-52371434D01*
X105024838Y-52224256D01*
X105266187Y-52026187D01*
X105410000Y-51850950D01*
X105553813Y-52026187D01*
X105795161Y-52224256D01*
X106070512Y-52371434D01*
X106369286Y-52462066D01*
X106680000Y-52492669D01*
X106990713Y-52462066D01*
X107289487Y-52371434D01*
X107564838Y-52224256D01*
X107806187Y-52026187D01*
X107950000Y-51850950D01*
X108093813Y-52026187D01*
X108335161Y-52224256D01*
X108610512Y-52371434D01*
X108909286Y-52462066D01*
X109220000Y-52492669D01*
X109530713Y-52462066D01*
X109829487Y-52371434D01*
X110104838Y-52224256D01*
X110346187Y-52026187D01*
X110490000Y-51850950D01*
X110633813Y-52026187D01*
X110875161Y-52224256D01*
X111150512Y-52371434D01*
X111449286Y-52462066D01*
X111760000Y-52492669D01*
X112070713Y-52462066D01*
X112369487Y-52371434D01*
X112644838Y-52224256D01*
X112773560Y-52118617D01*
X112819463Y-52204494D01*
X112898815Y-52301185D01*
X112995506Y-52380537D01*
X113105820Y-52439502D01*
X113225518Y-52475812D01*
X113350000Y-52488072D01*
X115250000Y-52488072D01*
X115374482Y-52475812D01*
X115494180Y-52439502D01*
X115604494Y-52380537D01*
X115701185Y-52301185D01*
X115780537Y-52204494D01*
X115839502Y-52094180D01*
X115875812Y-51974482D01*
X115888072Y-51850000D01*
X115888072Y-50579872D01*
X124765000Y-50579872D01*
X124765000Y-51020128D01*
X124850890Y-51451925D01*
X125019369Y-51858669D01*
X125263962Y-52224729D01*
X125575271Y-52536038D01*
X125941331Y-52780631D01*
X126348075Y-52949110D01*
X126779872Y-53035000D01*
X127220128Y-53035000D01*
X127651925Y-52949110D01*
X128058669Y-52780631D01*
X128424729Y-52536038D01*
X128736038Y-52224729D01*
X128980631Y-51858669D01*
X129149110Y-51451925D01*
X129235000Y-51020128D01*
X129235000Y-50579872D01*
X129149110Y-50148075D01*
X128980631Y-49741331D01*
X128736038Y-49375271D01*
X128424729Y-49063962D01*
X128058669Y-48819369D01*
X127651925Y-48650890D01*
X127220128Y-48565000D01*
X126779872Y-48565000D01*
X126348075Y-48650890D01*
X125941331Y-48819369D01*
X125575271Y-49063962D01*
X125263962Y-49375271D01*
X125019369Y-49741331D01*
X124850890Y-50148075D01*
X124765000Y-50579872D01*
X115888072Y-50579872D01*
X115888072Y-49750000D01*
X115875812Y-49625518D01*
X115839502Y-49505820D01*
X115780537Y-49395506D01*
X115701185Y-49298815D01*
X115604494Y-49219463D01*
X115494180Y-49160498D01*
X115374482Y-49124188D01*
X115250000Y-49111928D01*
X113350000Y-49111928D01*
X113225518Y-49124188D01*
X113105820Y-49160498D01*
X112995506Y-49219463D01*
X112898815Y-49298815D01*
X112819463Y-49395506D01*
X112773560Y-49481383D01*
X112644839Y-49375744D01*
X112369488Y-49228566D01*
X112070714Y-49137934D01*
X111760000Y-49107331D01*
X111449287Y-49137934D01*
X111150513Y-49228566D01*
X110875162Y-49375744D01*
X110633813Y-49573813D01*
X110490000Y-49749050D01*
X110346187Y-49573813D01*
X110104839Y-49375744D01*
X109829488Y-49228566D01*
X109530714Y-49137934D01*
X109220000Y-49107331D01*
X108909287Y-49137934D01*
X108610513Y-49228566D01*
X108335162Y-49375744D01*
X108093813Y-49573813D01*
X107950000Y-49749050D01*
X107806187Y-49573813D01*
X107564839Y-49375744D01*
X107289488Y-49228566D01*
X106990714Y-49137934D01*
X106680000Y-49107331D01*
X106369287Y-49137934D01*
X106070513Y-49228566D01*
X105795162Y-49375744D01*
X105553813Y-49573813D01*
X105410000Y-49749050D01*
X105266187Y-49573813D01*
X105024839Y-49375744D01*
X104749488Y-49228566D01*
X104450714Y-49137934D01*
X104140000Y-49107331D01*
X103829287Y-49137934D01*
X103530513Y-49228566D01*
X103255162Y-49375744D01*
X103013813Y-49573813D01*
X102870000Y-49749050D01*
X102726187Y-49573813D01*
X102484839Y-49375744D01*
X102209488Y-49228566D01*
X101910714Y-49137934D01*
X101600000Y-49107331D01*
X101289287Y-49137934D01*
X100990513Y-49228566D01*
X100715162Y-49375744D01*
X100473813Y-49573813D01*
X100330000Y-49749050D01*
X100186187Y-49573813D01*
X99944839Y-49375744D01*
X99669488Y-49228566D01*
X99370714Y-49137934D01*
X99060000Y-49107331D01*
X98749287Y-49137934D01*
X98450513Y-49228566D01*
X98175162Y-49375744D01*
X97933813Y-49573813D01*
X97790000Y-49749050D01*
X97646187Y-49573813D01*
X97404839Y-49375744D01*
X97129488Y-49228566D01*
X96830714Y-49137934D01*
X96520000Y-49107331D01*
X96209287Y-49137934D01*
X95910513Y-49228566D01*
X95635162Y-49375744D01*
X95393813Y-49573813D01*
X95250000Y-49749050D01*
X95106187Y-49573813D01*
X94864839Y-49375744D01*
X94589488Y-49228566D01*
X94290714Y-49137934D01*
X93980000Y-49107331D01*
X93669287Y-49137934D01*
X93370513Y-49228566D01*
X93095162Y-49375744D01*
X92853813Y-49573813D01*
X92703725Y-49756696D01*
X92584779Y-49605008D01*
X92349160Y-49402713D01*
X92078603Y-49250272D01*
X91812588Y-49159414D01*
X91567000Y-49279416D01*
X91313000Y-49279416D01*
X91067412Y-49159414D01*
X90801397Y-49250272D01*
X90530840Y-49402713D01*
X90295221Y-49605008D01*
X90103595Y-49849383D01*
X89963326Y-50126447D01*
X89879805Y-50425553D01*
X61188072Y-50425553D01*
X61188072Y-49465000D01*
X61158999Y-49169814D01*
X61072896Y-48885972D01*
X61048324Y-48840000D01*
X61111928Y-48840000D01*
X61124188Y-48964482D01*
X61160498Y-49084180D01*
X61219463Y-49194494D01*
X61298815Y-49291185D01*
X61395506Y-49370537D01*
X61505820Y-49429502D01*
X61625518Y-49465812D01*
X61750000Y-49478072D01*
X63214250Y-49475000D01*
X63373000Y-49316250D01*
X63373000Y-47467000D01*
X63627000Y-47467000D01*
X63627000Y-49316250D01*
X63785750Y-49475000D01*
X65250000Y-49478072D01*
X65374482Y-49465812D01*
X65494180Y-49429502D01*
X65604494Y-49370537D01*
X65701185Y-49291185D01*
X65780537Y-49194494D01*
X65839502Y-49084180D01*
X65875812Y-48964482D01*
X65888072Y-48840000D01*
X65885000Y-47625750D01*
X65726250Y-47467000D01*
X63627000Y-47467000D01*
X63373000Y-47467000D01*
X61273750Y-47467000D01*
X61115000Y-47625750D01*
X61111928Y-48840000D01*
X61048324Y-48840000D01*
X60933073Y-48624382D01*
X60744903Y-48395097D01*
X60515618Y-48206927D01*
X60254028Y-48067104D01*
X59970186Y-47981001D01*
X59675000Y-47951928D01*
X57925000Y-47951928D01*
X57629814Y-47981001D01*
X57345972Y-48067104D01*
X57084382Y-48206927D01*
X56855097Y-48395097D01*
X56666927Y-48624382D01*
X56527104Y-48885972D01*
X56441001Y-49169814D01*
X56411928Y-49465000D01*
X56411928Y-51215000D01*
X56441001Y-51510186D01*
X56527104Y-51794028D01*
X56666927Y-52055618D01*
X56835070Y-52260500D01*
X55933029Y-52260500D01*
X55880000Y-52255277D01*
X55826971Y-52260500D01*
X55668381Y-52276120D01*
X55464894Y-52337847D01*
X55277360Y-52438086D01*
X55112985Y-52572985D01*
X55079182Y-52614174D01*
X49489180Y-58204178D01*
X49447986Y-58237985D01*
X49313087Y-58402360D01*
X49212848Y-58589894D01*
X49212847Y-58589896D01*
X49151120Y-58793382D01*
X49130277Y-59005000D01*
X49135501Y-59058039D01*
X49135500Y-60999604D01*
X49064095Y-61086612D01*
X48982028Y-61240148D01*
X48931492Y-61406743D01*
X48914428Y-61579997D01*
X48914428Y-62880003D01*
X48931492Y-63053257D01*
X48982028Y-63219852D01*
X49064095Y-63373388D01*
X49174537Y-63507963D01*
X49300501Y-63611338D01*
X49300500Y-65771928D01*
X49130000Y-65771928D01*
X49005518Y-65784188D01*
X48885820Y-65820498D01*
X48775506Y-65879463D01*
X48678815Y-65958815D01*
X48599463Y-66055506D01*
X48540498Y-66165820D01*
X48504188Y-66285518D01*
X48491928Y-66410000D01*
X43840000Y-66410000D01*
X43840000Y-50823920D01*
X43857707Y-50579872D01*
X48565000Y-50579872D01*
X48565000Y-51020128D01*
X48650890Y-51451925D01*
X48819369Y-51858669D01*
X49063962Y-52224729D01*
X49375271Y-52536038D01*
X49741331Y-52780631D01*
X50148075Y-52949110D01*
X50579872Y-53035000D01*
X51020128Y-53035000D01*
X51451925Y-52949110D01*
X51858669Y-52780631D01*
X52224729Y-52536038D01*
X52536038Y-52224729D01*
X52780631Y-51858669D01*
X52949110Y-51451925D01*
X53035000Y-51020128D01*
X53035000Y-50579872D01*
X52949110Y-50148075D01*
X52780631Y-49741331D01*
X52536038Y-49375271D01*
X52224729Y-49063962D01*
X51858669Y-48819369D01*
X51451925Y-48650890D01*
X51020128Y-48565000D01*
X50579872Y-48565000D01*
X50148075Y-48650890D01*
X49741331Y-48819369D01*
X49375271Y-49063962D01*
X49063962Y-49375271D01*
X48819369Y-49741331D01*
X48650890Y-50148075D01*
X48565000Y-50579872D01*
X43857707Y-50579872D01*
X43914617Y-49795530D01*
X44131739Y-48812102D01*
X44488546Y-47870325D01*
X44977575Y-46989905D01*
X45588569Y-46189313D01*
X45945898Y-45840000D01*
X61111928Y-45840000D01*
X61115000Y-47054250D01*
X61273750Y-47213000D01*
X63373000Y-47213000D01*
X63373000Y-45363750D01*
X63627000Y-45363750D01*
X63627000Y-47213000D01*
X65726250Y-47213000D01*
X65885000Y-47054250D01*
X65888072Y-45840000D01*
X65875812Y-45715518D01*
X65839502Y-45595820D01*
X65780537Y-45485506D01*
X65701185Y-45388815D01*
X65604494Y-45309463D01*
X65494180Y-45250498D01*
X65374482Y-45214188D01*
X65250000Y-45201928D01*
X63785750Y-45205000D01*
X63627000Y-45363750D01*
X63373000Y-45363750D01*
X63214250Y-45205000D01*
X61750000Y-45201928D01*
X61625518Y-45214188D01*
X61505820Y-45250498D01*
X61395506Y-45309463D01*
X61298815Y-45388815D01*
X61219463Y-45485506D01*
X61160498Y-45595820D01*
X61124188Y-45715518D01*
X61111928Y-45840000D01*
X45945898Y-45840000D01*
X46308732Y-45485306D01*
X47122987Y-44892630D01*
X48014269Y-44423704D01*
X48963900Y-44088353D01*
X49955692Y-43892873D01*
X50820164Y-43840000D01*
X126976080Y-43840000D01*
X128004470Y-43914617D01*
%TA.AperFunction,Conductor*%
D23*
G36*
X128004470Y-43914617D02*
G01*
X128987898Y-44131739D01*
X129929675Y-44488546D01*
X130810095Y-44977575D01*
X131610687Y-45588569D01*
X132314694Y-46308732D01*
X132907370Y-47122987D01*
X133376296Y-48014269D01*
X133711647Y-48963900D01*
X133907127Y-49955692D01*
X133960000Y-50820164D01*
X133960001Y-101576080D01*
X133885382Y-102604470D01*
X133668262Y-103587896D01*
X133311454Y-104529675D01*
X132822424Y-105410095D01*
X132211435Y-106210684D01*
X131491268Y-106914694D01*
X130677013Y-107507370D01*
X129785731Y-107976296D01*
X128836099Y-108311647D01*
X127844309Y-108507127D01*
X126979835Y-108560000D01*
X50823906Y-108560000D01*
X49795530Y-108485382D01*
X48812104Y-108268262D01*
X47870325Y-107911454D01*
X46989905Y-107422424D01*
X46189316Y-106811435D01*
X45485306Y-106091268D01*
X44892630Y-105277013D01*
X44423704Y-104385731D01*
X44088353Y-103436099D01*
X43892873Y-102444309D01*
X43840000Y-101579835D01*
X43840000Y-101379872D01*
X48565000Y-101379872D01*
X48565000Y-101820128D01*
X48650890Y-102251925D01*
X48819369Y-102658669D01*
X49063962Y-103024729D01*
X49375271Y-103336038D01*
X49741331Y-103580631D01*
X50148075Y-103749110D01*
X50579872Y-103835000D01*
X51020128Y-103835000D01*
X51451925Y-103749110D01*
X51858669Y-103580631D01*
X52224729Y-103336038D01*
X52536038Y-103024729D01*
X52780631Y-102658669D01*
X52949110Y-102251925D01*
X53035000Y-101820128D01*
X53035000Y-101379872D01*
X52949110Y-100948075D01*
X52867065Y-100750000D01*
X62011928Y-100750000D01*
X62011928Y-102450000D01*
X62024188Y-102574482D01*
X62060498Y-102694180D01*
X62119463Y-102804494D01*
X62198815Y-102901185D01*
X62295506Y-102980537D01*
X62405820Y-103039502D01*
X62525518Y-103075812D01*
X62650000Y-103088072D01*
X64350000Y-103088072D01*
X64474482Y-103075812D01*
X64594180Y-103039502D01*
X64704494Y-102980537D01*
X64801185Y-102901185D01*
X64880537Y-102804494D01*
X64939502Y-102694180D01*
X64961513Y-102621620D01*
X65093368Y-102753475D01*
X65336589Y-102915990D01*
X65606842Y-103027932D01*
X65893740Y-103085000D01*
X66186260Y-103085000D01*
X66473158Y-103027932D01*
X66743411Y-102915990D01*
X66986632Y-102753475D01*
X67193475Y-102546632D01*
X67315195Y-102364466D01*
X67384822Y-102481355D01*
X67579731Y-102697588D01*
X67813080Y-102871641D01*
X68075901Y-102996825D01*
X68223110Y-103041476D01*
X68453000Y-102920155D01*
X68453000Y-101727000D01*
X68433000Y-101727000D01*
X68433000Y-101473000D01*
X68453000Y-101473000D01*
X68453000Y-100279845D01*
X68707000Y-100279845D01*
X68707000Y-101473000D01*
X68727000Y-101473000D01*
X68727000Y-101727000D01*
X68707000Y-101727000D01*
X68707000Y-102920155D01*
X68936890Y-103041476D01*
X69084099Y-102996825D01*
X69346920Y-102871641D01*
X69580269Y-102697588D01*
X69775178Y-102481355D01*
X69844805Y-102364466D01*
X69966525Y-102546632D01*
X70173368Y-102753475D01*
X70416589Y-102915990D01*
X70686842Y-103027932D01*
X70973740Y-103085000D01*
X71266260Y-103085000D01*
X71553158Y-103027932D01*
X71823411Y-102915990D01*
X72066632Y-102753475D01*
X72273475Y-102546632D01*
X72390000Y-102372240D01*
X72506525Y-102546632D01*
X72713368Y-102753475D01*
X72956589Y-102915990D01*
X73226842Y-103027932D01*
X73513740Y-103085000D01*
X73806260Y-103085000D01*
X74093158Y-103027932D01*
X74363411Y-102915990D01*
X74606632Y-102753475D01*
X74813475Y-102546632D01*
X74930000Y-102372240D01*
X75046525Y-102546632D01*
X75253368Y-102753475D01*
X75496589Y-102915990D01*
X75766842Y-103027932D01*
X76053740Y-103085000D01*
X76346260Y-103085000D01*
X76633158Y-103027932D01*
X76903411Y-102915990D01*
X77146632Y-102753475D01*
X77353475Y-102546632D01*
X77470000Y-102372240D01*
X77586525Y-102546632D01*
X77793368Y-102753475D01*
X78036589Y-102915990D01*
X78306842Y-103027932D01*
X78593740Y-103085000D01*
X78886260Y-103085000D01*
X79173158Y-103027932D01*
X79443411Y-102915990D01*
X79686632Y-102753475D01*
X79893475Y-102546632D01*
X80055990Y-102303411D01*
X80167932Y-102033158D01*
X80225000Y-101746260D01*
X80225000Y-101453740D01*
X80210307Y-101379872D01*
X124765000Y-101379872D01*
X124765000Y-101820128D01*
X124850890Y-102251925D01*
X125019369Y-102658669D01*
X125263962Y-103024729D01*
X125575271Y-103336038D01*
X125941331Y-103580631D01*
X126348075Y-103749110D01*
X126779872Y-103835000D01*
X127220128Y-103835000D01*
X127651925Y-103749110D01*
X128058669Y-103580631D01*
X128424729Y-103336038D01*
X128736038Y-103024729D01*
X128980631Y-102658669D01*
X129149110Y-102251925D01*
X129235000Y-101820128D01*
X129235000Y-101379872D01*
X129149110Y-100948075D01*
X128980631Y-100541331D01*
X128736038Y-100175271D01*
X128424729Y-99863962D01*
X128058669Y-99619369D01*
X127651925Y-99450890D01*
X127220128Y-99365000D01*
X126779872Y-99365000D01*
X126348075Y-99450890D01*
X125941331Y-99619369D01*
X125575271Y-99863962D01*
X125263962Y-100175271D01*
X125019369Y-100541331D01*
X124850890Y-100948075D01*
X124765000Y-101379872D01*
X80210307Y-101379872D01*
X80167932Y-101166842D01*
X80055990Y-100896589D01*
X79893475Y-100653368D01*
X79686632Y-100446525D01*
X79443411Y-100284010D01*
X79173158Y-100172068D01*
X78886260Y-100115000D01*
X78593740Y-100115000D01*
X78306842Y-100172068D01*
X78036589Y-100284010D01*
X77793368Y-100446525D01*
X77586525Y-100653368D01*
X77470000Y-100827760D01*
X77353475Y-100653368D01*
X77146632Y-100446525D01*
X76903411Y-100284010D01*
X76633158Y-100172068D01*
X76346260Y-100115000D01*
X76053740Y-100115000D01*
X75766842Y-100172068D01*
X75496589Y-100284010D01*
X75253368Y-100446525D01*
X75046525Y-100653368D01*
X74930000Y-100827760D01*
X74813475Y-100653368D01*
X74606632Y-100446525D01*
X74363411Y-100284010D01*
X74093158Y-100172068D01*
X73806260Y-100115000D01*
X73513740Y-100115000D01*
X73226842Y-100172068D01*
X72956589Y-100284010D01*
X72713368Y-100446525D01*
X72506525Y-100653368D01*
X72390000Y-100827760D01*
X72273475Y-100653368D01*
X72066632Y-100446525D01*
X71823411Y-100284010D01*
X71553158Y-100172068D01*
X71266260Y-100115000D01*
X70973740Y-100115000D01*
X70686842Y-100172068D01*
X70416589Y-100284010D01*
X70173368Y-100446525D01*
X69966525Y-100653368D01*
X69844805Y-100835534D01*
X69775178Y-100718645D01*
X69580269Y-100502412D01*
X69346920Y-100328359D01*
X69084099Y-100203175D01*
X68936890Y-100158524D01*
X68707000Y-100279845D01*
X68453000Y-100279845D01*
X68223110Y-100158524D01*
X68075901Y-100203175D01*
X67813080Y-100328359D01*
X67579731Y-100502412D01*
X67384822Y-100718645D01*
X67315195Y-100835534D01*
X67193475Y-100653368D01*
X66986632Y-100446525D01*
X66743411Y-100284010D01*
X66473158Y-100172068D01*
X66186260Y-100115000D01*
X65893740Y-100115000D01*
X65606842Y-100172068D01*
X65336589Y-100284010D01*
X65093368Y-100446525D01*
X64961513Y-100578380D01*
X64939502Y-100505820D01*
X64880537Y-100395506D01*
X64801185Y-100298815D01*
X64704494Y-100219463D01*
X64594180Y-100160498D01*
X64474482Y-100124188D01*
X64350000Y-100111928D01*
X62650000Y-100111928D01*
X62525518Y-100124188D01*
X62405820Y-100160498D01*
X62295506Y-100219463D01*
X62198815Y-100298815D01*
X62119463Y-100395506D01*
X62060498Y-100505820D01*
X62024188Y-100625518D01*
X62011928Y-100750000D01*
X52867065Y-100750000D01*
X52780631Y-100541331D01*
X52536038Y-100175271D01*
X52224729Y-99863962D01*
X51858669Y-99619369D01*
X51451925Y-99450890D01*
X51020128Y-99365000D01*
X50579872Y-99365000D01*
X50148075Y-99450890D01*
X49741331Y-99619369D01*
X49375271Y-99863962D01*
X49063962Y-100175271D01*
X48819369Y-100541331D01*
X48650890Y-100948075D01*
X48565000Y-101379872D01*
X43840000Y-101379872D01*
X43840000Y-78410000D01*
X48491928Y-78410000D01*
X48491928Y-80910000D01*
X48504188Y-81034482D01*
X48540498Y-81154180D01*
X48599463Y-81264494D01*
X48678815Y-81361185D01*
X48775506Y-81440537D01*
X48885820Y-81499502D01*
X49005518Y-81535812D01*
X49130000Y-81548072D01*
X51630000Y-81548072D01*
X51754482Y-81535812D01*
X51874180Y-81499502D01*
X51984494Y-81440537D01*
X52081185Y-81361185D01*
X52160537Y-81264494D01*
X52219502Y-81154180D01*
X52255812Y-81034482D01*
X52268072Y-80910000D01*
X52268072Y-78410000D01*
X59491928Y-78410000D01*
X59491928Y-80910000D01*
X59504188Y-81034482D01*
X59540498Y-81154180D01*
X59599463Y-81264494D01*
X59678815Y-81361185D01*
X59775506Y-81440537D01*
X59885820Y-81499502D01*
X60005518Y-81535812D01*
X60130000Y-81548072D01*
X62630000Y-81548072D01*
X62754482Y-81535812D01*
X62874180Y-81499502D01*
X62984494Y-81440537D01*
X63081185Y-81361185D01*
X63160537Y-81264494D01*
X63219502Y-81154180D01*
X63255812Y-81034482D01*
X63268072Y-80910000D01*
X63268072Y-80739500D01*
X65242198Y-80739500D01*
X65272986Y-80777015D01*
X65314175Y-80810818D01*
X65314176Y-80810819D01*
X65314181Y-80810823D01*
X66509178Y-82005821D01*
X66542985Y-82047015D01*
X66707360Y-82181914D01*
X66894894Y-82282153D01*
X67098381Y-82343880D01*
X67256971Y-82359500D01*
X67256978Y-82359500D01*
X67309999Y-82364722D01*
X67363021Y-82359500D01*
X84642858Y-82359500D01*
X85139290Y-82855933D01*
X85088992Y-83021745D01*
X85071928Y-83194999D01*
X85071928Y-84445001D01*
X85088992Y-84618255D01*
X85139528Y-84784851D01*
X85221595Y-84938387D01*
X85332038Y-85072962D01*
X85466613Y-85183405D01*
X85620149Y-85265472D01*
X85786745Y-85316008D01*
X85959999Y-85333072D01*
X86760001Y-85333072D01*
X86933255Y-85316008D01*
X87099851Y-85265472D01*
X87253387Y-85183405D01*
X87387962Y-85072962D01*
X87498405Y-84938387D01*
X87580472Y-84784851D01*
X87631008Y-84618255D01*
X87648072Y-84445001D01*
X87648072Y-83194999D01*
X88171928Y-83194999D01*
X88171928Y-84445001D01*
X88188992Y-84618255D01*
X88239528Y-84784851D01*
X88321595Y-84938387D01*
X88432038Y-85072962D01*
X88566613Y-85183405D01*
X88720149Y-85265472D01*
X88886745Y-85316008D01*
X89059999Y-85333072D01*
X89860001Y-85333072D01*
X90033255Y-85316008D01*
X90199851Y-85265472D01*
X90353387Y-85183405D01*
X90487962Y-85072962D01*
X90598405Y-84938387D01*
X90619191Y-84899500D01*
X117204471Y-84899500D01*
X117257500Y-84904723D01*
X117310529Y-84899500D01*
X117469119Y-84883880D01*
X117672606Y-84822153D01*
X117860140Y-84721914D01*
X118024515Y-84587015D01*
X118058327Y-84545815D01*
X120446071Y-82158072D01*
X120895000Y-82158072D01*
X121068254Y-82141008D01*
X121234850Y-82090472D01*
X121388386Y-82008405D01*
X121522962Y-81897962D01*
X121633405Y-81763386D01*
X121715472Y-81609850D01*
X121766008Y-81443254D01*
X121783072Y-81270000D01*
X121783072Y-80020000D01*
X122056928Y-80020000D01*
X122056928Y-81270000D01*
X122073992Y-81443254D01*
X122124528Y-81609850D01*
X122206595Y-81763386D01*
X122317038Y-81897962D01*
X122451614Y-82008405D01*
X122605150Y-82090472D01*
X122771746Y-82141008D01*
X122945000Y-82158072D01*
X123870000Y-82158072D01*
X124043254Y-82141008D01*
X124209850Y-82090472D01*
X124363386Y-82008405D01*
X124497962Y-81897962D01*
X124608405Y-81763386D01*
X124690472Y-81609850D01*
X124741008Y-81443254D01*
X124758072Y-81270000D01*
X124758072Y-81238570D01*
X127725821Y-78270822D01*
X127767015Y-78237015D01*
X127901914Y-78072640D01*
X128002153Y-77885106D01*
X128063880Y-77681619D01*
X128079500Y-77523029D01*
X128079500Y-77523022D01*
X128084722Y-77470001D01*
X128079500Y-77416979D01*
X128079500Y-65557306D01*
X128194171Y-65417579D01*
X128301885Y-65216060D01*
X128368215Y-64997400D01*
X128390612Y-64770000D01*
X128368215Y-64542600D01*
X128301885Y-64323940D01*
X128200895Y-64135000D01*
X128301885Y-63946060D01*
X128368215Y-63727400D01*
X128390612Y-63500000D01*
X128368215Y-63272600D01*
X128304907Y-63063902D01*
X128339502Y-62999180D01*
X128375812Y-62879482D01*
X128388072Y-62755000D01*
X128385000Y-62515750D01*
X128226250Y-62357000D01*
X127453109Y-62357000D01*
X127452400Y-62356785D01*
X127281979Y-62340000D01*
X126718021Y-62340000D01*
X126547600Y-62356785D01*
X126546891Y-62357000D01*
X125773750Y-62357000D01*
X125615000Y-62515750D01*
X125611928Y-62755000D01*
X125624188Y-62879482D01*
X125660498Y-62999180D01*
X125695093Y-63063902D01*
X125631785Y-63272600D01*
X125609388Y-63500000D01*
X125631785Y-63727400D01*
X125698115Y-63946060D01*
X125799105Y-64135000D01*
X125698115Y-64323940D01*
X125631785Y-64542600D01*
X125609388Y-64770000D01*
X125631785Y-64997400D01*
X125698115Y-65216060D01*
X125805829Y-65417579D01*
X125920501Y-65557307D01*
X125920500Y-77022857D01*
X123811430Y-79131928D01*
X122945000Y-79131928D01*
X122771746Y-79148992D01*
X122605150Y-79199528D01*
X122451614Y-79281595D01*
X122317038Y-79392038D01*
X122206595Y-79526614D01*
X122124528Y-79680150D01*
X122073992Y-79846746D01*
X122056928Y-80020000D01*
X121783072Y-80020000D01*
X121766008Y-79846746D01*
X121715472Y-79680150D01*
X121633405Y-79526614D01*
X121522962Y-79392038D01*
X121388386Y-79281595D01*
X121234850Y-79199528D01*
X121068254Y-79148992D01*
X120895000Y-79131928D01*
X119970000Y-79131928D01*
X119796746Y-79148992D01*
X119630150Y-79199528D01*
X119476614Y-79281595D01*
X119342038Y-79392038D01*
X119231595Y-79526614D01*
X119149528Y-79680150D01*
X119098992Y-79846746D01*
X119081928Y-80020000D01*
X119081928Y-80468929D01*
X116810358Y-82740500D01*
X90619191Y-82740500D01*
X90598405Y-82701613D01*
X90487962Y-82567038D01*
X90353387Y-82456595D01*
X90199851Y-82374528D01*
X90033255Y-82323992D01*
X89860001Y-82306928D01*
X89059999Y-82306928D01*
X88886745Y-82323992D01*
X88720149Y-82374528D01*
X88566613Y-82456595D01*
X88432038Y-82567038D01*
X88321595Y-82701613D01*
X88239528Y-82855149D01*
X88188992Y-83021745D01*
X88171928Y-83194999D01*
X87648072Y-83194999D01*
X87631008Y-83021745D01*
X87580472Y-82855149D01*
X87498405Y-82701613D01*
X87439500Y-82629837D01*
X87439500Y-82603021D01*
X87444722Y-82549999D01*
X87439500Y-82496978D01*
X87439500Y-82496971D01*
X87423880Y-82338381D01*
X87362153Y-82134894D01*
X87261914Y-81947360D01*
X87127015Y-81782985D01*
X87085821Y-81749178D01*
X86616643Y-81280000D01*
X87085821Y-80810822D01*
X87127015Y-80777015D01*
X87261914Y-80612640D01*
X87362153Y-80425106D01*
X87423880Y-80221619D01*
X87439500Y-80063029D01*
X87439500Y-80063022D01*
X87444722Y-80010001D01*
X87439500Y-79956979D01*
X87439500Y-79930163D01*
X87498405Y-79858387D01*
X87580472Y-79704851D01*
X87631008Y-79538255D01*
X87648072Y-79365001D01*
X87648072Y-78114999D01*
X87631008Y-77941745D01*
X87580472Y-77775149D01*
X87498405Y-77621613D01*
X87387962Y-77487038D01*
X87253387Y-77376595D01*
X87099851Y-77294528D01*
X87050310Y-77279500D01*
X88769690Y-77279500D01*
X88720149Y-77294528D01*
X88566613Y-77376595D01*
X88432038Y-77487038D01*
X88321595Y-77621613D01*
X88239528Y-77775149D01*
X88188992Y-77941745D01*
X88171928Y-78114999D01*
X88171928Y-79365001D01*
X88188992Y-79538255D01*
X88239528Y-79704851D01*
X88321595Y-79858387D01*
X88432038Y-79992962D01*
X88566613Y-80103405D01*
X88720149Y-80185472D01*
X88886745Y-80236008D01*
X89059999Y-80253072D01*
X89860001Y-80253072D01*
X90033255Y-80236008D01*
X90199851Y-80185472D01*
X90353387Y-80103405D01*
X90487962Y-79992962D01*
X90598405Y-79858387D01*
X90619191Y-79819500D01*
X108555358Y-79819500D01*
X109556928Y-80821071D01*
X109556928Y-81270000D01*
X109573992Y-81443254D01*
X109624528Y-81609850D01*
X109706595Y-81763386D01*
X109817038Y-81897962D01*
X109951614Y-82008405D01*
X110105150Y-82090472D01*
X110271746Y-82141008D01*
X110445000Y-82158072D01*
X111370000Y-82158072D01*
X111543254Y-82141008D01*
X111709850Y-82090472D01*
X111863386Y-82008405D01*
X111997962Y-81897962D01*
X112108405Y-81763386D01*
X112190472Y-81609850D01*
X112217727Y-81520000D01*
X112531928Y-81520000D01*
X112544188Y-81644482D01*
X112580498Y-81764180D01*
X112639463Y-81874494D01*
X112718815Y-81971185D01*
X112815506Y-82050537D01*
X112925820Y-82109502D01*
X113045518Y-82145812D01*
X113170000Y-82158072D01*
X113596750Y-82155000D01*
X113755500Y-81996250D01*
X113755500Y-80772000D01*
X114009500Y-80772000D01*
X114009500Y-81996250D01*
X114168250Y-82155000D01*
X114595000Y-82158072D01*
X114719482Y-82145812D01*
X114839180Y-82109502D01*
X114949494Y-82050537D01*
X115046185Y-81971185D01*
X115125537Y-81874494D01*
X115184502Y-81764180D01*
X115220812Y-81644482D01*
X115233072Y-81520000D01*
X115230000Y-80930750D01*
X115071250Y-80772000D01*
X114009500Y-80772000D01*
X113755500Y-80772000D01*
X112693750Y-80772000D01*
X112535000Y-80930750D01*
X112531928Y-81520000D01*
X112217727Y-81520000D01*
X112241008Y-81443254D01*
X112258072Y-81270000D01*
X112258072Y-80020000D01*
X112241008Y-79846746D01*
X112217728Y-79770000D01*
X112531928Y-79770000D01*
X112535000Y-80359250D01*
X112693750Y-80518000D01*
X113755500Y-80518000D01*
X113755500Y-79293750D01*
X114009500Y-79293750D01*
X114009500Y-80518000D01*
X115071250Y-80518000D01*
X115230000Y-80359250D01*
X115233072Y-79770000D01*
X115220812Y-79645518D01*
X115184502Y-79525820D01*
X115125537Y-79415506D01*
X115046185Y-79318815D01*
X114949494Y-79239463D01*
X114839180Y-79180498D01*
X114719482Y-79144188D01*
X114595000Y-79131928D01*
X114168250Y-79135000D01*
X114009500Y-79293750D01*
X113755500Y-79293750D01*
X113596750Y-79135000D01*
X113170000Y-79131928D01*
X113045518Y-79144188D01*
X112925820Y-79180498D01*
X112815506Y-79239463D01*
X112718815Y-79318815D01*
X112639463Y-79415506D01*
X112580498Y-79525820D01*
X112544188Y-79645518D01*
X112531928Y-79770000D01*
X112217728Y-79770000D01*
X112190472Y-79680150D01*
X112108405Y-79526614D01*
X111997962Y-79392038D01*
X111863386Y-79281595D01*
X111709850Y-79199528D01*
X111543254Y-79148992D01*
X111370000Y-79131928D01*
X110921071Y-79131928D01*
X109803326Y-78014184D01*
X109769515Y-77972985D01*
X109605140Y-77838086D01*
X109417606Y-77737847D01*
X109214119Y-77676120D01*
X109055529Y-77660500D01*
X109002500Y-77655277D01*
X108949471Y-77660500D01*
X90619191Y-77660500D01*
X90598405Y-77621613D01*
X90487962Y-77487038D01*
X90353387Y-77376595D01*
X90199851Y-77294528D01*
X90150310Y-77279500D01*
X114246971Y-77279500D01*
X114300000Y-77284723D01*
X114353029Y-77279500D01*
X114511619Y-77263880D01*
X114715106Y-77202153D01*
X114902640Y-77101914D01*
X115067015Y-76967015D01*
X115100827Y-76925815D01*
X117565821Y-74460822D01*
X117607015Y-74427015D01*
X117741914Y-74262640D01*
X117842153Y-74075106D01*
X117903880Y-73871619D01*
X117919500Y-73713029D01*
X117919500Y-73713022D01*
X117924722Y-73660001D01*
X117919500Y-73606979D01*
X117919500Y-69903021D01*
X117924722Y-69849999D01*
X117919500Y-69796978D01*
X117919500Y-69796971D01*
X117903880Y-69638381D01*
X117842153Y-69434894D01*
X117741914Y-69247360D01*
X117607015Y-69082985D01*
X117565821Y-69049178D01*
X116370826Y-67854184D01*
X116337015Y-67812985D01*
X116172640Y-67678086D01*
X115985106Y-67577847D01*
X115781619Y-67516120D01*
X115623029Y-67500500D01*
X115570000Y-67495277D01*
X115516971Y-67500500D01*
X108003021Y-67500500D01*
X107949999Y-67495278D01*
X107896978Y-67500500D01*
X107896971Y-67500500D01*
X107738381Y-67516120D01*
X107534894Y-67577847D01*
X107347360Y-67678086D01*
X107182985Y-67812985D01*
X107149178Y-67854179D01*
X105954184Y-69049174D01*
X105912985Y-69082985D01*
X105778086Y-69247360D01*
X105677847Y-69434895D01*
X105663584Y-69481914D01*
X105616120Y-69638382D01*
X105595277Y-69850000D01*
X105596169Y-69859053D01*
X105553813Y-69893813D01*
X105410000Y-70069050D01*
X105266187Y-69893813D01*
X105024839Y-69695744D01*
X104749488Y-69548566D01*
X104450714Y-69457934D01*
X104140000Y-69427331D01*
X103829287Y-69457934D01*
X103530513Y-69548566D01*
X103255162Y-69695744D01*
X103013813Y-69893813D01*
X102870000Y-70069050D01*
X102726187Y-69893813D01*
X102484839Y-69695744D01*
X102209488Y-69548566D01*
X101910714Y-69457934D01*
X101600000Y-69427331D01*
X101289287Y-69457934D01*
X100990513Y-69548566D01*
X100715162Y-69695744D01*
X100473813Y-69893813D01*
X100330000Y-70069050D01*
X100186187Y-69893813D01*
X99944839Y-69695744D01*
X99669488Y-69548566D01*
X99370714Y-69457934D01*
X99060000Y-69427331D01*
X98749287Y-69457934D01*
X98450513Y-69548566D01*
X98175162Y-69695744D01*
X97933813Y-69893813D01*
X97790000Y-70069050D01*
X97646187Y-69893813D01*
X97603830Y-69859052D01*
X97604722Y-69849999D01*
X97599500Y-69796978D01*
X97599500Y-69796971D01*
X97583880Y-69638381D01*
X97522153Y-69434894D01*
X97421914Y-69247360D01*
X97287015Y-69082985D01*
X97245821Y-69049178D01*
X96050826Y-67854184D01*
X96017015Y-67812985D01*
X95852640Y-67678086D01*
X95665106Y-67577847D01*
X95461619Y-67516120D01*
X95303029Y-67500500D01*
X95250000Y-67495277D01*
X95196971Y-67500500D01*
X74983029Y-67500500D01*
X74930000Y-67495277D01*
X74876971Y-67500500D01*
X74718381Y-67516120D01*
X74514894Y-67577847D01*
X74327360Y-67678086D01*
X74162985Y-67812985D01*
X74129182Y-67854174D01*
X72374180Y-69609178D01*
X72332986Y-69642985D01*
X72198087Y-69807360D01*
X72151877Y-69893813D01*
X72097847Y-69994896D01*
X72036120Y-70198382D01*
X72015277Y-70410000D01*
X72020501Y-70463039D01*
X72020500Y-72469837D01*
X71961595Y-72541613D01*
X71879528Y-72695149D01*
X71828992Y-72861745D01*
X71811928Y-73034999D01*
X71811928Y-74285001D01*
X71828992Y-74458255D01*
X71879528Y-74624851D01*
X71961595Y-74778387D01*
X72020501Y-74850164D01*
X72020500Y-77549837D01*
X71961595Y-77621613D01*
X71879528Y-77775149D01*
X71828992Y-77941745D01*
X71811928Y-78114999D01*
X71811928Y-79365001D01*
X71828992Y-79538255D01*
X71879528Y-79704851D01*
X71961595Y-79858387D01*
X72072038Y-79992962D01*
X72206613Y-80103405D01*
X72360149Y-80185472D01*
X72409690Y-80200500D01*
X70125938Y-80200500D01*
X70181994Y-80170537D01*
X70278685Y-80091185D01*
X70358037Y-79994494D01*
X70417002Y-79884180D01*
X70453312Y-79764482D01*
X70465572Y-79640000D01*
X70462500Y-79025750D01*
X70303750Y-78867000D01*
X69292000Y-78867000D01*
X69292000Y-78887000D01*
X69038000Y-78887000D01*
X69038000Y-78867000D01*
X68026250Y-78867000D01*
X67867500Y-79025750D01*
X67864428Y-79640000D01*
X67876688Y-79764482D01*
X67912998Y-79884180D01*
X67971963Y-79994494D01*
X68051315Y-80091185D01*
X68148006Y-80170537D01*
X68204062Y-80200500D01*
X67757143Y-80200500D01*
X67276119Y-79719477D01*
X67323508Y-79563257D01*
X67340572Y-79390003D01*
X67340572Y-78089997D01*
X67323508Y-77916743D01*
X67300229Y-77840000D01*
X67864428Y-77840000D01*
X67867500Y-78454250D01*
X68026250Y-78613000D01*
X69038000Y-78613000D01*
X69038000Y-77363750D01*
X69292000Y-77363750D01*
X69292000Y-78613000D01*
X70303750Y-78613000D01*
X70462500Y-78454250D01*
X70465572Y-77840000D01*
X70453312Y-77715518D01*
X70417002Y-77595820D01*
X70358037Y-77485506D01*
X70278685Y-77388815D01*
X70181994Y-77309463D01*
X70071680Y-77250498D01*
X69951982Y-77214188D01*
X69827500Y-77201928D01*
X69450750Y-77205000D01*
X69292000Y-77363750D01*
X69038000Y-77363750D01*
X68879250Y-77205000D01*
X68502500Y-77201928D01*
X68378018Y-77214188D01*
X68258320Y-77250498D01*
X68148006Y-77309463D01*
X68051315Y-77388815D01*
X67971963Y-77485506D01*
X67912998Y-77595820D01*
X67876688Y-77715518D01*
X67864428Y-77840000D01*
X67300229Y-77840000D01*
X67272972Y-77750148D01*
X67190905Y-77596612D01*
X67119500Y-77509604D01*
X67119500Y-76146971D01*
X67103880Y-75988381D01*
X67042153Y-75784894D01*
X66941914Y-75597360D01*
X66807015Y-75432985D01*
X66642640Y-75298086D01*
X66455106Y-75197847D01*
X66251619Y-75136120D01*
X66040000Y-75115277D01*
X65828382Y-75136120D01*
X65624895Y-75197847D01*
X65437361Y-75298086D01*
X65272986Y-75432985D01*
X65138087Y-75597360D01*
X65037848Y-75784894D01*
X64976121Y-75988381D01*
X64960501Y-76146971D01*
X64960500Y-77509603D01*
X64889095Y-77596612D01*
X64807028Y-77750148D01*
X64756492Y-77916743D01*
X64739428Y-78089997D01*
X64739428Y-78580500D01*
X63268072Y-78580500D01*
X63268072Y-78410000D01*
X63255812Y-78285518D01*
X63219502Y-78165820D01*
X63160537Y-78055506D01*
X63081185Y-77958815D01*
X62984494Y-77879463D01*
X62874180Y-77820498D01*
X62754482Y-77784188D01*
X62630000Y-77771928D01*
X60130000Y-77771928D01*
X60005518Y-77784188D01*
X59885820Y-77820498D01*
X59775506Y-77879463D01*
X59678815Y-77958815D01*
X59599463Y-78055506D01*
X59540498Y-78165820D01*
X59504188Y-78285518D01*
X59491928Y-78410000D01*
X52268072Y-78410000D01*
X52255812Y-78285518D01*
X52219502Y-78165820D01*
X52160537Y-78055506D01*
X52081185Y-77958815D01*
X51984494Y-77879463D01*
X51874180Y-77820498D01*
X51754482Y-77784188D01*
X51630000Y-77771928D01*
X49130000Y-77771928D01*
X49005518Y-77784188D01*
X48885820Y-77820498D01*
X48775506Y-77879463D01*
X48678815Y-77958815D01*
X48599463Y-78055506D01*
X48540498Y-78165820D01*
X48504188Y-78285518D01*
X48491928Y-78410000D01*
X43840000Y-78410000D01*
X43840000Y-66410000D01*
X48491928Y-66410000D01*
X48491928Y-68910000D01*
X48504188Y-69034482D01*
X48540498Y-69154180D01*
X48599463Y-69264494D01*
X48678815Y-69361185D01*
X48775506Y-69440537D01*
X48885820Y-69499502D01*
X49005518Y-69535812D01*
X49130000Y-69548072D01*
X51630000Y-69548072D01*
X51754482Y-69535812D01*
X51874180Y-69499502D01*
X51984494Y-69440537D01*
X52081185Y-69361185D01*
X52160537Y-69264494D01*
X52219502Y-69154180D01*
X52255812Y-69034482D01*
X52268072Y-68910000D01*
X59491928Y-68910000D01*
X59504188Y-69034482D01*
X59540498Y-69154180D01*
X59599463Y-69264494D01*
X59678815Y-69361185D01*
X59775506Y-69440537D01*
X59885820Y-69499502D01*
X60005518Y-69535812D01*
X60130000Y-69548072D01*
X61094250Y-69545000D01*
X61253000Y-69386250D01*
X61253000Y-67787000D01*
X61507000Y-67787000D01*
X61507000Y-69386250D01*
X61665750Y-69545000D01*
X62630000Y-69548072D01*
X62754482Y-69535812D01*
X62874180Y-69499502D01*
X62984494Y-69440537D01*
X63081185Y-69361185D01*
X63160537Y-69264494D01*
X63219502Y-69154180D01*
X63255812Y-69034482D01*
X63268072Y-68910000D01*
X63265000Y-67945750D01*
X63106250Y-67787000D01*
X61507000Y-67787000D01*
X61253000Y-67787000D01*
X59653750Y-67787000D01*
X59495000Y-67945750D01*
X59491928Y-68910000D01*
X52268072Y-68910000D01*
X52268072Y-66410000D01*
X59491928Y-66410000D01*
X59495000Y-67374250D01*
X59653750Y-67533000D01*
X61253000Y-67533000D01*
X61253000Y-65933750D01*
X61507000Y-65933750D01*
X61507000Y-67533000D01*
X63106250Y-67533000D01*
X63265000Y-67374250D01*
X63268072Y-66410000D01*
X63255812Y-66285518D01*
X63219502Y-66165820D01*
X63160537Y-66055506D01*
X63081185Y-65958815D01*
X62984494Y-65879463D01*
X62874180Y-65820498D01*
X62754482Y-65784188D01*
X62630000Y-65771928D01*
X61665750Y-65775000D01*
X61507000Y-65933750D01*
X61253000Y-65933750D01*
X61094250Y-65775000D01*
X60130000Y-65771928D01*
X60005518Y-65784188D01*
X59885820Y-65820498D01*
X59775506Y-65879463D01*
X59678815Y-65958815D01*
X59599463Y-66055506D01*
X59540498Y-66165820D01*
X59504188Y-66285518D01*
X59491928Y-66410000D01*
X52268072Y-66410000D01*
X52255812Y-66285518D01*
X52219502Y-66165820D01*
X52160537Y-66055506D01*
X52081185Y-65958815D01*
X51984494Y-65879463D01*
X51874180Y-65820498D01*
X51754482Y-65784188D01*
X51630000Y-65771928D01*
X51459500Y-65771928D01*
X51459500Y-63181849D01*
X51475228Y-63130000D01*
X52039428Y-63130000D01*
X52051688Y-63254482D01*
X52087998Y-63374180D01*
X52146963Y-63484494D01*
X52226315Y-63581185D01*
X52323006Y-63660537D01*
X52433320Y-63719502D01*
X52553018Y-63755812D01*
X52677500Y-63768072D01*
X53054250Y-63765000D01*
X53213000Y-63606250D01*
X53213000Y-62357000D01*
X53467000Y-62357000D01*
X53467000Y-63606250D01*
X53625750Y-63765000D01*
X54002500Y-63768072D01*
X54126982Y-63755812D01*
X54246680Y-63719502D01*
X54356994Y-63660537D01*
X54453685Y-63581185D01*
X54533037Y-63484494D01*
X54592002Y-63374180D01*
X54628312Y-63254482D01*
X54640572Y-63130000D01*
X54637500Y-62515750D01*
X54478750Y-62357000D01*
X53467000Y-62357000D01*
X53213000Y-62357000D01*
X52201250Y-62357000D01*
X52042500Y-62515750D01*
X52039428Y-63130000D01*
X51475228Y-63130000D01*
X51498508Y-63053257D01*
X51515572Y-62880003D01*
X51515572Y-61579997D01*
X51498508Y-61406743D01*
X51475229Y-61330000D01*
X52039428Y-61330000D01*
X52042500Y-61944250D01*
X52201250Y-62103000D01*
X53213000Y-62103000D01*
X53213000Y-60853750D01*
X53467000Y-60853750D01*
X53467000Y-62103000D01*
X54478750Y-62103000D01*
X54637500Y-61944250D01*
X54638696Y-61705000D01*
X125611928Y-61705000D01*
X125615000Y-61944250D01*
X125773750Y-62103000D01*
X126873000Y-62103000D01*
X126873000Y-61228750D01*
X127127000Y-61228750D01*
X127127000Y-62103000D01*
X128226250Y-62103000D01*
X128385000Y-61944250D01*
X128388072Y-61705000D01*
X128375812Y-61580518D01*
X128339502Y-61460820D01*
X128280537Y-61350506D01*
X128201185Y-61253815D01*
X128104494Y-61174463D01*
X127994180Y-61115498D01*
X127874482Y-61079188D01*
X127750000Y-61066928D01*
X127285750Y-61070000D01*
X127127000Y-61228750D01*
X126873000Y-61228750D01*
X126714250Y-61070000D01*
X126250000Y-61066928D01*
X126125518Y-61079188D01*
X126005820Y-61115498D01*
X125895506Y-61174463D01*
X125798815Y-61253815D01*
X125719463Y-61350506D01*
X125660498Y-61460820D01*
X125624188Y-61580518D01*
X125611928Y-61705000D01*
X54638696Y-61705000D01*
X54640572Y-61330000D01*
X54628312Y-61205518D01*
X54592002Y-61085820D01*
X54533037Y-60975506D01*
X54453685Y-60878815D01*
X54356994Y-60799463D01*
X54246680Y-60740498D01*
X54126982Y-60704188D01*
X54002500Y-60691928D01*
X53625750Y-60695000D01*
X53467000Y-60853750D01*
X53213000Y-60853750D01*
X53054250Y-60695000D01*
X52677500Y-60691928D01*
X52553018Y-60704188D01*
X52433320Y-60740498D01*
X52323006Y-60799463D01*
X52226315Y-60878815D01*
X52146963Y-60975506D01*
X52087998Y-61085820D01*
X52051688Y-61205518D01*
X52039428Y-61330000D01*
X51475229Y-61330000D01*
X51447972Y-61240148D01*
X51365905Y-61086612D01*
X51294500Y-60999604D01*
X51294500Y-59452142D01*
X56327144Y-54419500D01*
X61111928Y-54419500D01*
X61111928Y-55090000D01*
X61124188Y-55214482D01*
X61160498Y-55334180D01*
X61219463Y-55444494D01*
X61298815Y-55541185D01*
X61395506Y-55620537D01*
X61505820Y-55679502D01*
X61625518Y-55715812D01*
X61750000Y-55728072D01*
X65250000Y-55728072D01*
X65374482Y-55715812D01*
X65494180Y-55679502D01*
X65604494Y-55620537D01*
X65701185Y-55541185D01*
X65780537Y-55444494D01*
X65839502Y-55334180D01*
X65875812Y-55214482D01*
X65888072Y-55090000D01*
X65888072Y-52540000D01*
X72221928Y-52540000D01*
X72221928Y-54140000D01*
X72234188Y-54264482D01*
X72270498Y-54384180D01*
X72329463Y-54494494D01*
X72408815Y-54591185D01*
X72505506Y-54670537D01*
X72615820Y-54729502D01*
X72735518Y-54765812D01*
X72860000Y-54778072D01*
X74460000Y-54778072D01*
X74584482Y-54765812D01*
X74704180Y-54729502D01*
X74814494Y-54670537D01*
X74911185Y-54591185D01*
X74990537Y-54494494D01*
X75049502Y-54384180D01*
X75065117Y-54332702D01*
X75346903Y-54332702D01*
X75418486Y-54576671D01*
X75673996Y-54697571D01*
X75948184Y-54766300D01*
X76230512Y-54780217D01*
X76510130Y-54738787D01*
X76776292Y-54643603D01*
X76901514Y-54576671D01*
X76973097Y-54332702D01*
X76160000Y-53519605D01*
X75346903Y-54332702D01*
X75065117Y-54332702D01*
X75085812Y-54264482D01*
X75098072Y-54140000D01*
X75098072Y-54132785D01*
X75167298Y-54153097D01*
X75980395Y-53340000D01*
X76339605Y-53340000D01*
X77152702Y-54153097D01*
X77396671Y-54081514D01*
X77517571Y-53826004D01*
X77586300Y-53551816D01*
X77600217Y-53269488D01*
X77558787Y-52989870D01*
X77463603Y-52723708D01*
X77396671Y-52598486D01*
X77152702Y-52526903D01*
X76339605Y-53340000D01*
X75980395Y-53340000D01*
X75167298Y-52526903D01*
X75098072Y-52547215D01*
X75098072Y-52540000D01*
X75085812Y-52415518D01*
X75065118Y-52347298D01*
X75346903Y-52347298D01*
X76160000Y-53160395D01*
X76973097Y-52347298D01*
X76901514Y-52103329D01*
X76646004Y-51982429D01*
X76371816Y-51913700D01*
X76089488Y-51899783D01*
X75809870Y-51941213D01*
X75543708Y-52036397D01*
X75418486Y-52103329D01*
X75346903Y-52347298D01*
X75065118Y-52347298D01*
X75049502Y-52295820D01*
X74990537Y-52185506D01*
X74911185Y-52088815D01*
X74814494Y-52009463D01*
X74704180Y-51950498D01*
X74584482Y-51914188D01*
X74460000Y-51901928D01*
X72860000Y-51901928D01*
X72735518Y-51914188D01*
X72615820Y-51950498D01*
X72505506Y-52009463D01*
X72408815Y-52088815D01*
X72329463Y-52185506D01*
X72270498Y-52295820D01*
X72234188Y-52415518D01*
X72221928Y-52540000D01*
X65888072Y-52540000D01*
X65888072Y-51590000D01*
X65875812Y-51465518D01*
X65839502Y-51345820D01*
X65780537Y-51235506D01*
X65730428Y-51174447D01*
X89879805Y-51174447D01*
X89963326Y-51473553D01*
X90103595Y-51750617D01*
X90295221Y-51994992D01*
X90530840Y-52197287D01*
X90801397Y-52349728D01*
X91067412Y-52440586D01*
X91313000Y-52320584D01*
X91313000Y-50927000D01*
X90014831Y-50927000D01*
X89879805Y-51174447D01*
X65730428Y-51174447D01*
X65701185Y-51138815D01*
X65604494Y-51059463D01*
X65494180Y-51000498D01*
X65374482Y-50964188D01*
X65250000Y-50951928D01*
X61750000Y-50951928D01*
X61625518Y-50964188D01*
X61505820Y-51000498D01*
X61395506Y-51059463D01*
X61298815Y-51138815D01*
X61219463Y-51235506D01*
X61178506Y-51312131D01*
X61188072Y-51215000D01*
X61188072Y-50425553D01*
X89879805Y-50425553D01*
X90014831Y-50673000D01*
X91313000Y-50673000D01*
X91313000Y-49279416D01*
X91567000Y-49279416D01*
X91567000Y-50673000D01*
X91587000Y-50673000D01*
X91587000Y-50927000D01*
X91567000Y-50927000D01*
X91567000Y-52320584D01*
X91812588Y-52440586D01*
X92078603Y-52349728D01*
X92349160Y-52197287D01*
X92584779Y-51994992D01*
X92703725Y-51843303D01*
X92853813Y-52026187D01*
X93095161Y-52224256D01*
X93370512Y-52371434D01*
X93669286Y-52462066D01*
X93980000Y-52492669D01*
X94290713Y-52462066D01*
X94589487Y-52371434D01*
X94864838Y-52224256D01*
X95106187Y-52026187D01*
X95250000Y-51850950D01*
X95393813Y-52026187D01*
X95635161Y-52224256D01*
X95910512Y-52371434D01*
X96209286Y-52462066D01*
X96520000Y-52492669D01*
X96830713Y-52462066D01*
X97129487Y-52371434D01*
X97404838Y-52224256D01*
X97646187Y-52026187D01*
X97790000Y-51850950D01*
X97933813Y-52026187D01*
X98175161Y-52224256D01*
X98450512Y-52371434D01*
X98749286Y-52462066D01*
X99060000Y-52492669D01*
X99370713Y-52462066D01*
X99669487Y-52371434D01*
X99944838Y-52224256D01*
X100186187Y-52026187D01*
X100330000Y-51850950D01*
X100473813Y-52026187D01*
X100715161Y-52224256D01*
X100990512Y-52371434D01*
X101289286Y-52462066D01*
X101600000Y-52492669D01*
X101910713Y-52462066D01*
X102209487Y-52371434D01*
X102484838Y-52224256D01*
X102726187Y-52026187D01*
X102870000Y-51850950D01*
X103013813Y-52026187D01*
X103255161Y-52224256D01*
X103530512Y-52371434D01*
X103829286Y-52462066D01*
X104140000Y-52492669D01*
X104450713Y-52462066D01*
X104749487Y-52371434D01*
X105024838Y-52224256D01*
X105266187Y-52026187D01*
X105410000Y-51850950D01*
X105553813Y-52026187D01*
X105795161Y-52224256D01*
X106070512Y-52371434D01*
X106369286Y-52462066D01*
X106680000Y-52492669D01*
X106990713Y-52462066D01*
X107289487Y-52371434D01*
X107564838Y-52224256D01*
X107806187Y-52026187D01*
X107950000Y-51850950D01*
X108093813Y-52026187D01*
X108335161Y-52224256D01*
X108610512Y-52371434D01*
X108909286Y-52462066D01*
X109220000Y-52492669D01*
X109530713Y-52462066D01*
X109829487Y-52371434D01*
X110104838Y-52224256D01*
X110346187Y-52026187D01*
X110490000Y-51850950D01*
X110633813Y-52026187D01*
X110875161Y-52224256D01*
X111150512Y-52371434D01*
X111449286Y-52462066D01*
X111760000Y-52492669D01*
X112070713Y-52462066D01*
X112369487Y-52371434D01*
X112644838Y-52224256D01*
X112773560Y-52118617D01*
X112819463Y-52204494D01*
X112898815Y-52301185D01*
X112995506Y-52380537D01*
X113105820Y-52439502D01*
X113225518Y-52475812D01*
X113350000Y-52488072D01*
X115250000Y-52488072D01*
X115374482Y-52475812D01*
X115494180Y-52439502D01*
X115604494Y-52380537D01*
X115701185Y-52301185D01*
X115780537Y-52204494D01*
X115839502Y-52094180D01*
X115875812Y-51974482D01*
X115888072Y-51850000D01*
X115888072Y-50579872D01*
X124765000Y-50579872D01*
X124765000Y-51020128D01*
X124850890Y-51451925D01*
X125019369Y-51858669D01*
X125263962Y-52224729D01*
X125575271Y-52536038D01*
X125941331Y-52780631D01*
X126348075Y-52949110D01*
X126779872Y-53035000D01*
X127220128Y-53035000D01*
X127651925Y-52949110D01*
X128058669Y-52780631D01*
X128424729Y-52536038D01*
X128736038Y-52224729D01*
X128980631Y-51858669D01*
X129149110Y-51451925D01*
X129235000Y-51020128D01*
X129235000Y-50579872D01*
X129149110Y-50148075D01*
X128980631Y-49741331D01*
X128736038Y-49375271D01*
X128424729Y-49063962D01*
X128058669Y-48819369D01*
X127651925Y-48650890D01*
X127220128Y-48565000D01*
X126779872Y-48565000D01*
X126348075Y-48650890D01*
X125941331Y-48819369D01*
X125575271Y-49063962D01*
X125263962Y-49375271D01*
X125019369Y-49741331D01*
X124850890Y-50148075D01*
X124765000Y-50579872D01*
X115888072Y-50579872D01*
X115888072Y-49750000D01*
X115875812Y-49625518D01*
X115839502Y-49505820D01*
X115780537Y-49395506D01*
X115701185Y-49298815D01*
X115604494Y-49219463D01*
X115494180Y-49160498D01*
X115374482Y-49124188D01*
X115250000Y-49111928D01*
X113350000Y-49111928D01*
X113225518Y-49124188D01*
X113105820Y-49160498D01*
X112995506Y-49219463D01*
X112898815Y-49298815D01*
X112819463Y-49395506D01*
X112773560Y-49481383D01*
X112644839Y-49375744D01*
X112369488Y-49228566D01*
X112070714Y-49137934D01*
X111760000Y-49107331D01*
X111449287Y-49137934D01*
X111150513Y-49228566D01*
X110875162Y-49375744D01*
X110633813Y-49573813D01*
X110490000Y-49749050D01*
X110346187Y-49573813D01*
X110104839Y-49375744D01*
X109829488Y-49228566D01*
X109530714Y-49137934D01*
X109220000Y-49107331D01*
X108909287Y-49137934D01*
X108610513Y-49228566D01*
X108335162Y-49375744D01*
X108093813Y-49573813D01*
X107950000Y-49749050D01*
X107806187Y-49573813D01*
X107564839Y-49375744D01*
X107289488Y-49228566D01*
X106990714Y-49137934D01*
X106680000Y-49107331D01*
X106369287Y-49137934D01*
X106070513Y-49228566D01*
X105795162Y-49375744D01*
X105553813Y-49573813D01*
X105410000Y-49749050D01*
X105266187Y-49573813D01*
X105024839Y-49375744D01*
X104749488Y-49228566D01*
X104450714Y-49137934D01*
X104140000Y-49107331D01*
X103829287Y-49137934D01*
X103530513Y-49228566D01*
X103255162Y-49375744D01*
X103013813Y-49573813D01*
X102870000Y-49749050D01*
X102726187Y-49573813D01*
X102484839Y-49375744D01*
X102209488Y-49228566D01*
X101910714Y-49137934D01*
X101600000Y-49107331D01*
X101289287Y-49137934D01*
X100990513Y-49228566D01*
X100715162Y-49375744D01*
X100473813Y-49573813D01*
X100330000Y-49749050D01*
X100186187Y-49573813D01*
X99944839Y-49375744D01*
X99669488Y-49228566D01*
X99370714Y-49137934D01*
X99060000Y-49107331D01*
X98749287Y-49137934D01*
X98450513Y-49228566D01*
X98175162Y-49375744D01*
X97933813Y-49573813D01*
X97790000Y-49749050D01*
X97646187Y-49573813D01*
X97404839Y-49375744D01*
X97129488Y-49228566D01*
X96830714Y-49137934D01*
X96520000Y-49107331D01*
X96209287Y-49137934D01*
X95910513Y-49228566D01*
X95635162Y-49375744D01*
X95393813Y-49573813D01*
X95250000Y-49749050D01*
X95106187Y-49573813D01*
X94864839Y-49375744D01*
X94589488Y-49228566D01*
X94290714Y-49137934D01*
X93980000Y-49107331D01*
X93669287Y-49137934D01*
X93370513Y-49228566D01*
X93095162Y-49375744D01*
X92853813Y-49573813D01*
X92703725Y-49756696D01*
X92584779Y-49605008D01*
X92349160Y-49402713D01*
X92078603Y-49250272D01*
X91812588Y-49159414D01*
X91567000Y-49279416D01*
X91313000Y-49279416D01*
X91067412Y-49159414D01*
X90801397Y-49250272D01*
X90530840Y-49402713D01*
X90295221Y-49605008D01*
X90103595Y-49849383D01*
X89963326Y-50126447D01*
X89879805Y-50425553D01*
X61188072Y-50425553D01*
X61188072Y-49465000D01*
X61158999Y-49169814D01*
X61072896Y-48885972D01*
X61048324Y-48840000D01*
X61111928Y-48840000D01*
X61124188Y-48964482D01*
X61160498Y-49084180D01*
X61219463Y-49194494D01*
X61298815Y-49291185D01*
X61395506Y-49370537D01*
X61505820Y-49429502D01*
X61625518Y-49465812D01*
X61750000Y-49478072D01*
X63214250Y-49475000D01*
X63373000Y-49316250D01*
X63373000Y-47467000D01*
X63627000Y-47467000D01*
X63627000Y-49316250D01*
X63785750Y-49475000D01*
X65250000Y-49478072D01*
X65374482Y-49465812D01*
X65494180Y-49429502D01*
X65604494Y-49370537D01*
X65701185Y-49291185D01*
X65780537Y-49194494D01*
X65839502Y-49084180D01*
X65875812Y-48964482D01*
X65888072Y-48840000D01*
X65885000Y-47625750D01*
X65726250Y-47467000D01*
X63627000Y-47467000D01*
X63373000Y-47467000D01*
X61273750Y-47467000D01*
X61115000Y-47625750D01*
X61111928Y-48840000D01*
X61048324Y-48840000D01*
X60933073Y-48624382D01*
X60744903Y-48395097D01*
X60515618Y-48206927D01*
X60254028Y-48067104D01*
X59970186Y-47981001D01*
X59675000Y-47951928D01*
X57925000Y-47951928D01*
X57629814Y-47981001D01*
X57345972Y-48067104D01*
X57084382Y-48206927D01*
X56855097Y-48395097D01*
X56666927Y-48624382D01*
X56527104Y-48885972D01*
X56441001Y-49169814D01*
X56411928Y-49465000D01*
X56411928Y-51215000D01*
X56441001Y-51510186D01*
X56527104Y-51794028D01*
X56666927Y-52055618D01*
X56835070Y-52260500D01*
X55933029Y-52260500D01*
X55880000Y-52255277D01*
X55826971Y-52260500D01*
X55668381Y-52276120D01*
X55464894Y-52337847D01*
X55277360Y-52438086D01*
X55112985Y-52572985D01*
X55079182Y-52614174D01*
X49489180Y-58204178D01*
X49447986Y-58237985D01*
X49313087Y-58402360D01*
X49212848Y-58589894D01*
X49212847Y-58589896D01*
X49151120Y-58793382D01*
X49130277Y-59005000D01*
X49135501Y-59058039D01*
X49135500Y-60999604D01*
X49064095Y-61086612D01*
X48982028Y-61240148D01*
X48931492Y-61406743D01*
X48914428Y-61579997D01*
X48914428Y-62880003D01*
X48931492Y-63053257D01*
X48982028Y-63219852D01*
X49064095Y-63373388D01*
X49174537Y-63507963D01*
X49300501Y-63611338D01*
X49300500Y-65771928D01*
X49130000Y-65771928D01*
X49005518Y-65784188D01*
X48885820Y-65820498D01*
X48775506Y-65879463D01*
X48678815Y-65958815D01*
X48599463Y-66055506D01*
X48540498Y-66165820D01*
X48504188Y-66285518D01*
X48491928Y-66410000D01*
X43840000Y-66410000D01*
X43840000Y-50823920D01*
X43857707Y-50579872D01*
X48565000Y-50579872D01*
X48565000Y-51020128D01*
X48650890Y-51451925D01*
X48819369Y-51858669D01*
X49063962Y-52224729D01*
X49375271Y-52536038D01*
X49741331Y-52780631D01*
X50148075Y-52949110D01*
X50579872Y-53035000D01*
X51020128Y-53035000D01*
X51451925Y-52949110D01*
X51858669Y-52780631D01*
X52224729Y-52536038D01*
X52536038Y-52224729D01*
X52780631Y-51858669D01*
X52949110Y-51451925D01*
X53035000Y-51020128D01*
X53035000Y-50579872D01*
X52949110Y-50148075D01*
X52780631Y-49741331D01*
X52536038Y-49375271D01*
X52224729Y-49063962D01*
X51858669Y-48819369D01*
X51451925Y-48650890D01*
X51020128Y-48565000D01*
X50579872Y-48565000D01*
X50148075Y-48650890D01*
X49741331Y-48819369D01*
X49375271Y-49063962D01*
X49063962Y-49375271D01*
X48819369Y-49741331D01*
X48650890Y-50148075D01*
X48565000Y-50579872D01*
X43857707Y-50579872D01*
X43914617Y-49795530D01*
X44131739Y-48812102D01*
X44488546Y-47870325D01*
X44977575Y-46989905D01*
X45588569Y-46189313D01*
X45945898Y-45840000D01*
X61111928Y-45840000D01*
X61115000Y-47054250D01*
X61273750Y-47213000D01*
X63373000Y-47213000D01*
X63373000Y-45363750D01*
X63627000Y-45363750D01*
X63627000Y-47213000D01*
X65726250Y-47213000D01*
X65885000Y-47054250D01*
X65888072Y-45840000D01*
X65875812Y-45715518D01*
X65839502Y-45595820D01*
X65780537Y-45485506D01*
X65701185Y-45388815D01*
X65604494Y-45309463D01*
X65494180Y-45250498D01*
X65374482Y-45214188D01*
X65250000Y-45201928D01*
X63785750Y-45205000D01*
X63627000Y-45363750D01*
X63373000Y-45363750D01*
X63214250Y-45205000D01*
X61750000Y-45201928D01*
X61625518Y-45214188D01*
X61505820Y-45250498D01*
X61395506Y-45309463D01*
X61298815Y-45388815D01*
X61219463Y-45485506D01*
X61160498Y-45595820D01*
X61124188Y-45715518D01*
X61111928Y-45840000D01*
X45945898Y-45840000D01*
X46308732Y-45485306D01*
X47122987Y-44892630D01*
X48014269Y-44423704D01*
X48963900Y-44088353D01*
X49955692Y-43892873D01*
X50820164Y-43840000D01*
X126976080Y-43840000D01*
X128004470Y-43914617D01*
G37*
%TD.AperFunction*%
D22*
X90530840Y-69722713D02*
X90295221Y-69925008D01*
X90103595Y-70169383D01*
X89963326Y-70446447D01*
X89879805Y-70745553D01*
X90014831Y-70993000D01*
X91313000Y-70993000D01*
X91313000Y-70973000D01*
X91567000Y-70973000D01*
X91567000Y-70993000D01*
X91587000Y-70993000D01*
X91587000Y-71247000D01*
X91567000Y-71247000D01*
X91567000Y-71267000D01*
X91313000Y-71267000D01*
X91313000Y-71247000D01*
X90014831Y-71247000D01*
X89879805Y-71494447D01*
X89963326Y-71793553D01*
X90103595Y-72070617D01*
X90295221Y-72314992D01*
X90530840Y-72517287D01*
X90643032Y-72580500D01*
X77359191Y-72580500D01*
X77338405Y-72541613D01*
X77227962Y-72407038D01*
X77093387Y-72296595D01*
X76939851Y-72214528D01*
X76773255Y-72163992D01*
X76600001Y-72146928D01*
X75799999Y-72146928D01*
X75626745Y-72163992D01*
X75460149Y-72214528D01*
X75306613Y-72296595D01*
X75172038Y-72407038D01*
X75061595Y-72541613D01*
X74979528Y-72695149D01*
X74928992Y-72861745D01*
X74911928Y-73034999D01*
X74911928Y-74285001D01*
X74928992Y-74458255D01*
X74979528Y-74624851D01*
X75061595Y-74778387D01*
X75172038Y-74912962D01*
X75306613Y-75023405D01*
X75460149Y-75105472D01*
X75626745Y-75156008D01*
X75799999Y-75173072D01*
X76600001Y-75173072D01*
X76773255Y-75156008D01*
X76939851Y-75105472D01*
X77093387Y-75023405D01*
X77227962Y-74912962D01*
X77338405Y-74778387D01*
X77359191Y-74739500D01*
X107896971Y-74739500D01*
X107950000Y-74744723D01*
X108003029Y-74739500D01*
X108161619Y-74723880D01*
X108365106Y-74662153D01*
X108552640Y-74561914D01*
X108717015Y-74427015D01*
X108750826Y-74385816D01*
X109945821Y-73190822D01*
X109987015Y-73157015D01*
X110121914Y-72992640D01*
X110222153Y-72805106D01*
X110283880Y-72601619D01*
X110299500Y-72443029D01*
X110299500Y-72443022D01*
X110304722Y-72390001D01*
X110303830Y-72380948D01*
X110346187Y-72346187D01*
X110490000Y-72170950D01*
X110633813Y-72346187D01*
X110875161Y-72544256D01*
X111150512Y-72691434D01*
X111449286Y-72782066D01*
X111760000Y-72812669D01*
X112070713Y-72782066D01*
X112369487Y-72691434D01*
X112644838Y-72544256D01*
X112886187Y-72346187D01*
X113030000Y-72170950D01*
X113173813Y-72346187D01*
X113415161Y-72544256D01*
X113690512Y-72691434D01*
X113989286Y-72782066D01*
X114300000Y-72812669D01*
X114610713Y-72782066D01*
X114909487Y-72691434D01*
X115184838Y-72544256D01*
X115426187Y-72346187D01*
X115624256Y-72104839D01*
X115760500Y-71849943D01*
X115760500Y-73212857D01*
X113852858Y-75120500D01*
X81333021Y-75120500D01*
X81279999Y-75115278D01*
X81226978Y-75120500D01*
X81226971Y-75120500D01*
X81068381Y-75136120D01*
X80864894Y-75197847D01*
X80677360Y-75298086D01*
X80512985Y-75432985D01*
X80479178Y-75474179D01*
X78292858Y-77660500D01*
X77359191Y-77660500D01*
X77338405Y-77621613D01*
X77227962Y-77487038D01*
X77093387Y-77376595D01*
X76939851Y-77294528D01*
X76773255Y-77243992D01*
X76600001Y-77226928D01*
X75799999Y-77226928D01*
X75626745Y-77243992D01*
X75460149Y-77294528D01*
X75306613Y-77376595D01*
X75172038Y-77487038D01*
X75061595Y-77621613D01*
X74979528Y-77775149D01*
X74928992Y-77941745D01*
X74911928Y-78114999D01*
X74911928Y-79365001D01*
X74928992Y-79538255D01*
X74979528Y-79704851D01*
X75061595Y-79858387D01*
X75172038Y-79992962D01*
X75306613Y-80103405D01*
X75460149Y-80185472D01*
X75509690Y-80200500D01*
X73790310Y-80200500D01*
X73839851Y-80185472D01*
X73993387Y-80103405D01*
X74127962Y-79992962D01*
X74238405Y-79858387D01*
X74320472Y-79704851D01*
X74371008Y-79538255D01*
X74388072Y-79365001D01*
X74388072Y-78114999D01*
X74371008Y-77941745D01*
X74320472Y-77775149D01*
X74238405Y-77621613D01*
X74179500Y-77549837D01*
X74179500Y-74850163D01*
X74238405Y-74778387D01*
X74320472Y-74624851D01*
X74371008Y-74458255D01*
X74388072Y-74285001D01*
X74388072Y-73034999D01*
X74371008Y-72861745D01*
X74320472Y-72695149D01*
X74238405Y-72541613D01*
X74179500Y-72469837D01*
X74179500Y-70857142D01*
X75377144Y-69659500D01*
X90643032Y-69659500D01*
X90530840Y-69722713D01*
%TA.AperFunction,Conductor*%
D23*
G36*
X90530840Y-69722713D02*
G01*
X90295221Y-69925008D01*
X90103595Y-70169383D01*
X89963326Y-70446447D01*
X89879805Y-70745553D01*
X90014831Y-70993000D01*
X91313000Y-70993000D01*
X91313000Y-70973000D01*
X91567000Y-70973000D01*
X91567000Y-70993000D01*
X91587000Y-70993000D01*
X91587000Y-71247000D01*
X91567000Y-71247000D01*
X91567000Y-71267000D01*
X91313000Y-71267000D01*
X91313000Y-71247000D01*
X90014831Y-71247000D01*
X89879805Y-71494447D01*
X89963326Y-71793553D01*
X90103595Y-72070617D01*
X90295221Y-72314992D01*
X90530840Y-72517287D01*
X90643032Y-72580500D01*
X77359191Y-72580500D01*
X77338405Y-72541613D01*
X77227962Y-72407038D01*
X77093387Y-72296595D01*
X76939851Y-72214528D01*
X76773255Y-72163992D01*
X76600001Y-72146928D01*
X75799999Y-72146928D01*
X75626745Y-72163992D01*
X75460149Y-72214528D01*
X75306613Y-72296595D01*
X75172038Y-72407038D01*
X75061595Y-72541613D01*
X74979528Y-72695149D01*
X74928992Y-72861745D01*
X74911928Y-73034999D01*
X74911928Y-74285001D01*
X74928992Y-74458255D01*
X74979528Y-74624851D01*
X75061595Y-74778387D01*
X75172038Y-74912962D01*
X75306613Y-75023405D01*
X75460149Y-75105472D01*
X75626745Y-75156008D01*
X75799999Y-75173072D01*
X76600001Y-75173072D01*
X76773255Y-75156008D01*
X76939851Y-75105472D01*
X77093387Y-75023405D01*
X77227962Y-74912962D01*
X77338405Y-74778387D01*
X77359191Y-74739500D01*
X107896971Y-74739500D01*
X107950000Y-74744723D01*
X108003029Y-74739500D01*
X108161619Y-74723880D01*
X108365106Y-74662153D01*
X108552640Y-74561914D01*
X108717015Y-74427015D01*
X108750826Y-74385816D01*
X109945821Y-73190822D01*
X109987015Y-73157015D01*
X110121914Y-72992640D01*
X110222153Y-72805106D01*
X110283880Y-72601619D01*
X110299500Y-72443029D01*
X110299500Y-72443022D01*
X110304722Y-72390001D01*
X110303830Y-72380948D01*
X110346187Y-72346187D01*
X110490000Y-72170950D01*
X110633813Y-72346187D01*
X110875161Y-72544256D01*
X111150512Y-72691434D01*
X111449286Y-72782066D01*
X111760000Y-72812669D01*
X112070713Y-72782066D01*
X112369487Y-72691434D01*
X112644838Y-72544256D01*
X112886187Y-72346187D01*
X113030000Y-72170950D01*
X113173813Y-72346187D01*
X113415161Y-72544256D01*
X113690512Y-72691434D01*
X113989286Y-72782066D01*
X114300000Y-72812669D01*
X114610713Y-72782066D01*
X114909487Y-72691434D01*
X115184838Y-72544256D01*
X115426187Y-72346187D01*
X115624256Y-72104839D01*
X115760500Y-71849943D01*
X115760500Y-73212857D01*
X113852858Y-75120500D01*
X81333021Y-75120500D01*
X81279999Y-75115278D01*
X81226978Y-75120500D01*
X81226971Y-75120500D01*
X81068381Y-75136120D01*
X80864894Y-75197847D01*
X80677360Y-75298086D01*
X80512985Y-75432985D01*
X80479178Y-75474179D01*
X78292858Y-77660500D01*
X77359191Y-77660500D01*
X77338405Y-77621613D01*
X77227962Y-77487038D01*
X77093387Y-77376595D01*
X76939851Y-77294528D01*
X76773255Y-77243992D01*
X76600001Y-77226928D01*
X75799999Y-77226928D01*
X75626745Y-77243992D01*
X75460149Y-77294528D01*
X75306613Y-77376595D01*
X75172038Y-77487038D01*
X75061595Y-77621613D01*
X74979528Y-77775149D01*
X74928992Y-77941745D01*
X74911928Y-78114999D01*
X74911928Y-79365001D01*
X74928992Y-79538255D01*
X74979528Y-79704851D01*
X75061595Y-79858387D01*
X75172038Y-79992962D01*
X75306613Y-80103405D01*
X75460149Y-80185472D01*
X75509690Y-80200500D01*
X73790310Y-80200500D01*
X73839851Y-80185472D01*
X73993387Y-80103405D01*
X74127962Y-79992962D01*
X74238405Y-79858387D01*
X74320472Y-79704851D01*
X74371008Y-79538255D01*
X74388072Y-79365001D01*
X74388072Y-78114999D01*
X74371008Y-77941745D01*
X74320472Y-77775149D01*
X74238405Y-77621613D01*
X74179500Y-77549837D01*
X74179500Y-74850163D01*
X74238405Y-74778387D01*
X74320472Y-74624851D01*
X74371008Y-74458255D01*
X74388072Y-74285001D01*
X74388072Y-73034999D01*
X74371008Y-72861745D01*
X74320472Y-72695149D01*
X74238405Y-72541613D01*
X74179500Y-72469837D01*
X74179500Y-70857142D01*
X75377144Y-69659500D01*
X90643032Y-69659500D01*
X90530840Y-69722713D01*
G37*
%TD.AperFunction*%
%TD*%
M02*
