%TF.GenerationSoftware,KiCad,Pcbnew,5.1.8+dfsg1-1+b1*%
%TF.CreationDate,2021-04-12T18:27:31-05:00*%
%TF.ProjectId,weather,77656174-6865-4722-9e6b-696361645f70,B*%
%TF.SameCoordinates,Original*%
%TF.FileFunction,Copper,L2,Bot*%
%TF.FilePolarity,Positive*%
%FSLAX46Y46*%
G04 Gerber Fmt 4.6, Leading zero omitted, Abs format (unit mm)*
G04 Created by KiCad (PCBNEW 5.1.8+dfsg1-1+b1) date 2021-04-12 18:27:31*
%MOMM*%
%LPD*%
G01*
G04 APERTURE LIST*
%TA.AperFunction,ComponentPad*%
%ADD10C,1.600000*%
%TD*%
%TA.AperFunction,ComponentPad*%
%ADD11R,1.600000X1.600000*%
%TD*%
%TA.AperFunction,ComponentPad*%
%ADD12O,1.700000X1.700000*%
%TD*%
%TA.AperFunction,ComponentPad*%
%ADD13R,1.700000X1.700000*%
%TD*%
%TA.AperFunction,ComponentPad*%
%ADD14R,3.500000X3.500000*%
%TD*%
%TA.AperFunction,ComponentPad*%
%ADD15O,1.900000X2.100000*%
%TD*%
%TA.AperFunction,ComponentPad*%
%ADD16R,1.900000X2.100000*%
%TD*%
%TA.AperFunction,ViaPad*%
%ADD17C,0.800000*%
%TD*%
%TA.AperFunction,Conductor*%
%ADD18C,0.889000*%
%TD*%
%TA.AperFunction,Conductor*%
%ADD19C,0.254000*%
%TD*%
%TA.AperFunction,Conductor*%
%ADD20C,0.100000*%
%TD*%
G04 APERTURE END LIST*
D10*
%TO.P,C1,2*%
%TO.N,GND*%
X60920000Y-59690000D03*
D11*
%TO.P,C1,1*%
%TO.N,Net-(C1-Pad1)*%
X58420000Y-59690000D03*
%TD*%
D12*
%TO.P,U1,7*%
%TO.N,N/C*%
X78740000Y-101600000D03*
%TO.P,U1,6*%
%TO.N,Net-(A1-Pad17)*%
X76200000Y-101600000D03*
%TO.P,U1,5*%
%TO.N,N/C*%
X73660000Y-101600000D03*
%TO.P,U1,4*%
%TO.N,Net-(A1-Pad18)*%
X71120000Y-101600000D03*
%TO.P,U1,3*%
%TO.N,GND*%
X68580000Y-101600000D03*
%TO.P,U1,2*%
%TO.N,N/C*%
X66040000Y-101600000D03*
D13*
%TO.P,U1,1*%
%TO.N,+3V3*%
X63500000Y-101600000D03*
%TD*%
%TO.P,J1,3*%
%TO.N,N/C*%
%TA.AperFunction,ComponentPad*%
G36*
G01*
X57925000Y-48590000D02*
X59675000Y-48590000D01*
G75*
G02*
X60550000Y-49465000I0J-875000D01*
G01*
X60550000Y-51215000D01*
G75*
G02*
X59675000Y-52090000I-875000J0D01*
G01*
X57925000Y-52090000D01*
G75*
G02*
X57050000Y-51215000I0J875000D01*
G01*
X57050000Y-49465000D01*
G75*
G02*
X57925000Y-48590000I875000J0D01*
G01*
G37*
%TD.AperFunction*%
%TO.P,J1,2*%
%TO.N,GND*%
%TA.AperFunction,ComponentPad*%
G36*
G01*
X62500000Y-45840000D02*
X64500000Y-45840000D01*
G75*
G02*
X65250000Y-46590000I0J-750000D01*
G01*
X65250000Y-48090000D01*
G75*
G02*
X64500000Y-48840000I-750000J0D01*
G01*
X62500000Y-48840000D01*
G75*
G02*
X61750000Y-48090000I0J750000D01*
G01*
X61750000Y-46590000D01*
G75*
G02*
X62500000Y-45840000I750000J0D01*
G01*
G37*
%TD.AperFunction*%
D14*
%TO.P,J1,1*%
%TO.N,Net-(C1-Pad1)*%
X63500000Y-53340000D03*
%TD*%
D15*
%TO.P,A1,11*%
%TO.N,GND*%
X91440000Y-71120000D03*
%TO.P,A1,10*%
X91440000Y-50800000D03*
%TO.P,A1,12*%
%TO.N,N/C*%
X93980000Y-71120000D03*
%TO.P,A1,9*%
X93980000Y-50800000D03*
%TO.P,A1,13*%
%TO.N,+3V3*%
X96520000Y-71120000D03*
%TO.P,A1,8*%
%TO.N,+5V*%
X96520000Y-50800000D03*
%TO.P,A1,14*%
%TO.N,N/C*%
X99060000Y-71120000D03*
%TO.P,A1,7*%
X99060000Y-50800000D03*
%TO.P,A1,15*%
X101600000Y-71120000D03*
%TO.P,A1,6*%
%TO.N,Net-(A1-Pad6)*%
X101600000Y-50800000D03*
%TO.P,A1,16*%
%TO.N,N/C*%
X104140000Y-71120000D03*
%TO.P,A1,5*%
X104140000Y-50800000D03*
%TO.P,A1,17*%
%TO.N,Net-(A1-Pad17)*%
X106680000Y-71120000D03*
%TO.P,A1,4*%
%TO.N,Net-(A1-Pad1)*%
X106680000Y-50800000D03*
%TO.P,A1,18*%
%TO.N,Net-(A1-Pad18)*%
X109220000Y-71120000D03*
%TO.P,A1,3*%
%TO.N,N/C*%
X109220000Y-50800000D03*
%TO.P,A1,19*%
X111760000Y-71120000D03*
%TO.P,A1,2*%
X111760000Y-50800000D03*
%TO.P,A1,20*%
X114300000Y-71120000D03*
D16*
%TO.P,A1,1*%
%TO.N,Net-(A1-Pad1)*%
X114300000Y-50800000D03*
%TD*%
D17*
%TO.N,+5V*%
X66040000Y-76200000D03*
%TD*%
D18*
%TO.N,Net-(A1-Pad17)*%
X76200000Y-101600000D02*
X101600000Y-76200000D01*
X101600000Y-76200000D02*
X114300000Y-76200000D01*
X114300000Y-76200000D02*
X116840000Y-73660000D01*
X116840000Y-73660000D02*
X116840000Y-69850000D01*
X116840000Y-69850000D02*
X115570000Y-68580000D01*
X115570000Y-68580000D02*
X107950000Y-68580000D01*
X107950000Y-68580000D02*
X106680000Y-69850000D01*
X106680000Y-69850000D02*
X106680000Y-71120000D01*
%TO.N,Net-(A1-Pad18)*%
X71120000Y-101600000D02*
X71120000Y-95250000D01*
X71120000Y-95250000D02*
X92710000Y-73660000D01*
X92710000Y-73660000D02*
X107950000Y-73660000D01*
X109220000Y-72390000D02*
X109220000Y-71120000D01*
X107950000Y-73660000D02*
X109220000Y-72390000D01*
%TO.N,+5V*%
X66040000Y-76200000D02*
X66040000Y-74930000D01*
X66040000Y-74930000D02*
X87630000Y-53340000D01*
X87630000Y-53340000D02*
X95250000Y-53340000D01*
X96520000Y-52070000D02*
X96520000Y-50800000D01*
X95250000Y-53340000D02*
X96520000Y-52070000D01*
%TO.N,+3V3*%
X63500000Y-101600000D02*
X63500000Y-93980000D01*
X63500000Y-93980000D02*
X88900000Y-68580000D01*
X88900000Y-68580000D02*
X95250000Y-68580000D01*
X96520000Y-69850000D02*
X96520000Y-71120000D01*
X95250000Y-68580000D02*
X96520000Y-69850000D01*
%TO.N,Net-(C1-Pad1)*%
X58420000Y-55781000D02*
X58420000Y-59690000D01*
X60861000Y-53340000D02*
X58420000Y-55781000D01*
X63500000Y-53340000D02*
X60861000Y-53340000D01*
%TD*%
D19*
%TO.N,GND*%
X128004470Y-43914617D02*
X128987898Y-44131739D01*
X129929675Y-44488546D01*
X130810095Y-44977575D01*
X131610687Y-45588569D01*
X132314694Y-46308732D01*
X132907370Y-47122987D01*
X133376296Y-48014269D01*
X133711647Y-48963900D01*
X133907127Y-49955692D01*
X133960000Y-50820164D01*
X133960001Y-101576080D01*
X133885382Y-102604470D01*
X133668262Y-103587896D01*
X133311454Y-104529675D01*
X132822424Y-105410095D01*
X132211435Y-106210684D01*
X131491268Y-106914694D01*
X130677013Y-107507370D01*
X129785731Y-107976296D01*
X128836099Y-108311647D01*
X127844309Y-108507127D01*
X126979835Y-108560000D01*
X50823906Y-108560000D01*
X49795530Y-108485382D01*
X48812104Y-108268262D01*
X47870325Y-107911454D01*
X46989905Y-107422424D01*
X46189316Y-106811435D01*
X45485306Y-106091268D01*
X44892630Y-105277013D01*
X44423704Y-104385731D01*
X44088353Y-103436099D01*
X43892873Y-102444309D01*
X43840000Y-101579835D01*
X43840000Y-101379872D01*
X48565000Y-101379872D01*
X48565000Y-101820128D01*
X48650890Y-102251925D01*
X48819369Y-102658669D01*
X49063962Y-103024729D01*
X49375271Y-103336038D01*
X49741331Y-103580631D01*
X50148075Y-103749110D01*
X50579872Y-103835000D01*
X51020128Y-103835000D01*
X51451925Y-103749110D01*
X51858669Y-103580631D01*
X52224729Y-103336038D01*
X52536038Y-103024729D01*
X52780631Y-102658669D01*
X52949110Y-102251925D01*
X53035000Y-101820128D01*
X53035000Y-101379872D01*
X52949110Y-100948075D01*
X52867065Y-100750000D01*
X62011928Y-100750000D01*
X62011928Y-102450000D01*
X62024188Y-102574482D01*
X62060498Y-102694180D01*
X62119463Y-102804494D01*
X62198815Y-102901185D01*
X62295506Y-102980537D01*
X62405820Y-103039502D01*
X62525518Y-103075812D01*
X62650000Y-103088072D01*
X64350000Y-103088072D01*
X64474482Y-103075812D01*
X64594180Y-103039502D01*
X64704494Y-102980537D01*
X64801185Y-102901185D01*
X64880537Y-102804494D01*
X64939502Y-102694180D01*
X64961513Y-102621620D01*
X65093368Y-102753475D01*
X65336589Y-102915990D01*
X65606842Y-103027932D01*
X65893740Y-103085000D01*
X66186260Y-103085000D01*
X66473158Y-103027932D01*
X66743411Y-102915990D01*
X66986632Y-102753475D01*
X67193475Y-102546632D01*
X67315195Y-102364466D01*
X67384822Y-102481355D01*
X67579731Y-102697588D01*
X67813080Y-102871641D01*
X68075901Y-102996825D01*
X68223110Y-103041476D01*
X68453000Y-102920155D01*
X68453000Y-101727000D01*
X68433000Y-101727000D01*
X68433000Y-101473000D01*
X68453000Y-101473000D01*
X68453000Y-100279845D01*
X68223110Y-100158524D01*
X68075901Y-100203175D01*
X67813080Y-100328359D01*
X67579731Y-100502412D01*
X67384822Y-100718645D01*
X67315195Y-100835534D01*
X67193475Y-100653368D01*
X66986632Y-100446525D01*
X66743411Y-100284010D01*
X66473158Y-100172068D01*
X66186260Y-100115000D01*
X65893740Y-100115000D01*
X65606842Y-100172068D01*
X65336589Y-100284010D01*
X65093368Y-100446525D01*
X64961513Y-100578380D01*
X64939502Y-100505820D01*
X64880537Y-100395506D01*
X64801185Y-100298815D01*
X64704494Y-100219463D01*
X64594180Y-100160498D01*
X64579500Y-100156045D01*
X64579500Y-94427142D01*
X87512195Y-71494447D01*
X89879805Y-71494447D01*
X89963326Y-71793553D01*
X90103595Y-72070617D01*
X90295221Y-72314992D01*
X90530840Y-72517287D01*
X90801397Y-72669728D01*
X91067412Y-72760586D01*
X91313000Y-72640584D01*
X91313000Y-71247000D01*
X90014831Y-71247000D01*
X89879805Y-71494447D01*
X87512195Y-71494447D01*
X89347143Y-69659500D01*
X90643032Y-69659500D01*
X90530840Y-69722713D01*
X90295221Y-69925008D01*
X90103595Y-70169383D01*
X89963326Y-70446447D01*
X89879805Y-70745553D01*
X90014831Y-70993000D01*
X91313000Y-70993000D01*
X91313000Y-70973000D01*
X91567000Y-70973000D01*
X91567000Y-70993000D01*
X91587000Y-70993000D01*
X91587000Y-71247000D01*
X91567000Y-71247000D01*
X91567000Y-72640584D01*
X91812588Y-72760586D01*
X92078603Y-72669728D01*
X92349160Y-72517287D01*
X92584779Y-72314992D01*
X92703725Y-72163303D01*
X92853813Y-72346187D01*
X93095161Y-72544256D01*
X93162969Y-72580500D01*
X92763029Y-72580500D01*
X92710000Y-72575277D01*
X92656971Y-72580500D01*
X92498381Y-72596120D01*
X92294894Y-72657847D01*
X92107360Y-72758086D01*
X91942985Y-72892985D01*
X91909182Y-72934174D01*
X70394180Y-94449178D01*
X70352986Y-94482985D01*
X70218087Y-94647360D01*
X70164821Y-94747014D01*
X70117847Y-94834896D01*
X70056120Y-95038382D01*
X70035277Y-95250000D01*
X70040501Y-95303039D01*
X70040500Y-100579393D01*
X69966525Y-100653368D01*
X69844805Y-100835534D01*
X69775178Y-100718645D01*
X69580269Y-100502412D01*
X69346920Y-100328359D01*
X69084099Y-100203175D01*
X68936890Y-100158524D01*
X68707000Y-100279845D01*
X68707000Y-101473000D01*
X68727000Y-101473000D01*
X68727000Y-101727000D01*
X68707000Y-101727000D01*
X68707000Y-102920155D01*
X68936890Y-103041476D01*
X69084099Y-102996825D01*
X69346920Y-102871641D01*
X69580269Y-102697588D01*
X69775178Y-102481355D01*
X69844805Y-102364466D01*
X69966525Y-102546632D01*
X70173368Y-102753475D01*
X70416589Y-102915990D01*
X70686842Y-103027932D01*
X70973740Y-103085000D01*
X71266260Y-103085000D01*
X71553158Y-103027932D01*
X71823411Y-102915990D01*
X72066632Y-102753475D01*
X72273475Y-102546632D01*
X72390000Y-102372240D01*
X72506525Y-102546632D01*
X72713368Y-102753475D01*
X72956589Y-102915990D01*
X73226842Y-103027932D01*
X73513740Y-103085000D01*
X73806260Y-103085000D01*
X74093158Y-103027932D01*
X74363411Y-102915990D01*
X74606632Y-102753475D01*
X74813475Y-102546632D01*
X74930000Y-102372240D01*
X75046525Y-102546632D01*
X75253368Y-102753475D01*
X75496589Y-102915990D01*
X75766842Y-103027932D01*
X76053740Y-103085000D01*
X76346260Y-103085000D01*
X76633158Y-103027932D01*
X76903411Y-102915990D01*
X77146632Y-102753475D01*
X77353475Y-102546632D01*
X77470000Y-102372240D01*
X77586525Y-102546632D01*
X77793368Y-102753475D01*
X78036589Y-102915990D01*
X78306842Y-103027932D01*
X78593740Y-103085000D01*
X78886260Y-103085000D01*
X79173158Y-103027932D01*
X79443411Y-102915990D01*
X79686632Y-102753475D01*
X79893475Y-102546632D01*
X80055990Y-102303411D01*
X80167932Y-102033158D01*
X80225000Y-101746260D01*
X80225000Y-101453740D01*
X80210307Y-101379872D01*
X124765000Y-101379872D01*
X124765000Y-101820128D01*
X124850890Y-102251925D01*
X125019369Y-102658669D01*
X125263962Y-103024729D01*
X125575271Y-103336038D01*
X125941331Y-103580631D01*
X126348075Y-103749110D01*
X126779872Y-103835000D01*
X127220128Y-103835000D01*
X127651925Y-103749110D01*
X128058669Y-103580631D01*
X128424729Y-103336038D01*
X128736038Y-103024729D01*
X128980631Y-102658669D01*
X129149110Y-102251925D01*
X129235000Y-101820128D01*
X129235000Y-101379872D01*
X129149110Y-100948075D01*
X128980631Y-100541331D01*
X128736038Y-100175271D01*
X128424729Y-99863962D01*
X128058669Y-99619369D01*
X127651925Y-99450890D01*
X127220128Y-99365000D01*
X126779872Y-99365000D01*
X126348075Y-99450890D01*
X125941331Y-99619369D01*
X125575271Y-99863962D01*
X125263962Y-100175271D01*
X125019369Y-100541331D01*
X124850890Y-100948075D01*
X124765000Y-101379872D01*
X80210307Y-101379872D01*
X80167932Y-101166842D01*
X80055990Y-100896589D01*
X79893475Y-100653368D01*
X79686632Y-100446525D01*
X79443411Y-100284010D01*
X79173158Y-100172068D01*
X79157657Y-100168985D01*
X102047143Y-77279500D01*
X114246971Y-77279500D01*
X114300000Y-77284723D01*
X114353029Y-77279500D01*
X114511619Y-77263880D01*
X114715106Y-77202153D01*
X114902640Y-77101914D01*
X115067015Y-76967015D01*
X115100827Y-76925815D01*
X117565821Y-74460822D01*
X117607015Y-74427015D01*
X117741914Y-74262640D01*
X117842153Y-74075106D01*
X117903880Y-73871619D01*
X117919500Y-73713029D01*
X117919500Y-73713022D01*
X117924722Y-73660001D01*
X117919500Y-73606979D01*
X117919500Y-69903021D01*
X117924722Y-69849999D01*
X117919500Y-69796978D01*
X117919500Y-69796971D01*
X117903880Y-69638381D01*
X117842153Y-69434894D01*
X117741914Y-69247360D01*
X117607015Y-69082985D01*
X117565821Y-69049178D01*
X116370826Y-67854184D01*
X116337015Y-67812985D01*
X116172640Y-67678086D01*
X115985106Y-67577847D01*
X115781619Y-67516120D01*
X115623029Y-67500500D01*
X115570000Y-67495277D01*
X115516971Y-67500500D01*
X108003021Y-67500500D01*
X107949999Y-67495278D01*
X107896978Y-67500500D01*
X107896971Y-67500500D01*
X107738381Y-67516120D01*
X107534894Y-67577847D01*
X107347360Y-67678086D01*
X107182985Y-67812985D01*
X107149178Y-67854179D01*
X105954184Y-69049174D01*
X105912985Y-69082985D01*
X105778086Y-69247360D01*
X105677847Y-69434895D01*
X105663584Y-69481914D01*
X105616120Y-69638382D01*
X105595277Y-69850000D01*
X105596169Y-69859053D01*
X105553813Y-69893813D01*
X105410000Y-70069050D01*
X105266187Y-69893813D01*
X105024839Y-69695744D01*
X104749488Y-69548566D01*
X104450714Y-69457934D01*
X104140000Y-69427331D01*
X103829287Y-69457934D01*
X103530513Y-69548566D01*
X103255162Y-69695744D01*
X103013813Y-69893813D01*
X102870000Y-70069050D01*
X102726187Y-69893813D01*
X102484839Y-69695744D01*
X102209488Y-69548566D01*
X101910714Y-69457934D01*
X101600000Y-69427331D01*
X101289287Y-69457934D01*
X100990513Y-69548566D01*
X100715162Y-69695744D01*
X100473813Y-69893813D01*
X100330000Y-70069050D01*
X100186187Y-69893813D01*
X99944839Y-69695744D01*
X99669488Y-69548566D01*
X99370714Y-69457934D01*
X99060000Y-69427331D01*
X98749287Y-69457934D01*
X98450513Y-69548566D01*
X98175162Y-69695744D01*
X97933813Y-69893813D01*
X97790000Y-70069050D01*
X97646187Y-69893813D01*
X97603830Y-69859052D01*
X97604722Y-69849999D01*
X97599500Y-69796978D01*
X97599500Y-69796971D01*
X97583880Y-69638381D01*
X97522153Y-69434894D01*
X97421914Y-69247360D01*
X97287015Y-69082985D01*
X97245821Y-69049178D01*
X96050826Y-67854184D01*
X96017015Y-67812985D01*
X95852640Y-67678086D01*
X95665106Y-67577847D01*
X95461619Y-67516120D01*
X95303029Y-67500500D01*
X95250000Y-67495277D01*
X95196971Y-67500500D01*
X88953018Y-67500500D01*
X88899999Y-67495278D01*
X88846980Y-67500500D01*
X88846971Y-67500500D01*
X88688381Y-67516120D01*
X88484894Y-67577847D01*
X88297360Y-67678086D01*
X88132985Y-67812985D01*
X88099178Y-67854179D01*
X62774180Y-93179178D01*
X62732986Y-93212985D01*
X62598087Y-93377360D01*
X62497848Y-93564894D01*
X62497847Y-93564896D01*
X62436120Y-93768382D01*
X62415277Y-93980000D01*
X62420501Y-94033039D01*
X62420500Y-100156045D01*
X62405820Y-100160498D01*
X62295506Y-100219463D01*
X62198815Y-100298815D01*
X62119463Y-100395506D01*
X62060498Y-100505820D01*
X62024188Y-100625518D01*
X62011928Y-100750000D01*
X52867065Y-100750000D01*
X52780631Y-100541331D01*
X52536038Y-100175271D01*
X52224729Y-99863962D01*
X51858669Y-99619369D01*
X51451925Y-99450890D01*
X51020128Y-99365000D01*
X50579872Y-99365000D01*
X50148075Y-99450890D01*
X49741331Y-99619369D01*
X49375271Y-99863962D01*
X49063962Y-100175271D01*
X48819369Y-100541331D01*
X48650890Y-100948075D01*
X48565000Y-101379872D01*
X43840000Y-101379872D01*
X43840000Y-74930000D01*
X64955277Y-74930000D01*
X64960500Y-74983029D01*
X64960500Y-76253028D01*
X64976120Y-76411618D01*
X65037847Y-76615105D01*
X65138086Y-76802640D01*
X65272985Y-76967015D01*
X65437360Y-77101914D01*
X65624894Y-77202153D01*
X65828381Y-77263880D01*
X66040000Y-77284723D01*
X66251618Y-77263880D01*
X66455105Y-77202153D01*
X66642640Y-77101914D01*
X66807015Y-76967015D01*
X66941914Y-76802640D01*
X67042153Y-76615106D01*
X67103880Y-76411619D01*
X67119500Y-76253029D01*
X67119500Y-75377142D01*
X88077144Y-54419500D01*
X95196971Y-54419500D01*
X95250000Y-54424723D01*
X95303029Y-54419500D01*
X95461619Y-54403880D01*
X95665106Y-54342153D01*
X95852640Y-54241914D01*
X96017015Y-54107015D01*
X96050826Y-54065816D01*
X97245821Y-52870822D01*
X97287015Y-52837015D01*
X97421914Y-52672640D01*
X97522153Y-52485106D01*
X97583880Y-52281619D01*
X97599500Y-52123029D01*
X97599500Y-52123022D01*
X97604722Y-52070001D01*
X97603830Y-52060948D01*
X97646187Y-52026187D01*
X97790000Y-51850950D01*
X97933813Y-52026187D01*
X98175161Y-52224256D01*
X98450512Y-52371434D01*
X98749286Y-52462066D01*
X99060000Y-52492669D01*
X99370713Y-52462066D01*
X99669487Y-52371434D01*
X99944838Y-52224256D01*
X100186187Y-52026187D01*
X100330000Y-51850950D01*
X100473813Y-52026187D01*
X100715161Y-52224256D01*
X100990512Y-52371434D01*
X101289286Y-52462066D01*
X101600000Y-52492669D01*
X101910713Y-52462066D01*
X102209487Y-52371434D01*
X102484838Y-52224256D01*
X102726187Y-52026187D01*
X102870000Y-51850950D01*
X103013813Y-52026187D01*
X103255161Y-52224256D01*
X103530512Y-52371434D01*
X103829286Y-52462066D01*
X104140000Y-52492669D01*
X104450713Y-52462066D01*
X104749487Y-52371434D01*
X105024838Y-52224256D01*
X105266187Y-52026187D01*
X105410000Y-51850950D01*
X105553813Y-52026187D01*
X105795161Y-52224256D01*
X106070512Y-52371434D01*
X106369286Y-52462066D01*
X106680000Y-52492669D01*
X106990713Y-52462066D01*
X107289487Y-52371434D01*
X107564838Y-52224256D01*
X107806187Y-52026187D01*
X107950000Y-51850950D01*
X108093813Y-52026187D01*
X108335161Y-52224256D01*
X108610512Y-52371434D01*
X108909286Y-52462066D01*
X109220000Y-52492669D01*
X109530713Y-52462066D01*
X109829487Y-52371434D01*
X110104838Y-52224256D01*
X110346187Y-52026187D01*
X110490000Y-51850950D01*
X110633813Y-52026187D01*
X110875161Y-52224256D01*
X111150512Y-52371434D01*
X111449286Y-52462066D01*
X111760000Y-52492669D01*
X112070713Y-52462066D01*
X112369487Y-52371434D01*
X112644838Y-52224256D01*
X112773560Y-52118617D01*
X112819463Y-52204494D01*
X112898815Y-52301185D01*
X112995506Y-52380537D01*
X113105820Y-52439502D01*
X113225518Y-52475812D01*
X113350000Y-52488072D01*
X115250000Y-52488072D01*
X115374482Y-52475812D01*
X115494180Y-52439502D01*
X115604494Y-52380537D01*
X115701185Y-52301185D01*
X115780537Y-52204494D01*
X115839502Y-52094180D01*
X115875812Y-51974482D01*
X115888072Y-51850000D01*
X115888072Y-50579872D01*
X124765000Y-50579872D01*
X124765000Y-51020128D01*
X124850890Y-51451925D01*
X125019369Y-51858669D01*
X125263962Y-52224729D01*
X125575271Y-52536038D01*
X125941331Y-52780631D01*
X126348075Y-52949110D01*
X126779872Y-53035000D01*
X127220128Y-53035000D01*
X127651925Y-52949110D01*
X128058669Y-52780631D01*
X128424729Y-52536038D01*
X128736038Y-52224729D01*
X128980631Y-51858669D01*
X129149110Y-51451925D01*
X129235000Y-51020128D01*
X129235000Y-50579872D01*
X129149110Y-50148075D01*
X128980631Y-49741331D01*
X128736038Y-49375271D01*
X128424729Y-49063962D01*
X128058669Y-48819369D01*
X127651925Y-48650890D01*
X127220128Y-48565000D01*
X126779872Y-48565000D01*
X126348075Y-48650890D01*
X125941331Y-48819369D01*
X125575271Y-49063962D01*
X125263962Y-49375271D01*
X125019369Y-49741331D01*
X124850890Y-50148075D01*
X124765000Y-50579872D01*
X115888072Y-50579872D01*
X115888072Y-49750000D01*
X115875812Y-49625518D01*
X115839502Y-49505820D01*
X115780537Y-49395506D01*
X115701185Y-49298815D01*
X115604494Y-49219463D01*
X115494180Y-49160498D01*
X115374482Y-49124188D01*
X115250000Y-49111928D01*
X113350000Y-49111928D01*
X113225518Y-49124188D01*
X113105820Y-49160498D01*
X112995506Y-49219463D01*
X112898815Y-49298815D01*
X112819463Y-49395506D01*
X112773560Y-49481383D01*
X112644839Y-49375744D01*
X112369488Y-49228566D01*
X112070714Y-49137934D01*
X111760000Y-49107331D01*
X111449287Y-49137934D01*
X111150513Y-49228566D01*
X110875162Y-49375744D01*
X110633813Y-49573813D01*
X110490000Y-49749050D01*
X110346187Y-49573813D01*
X110104839Y-49375744D01*
X109829488Y-49228566D01*
X109530714Y-49137934D01*
X109220000Y-49107331D01*
X108909287Y-49137934D01*
X108610513Y-49228566D01*
X108335162Y-49375744D01*
X108093813Y-49573813D01*
X107950000Y-49749050D01*
X107806187Y-49573813D01*
X107564839Y-49375744D01*
X107289488Y-49228566D01*
X106990714Y-49137934D01*
X106680000Y-49107331D01*
X106369287Y-49137934D01*
X106070513Y-49228566D01*
X105795162Y-49375744D01*
X105553813Y-49573813D01*
X105410000Y-49749050D01*
X105266187Y-49573813D01*
X105024839Y-49375744D01*
X104749488Y-49228566D01*
X104450714Y-49137934D01*
X104140000Y-49107331D01*
X103829287Y-49137934D01*
X103530513Y-49228566D01*
X103255162Y-49375744D01*
X103013813Y-49573813D01*
X102870000Y-49749050D01*
X102726187Y-49573813D01*
X102484839Y-49375744D01*
X102209488Y-49228566D01*
X101910714Y-49137934D01*
X101600000Y-49107331D01*
X101289287Y-49137934D01*
X100990513Y-49228566D01*
X100715162Y-49375744D01*
X100473813Y-49573813D01*
X100330000Y-49749050D01*
X100186187Y-49573813D01*
X99944839Y-49375744D01*
X99669488Y-49228566D01*
X99370714Y-49137934D01*
X99060000Y-49107331D01*
X98749287Y-49137934D01*
X98450513Y-49228566D01*
X98175162Y-49375744D01*
X97933813Y-49573813D01*
X97790000Y-49749050D01*
X97646187Y-49573813D01*
X97404839Y-49375744D01*
X97129488Y-49228566D01*
X96830714Y-49137934D01*
X96520000Y-49107331D01*
X96209287Y-49137934D01*
X95910513Y-49228566D01*
X95635162Y-49375744D01*
X95393813Y-49573813D01*
X95250000Y-49749050D01*
X95106187Y-49573813D01*
X94864839Y-49375744D01*
X94589488Y-49228566D01*
X94290714Y-49137934D01*
X93980000Y-49107331D01*
X93669287Y-49137934D01*
X93370513Y-49228566D01*
X93095162Y-49375744D01*
X92853813Y-49573813D01*
X92703725Y-49756696D01*
X92584779Y-49605008D01*
X92349160Y-49402713D01*
X92078603Y-49250272D01*
X91812588Y-49159414D01*
X91567000Y-49279416D01*
X91567000Y-50673000D01*
X91587000Y-50673000D01*
X91587000Y-50927000D01*
X91567000Y-50927000D01*
X91567000Y-50947000D01*
X91313000Y-50947000D01*
X91313000Y-50927000D01*
X90014831Y-50927000D01*
X89879805Y-51174447D01*
X89963326Y-51473553D01*
X90103595Y-51750617D01*
X90295221Y-51994992D01*
X90530840Y-52197287D01*
X90643032Y-52260500D01*
X87683029Y-52260500D01*
X87630000Y-52255277D01*
X87576971Y-52260500D01*
X87418381Y-52276120D01*
X87214894Y-52337847D01*
X87027360Y-52438086D01*
X86862985Y-52572985D01*
X86829182Y-52614174D01*
X65314180Y-74129178D01*
X65272986Y-74162985D01*
X65138087Y-74327360D01*
X65037848Y-74514894D01*
X64976120Y-74718381D01*
X64960500Y-74876971D01*
X64955277Y-74930000D01*
X43840000Y-74930000D01*
X43840000Y-50823920D01*
X43857707Y-50579872D01*
X48565000Y-50579872D01*
X48565000Y-51020128D01*
X48650890Y-51451925D01*
X48819369Y-51858669D01*
X49063962Y-52224729D01*
X49375271Y-52536038D01*
X49741331Y-52780631D01*
X50148075Y-52949110D01*
X50579872Y-53035000D01*
X51020128Y-53035000D01*
X51451925Y-52949110D01*
X51858669Y-52780631D01*
X52224729Y-52536038D01*
X52536038Y-52224729D01*
X52780631Y-51858669D01*
X52949110Y-51451925D01*
X53035000Y-51020128D01*
X53035000Y-50579872D01*
X52949110Y-50148075D01*
X52780631Y-49741331D01*
X52595993Y-49465000D01*
X56411928Y-49465000D01*
X56411928Y-51215000D01*
X56441001Y-51510186D01*
X56527104Y-51794028D01*
X56666927Y-52055618D01*
X56855097Y-52284903D01*
X57084382Y-52473073D01*
X57345972Y-52612896D01*
X57629814Y-52698999D01*
X57925000Y-52728072D01*
X59675000Y-52728072D01*
X59970186Y-52698999D01*
X59977610Y-52696747D01*
X57694185Y-54980173D01*
X57652985Y-55013985D01*
X57518086Y-55178360D01*
X57417847Y-55365895D01*
X57417847Y-55365896D01*
X57356120Y-55569382D01*
X57335277Y-55781000D01*
X57340500Y-55834029D01*
X57340501Y-58319377D01*
X57265506Y-58359463D01*
X57168815Y-58438815D01*
X57089463Y-58535506D01*
X57030498Y-58645820D01*
X56994188Y-58765518D01*
X56981928Y-58890000D01*
X56981928Y-60490000D01*
X56994188Y-60614482D01*
X57030498Y-60734180D01*
X57089463Y-60844494D01*
X57168815Y-60941185D01*
X57265506Y-61020537D01*
X57375820Y-61079502D01*
X57495518Y-61115812D01*
X57620000Y-61128072D01*
X59220000Y-61128072D01*
X59344482Y-61115812D01*
X59464180Y-61079502D01*
X59574494Y-61020537D01*
X59671185Y-60941185D01*
X59750537Y-60844494D01*
X59809502Y-60734180D01*
X59825117Y-60682702D01*
X60106903Y-60682702D01*
X60178486Y-60926671D01*
X60433996Y-61047571D01*
X60708184Y-61116300D01*
X60990512Y-61130217D01*
X61270130Y-61088787D01*
X61536292Y-60993603D01*
X61661514Y-60926671D01*
X61733097Y-60682702D01*
X60920000Y-59869605D01*
X60106903Y-60682702D01*
X59825117Y-60682702D01*
X59845812Y-60614482D01*
X59858072Y-60490000D01*
X59858072Y-60482785D01*
X59927298Y-60503097D01*
X60740395Y-59690000D01*
X61099605Y-59690000D01*
X61912702Y-60503097D01*
X62156671Y-60431514D01*
X62277571Y-60176004D01*
X62346300Y-59901816D01*
X62360217Y-59619488D01*
X62318787Y-59339870D01*
X62223603Y-59073708D01*
X62156671Y-58948486D01*
X61912702Y-58876903D01*
X61099605Y-59690000D01*
X60740395Y-59690000D01*
X59927298Y-58876903D01*
X59858072Y-58897215D01*
X59858072Y-58890000D01*
X59845812Y-58765518D01*
X59825118Y-58697298D01*
X60106903Y-58697298D01*
X60920000Y-59510395D01*
X61733097Y-58697298D01*
X61661514Y-58453329D01*
X61406004Y-58332429D01*
X61131816Y-58263700D01*
X60849488Y-58249783D01*
X60569870Y-58291213D01*
X60303708Y-58386397D01*
X60178486Y-58453329D01*
X60106903Y-58697298D01*
X59825118Y-58697298D01*
X59809502Y-58645820D01*
X59750537Y-58535506D01*
X59671185Y-58438815D01*
X59574494Y-58359463D01*
X59499500Y-58319377D01*
X59499500Y-56228142D01*
X61111928Y-54615715D01*
X61111928Y-55090000D01*
X61124188Y-55214482D01*
X61160498Y-55334180D01*
X61219463Y-55444494D01*
X61298815Y-55541185D01*
X61395506Y-55620537D01*
X61505820Y-55679502D01*
X61625518Y-55715812D01*
X61750000Y-55728072D01*
X65250000Y-55728072D01*
X65374482Y-55715812D01*
X65494180Y-55679502D01*
X65604494Y-55620537D01*
X65701185Y-55541185D01*
X65780537Y-55444494D01*
X65839502Y-55334180D01*
X65875812Y-55214482D01*
X65888072Y-55090000D01*
X65888072Y-51590000D01*
X65875812Y-51465518D01*
X65839502Y-51345820D01*
X65780537Y-51235506D01*
X65701185Y-51138815D01*
X65604494Y-51059463D01*
X65494180Y-51000498D01*
X65374482Y-50964188D01*
X65250000Y-50951928D01*
X61750000Y-50951928D01*
X61625518Y-50964188D01*
X61505820Y-51000498D01*
X61395506Y-51059463D01*
X61298815Y-51138815D01*
X61219463Y-51235506D01*
X61178506Y-51312131D01*
X61188072Y-51215000D01*
X61188072Y-50425553D01*
X89879805Y-50425553D01*
X90014831Y-50673000D01*
X91313000Y-50673000D01*
X91313000Y-49279416D01*
X91067412Y-49159414D01*
X90801397Y-49250272D01*
X90530840Y-49402713D01*
X90295221Y-49605008D01*
X90103595Y-49849383D01*
X89963326Y-50126447D01*
X89879805Y-50425553D01*
X61188072Y-50425553D01*
X61188072Y-49465000D01*
X61158999Y-49169814D01*
X61072896Y-48885972D01*
X61048324Y-48840000D01*
X61111928Y-48840000D01*
X61124188Y-48964482D01*
X61160498Y-49084180D01*
X61219463Y-49194494D01*
X61298815Y-49291185D01*
X61395506Y-49370537D01*
X61505820Y-49429502D01*
X61625518Y-49465812D01*
X61750000Y-49478072D01*
X63214250Y-49475000D01*
X63373000Y-49316250D01*
X63373000Y-47467000D01*
X63627000Y-47467000D01*
X63627000Y-49316250D01*
X63785750Y-49475000D01*
X65250000Y-49478072D01*
X65374482Y-49465812D01*
X65494180Y-49429502D01*
X65604494Y-49370537D01*
X65701185Y-49291185D01*
X65780537Y-49194494D01*
X65839502Y-49084180D01*
X65875812Y-48964482D01*
X65888072Y-48840000D01*
X65885000Y-47625750D01*
X65726250Y-47467000D01*
X63627000Y-47467000D01*
X63373000Y-47467000D01*
X61273750Y-47467000D01*
X61115000Y-47625750D01*
X61111928Y-48840000D01*
X61048324Y-48840000D01*
X60933073Y-48624382D01*
X60744903Y-48395097D01*
X60515618Y-48206927D01*
X60254028Y-48067104D01*
X59970186Y-47981001D01*
X59675000Y-47951928D01*
X57925000Y-47951928D01*
X57629814Y-47981001D01*
X57345972Y-48067104D01*
X57084382Y-48206927D01*
X56855097Y-48395097D01*
X56666927Y-48624382D01*
X56527104Y-48885972D01*
X56441001Y-49169814D01*
X56411928Y-49465000D01*
X52595993Y-49465000D01*
X52536038Y-49375271D01*
X52224729Y-49063962D01*
X51858669Y-48819369D01*
X51451925Y-48650890D01*
X51020128Y-48565000D01*
X50579872Y-48565000D01*
X50148075Y-48650890D01*
X49741331Y-48819369D01*
X49375271Y-49063962D01*
X49063962Y-49375271D01*
X48819369Y-49741331D01*
X48650890Y-50148075D01*
X48565000Y-50579872D01*
X43857707Y-50579872D01*
X43914617Y-49795530D01*
X44131739Y-48812102D01*
X44488546Y-47870325D01*
X44977575Y-46989905D01*
X45588569Y-46189313D01*
X45945898Y-45840000D01*
X61111928Y-45840000D01*
X61115000Y-47054250D01*
X61273750Y-47213000D01*
X63373000Y-47213000D01*
X63373000Y-45363750D01*
X63627000Y-45363750D01*
X63627000Y-47213000D01*
X65726250Y-47213000D01*
X65885000Y-47054250D01*
X65888072Y-45840000D01*
X65875812Y-45715518D01*
X65839502Y-45595820D01*
X65780537Y-45485506D01*
X65701185Y-45388815D01*
X65604494Y-45309463D01*
X65494180Y-45250498D01*
X65374482Y-45214188D01*
X65250000Y-45201928D01*
X63785750Y-45205000D01*
X63627000Y-45363750D01*
X63373000Y-45363750D01*
X63214250Y-45205000D01*
X61750000Y-45201928D01*
X61625518Y-45214188D01*
X61505820Y-45250498D01*
X61395506Y-45309463D01*
X61298815Y-45388815D01*
X61219463Y-45485506D01*
X61160498Y-45595820D01*
X61124188Y-45715518D01*
X61111928Y-45840000D01*
X45945898Y-45840000D01*
X46308732Y-45485306D01*
X47122987Y-44892630D01*
X48014269Y-44423704D01*
X48963900Y-44088353D01*
X49955692Y-43892873D01*
X50820164Y-43840000D01*
X126976080Y-43840000D01*
X128004470Y-43914617D01*
%TA.AperFunction,Conductor*%
D20*
G36*
X128004470Y-43914617D02*
G01*
X128987898Y-44131739D01*
X129929675Y-44488546D01*
X130810095Y-44977575D01*
X131610687Y-45588569D01*
X132314694Y-46308732D01*
X132907370Y-47122987D01*
X133376296Y-48014269D01*
X133711647Y-48963900D01*
X133907127Y-49955692D01*
X133960000Y-50820164D01*
X133960001Y-101576080D01*
X133885382Y-102604470D01*
X133668262Y-103587896D01*
X133311454Y-104529675D01*
X132822424Y-105410095D01*
X132211435Y-106210684D01*
X131491268Y-106914694D01*
X130677013Y-107507370D01*
X129785731Y-107976296D01*
X128836099Y-108311647D01*
X127844309Y-108507127D01*
X126979835Y-108560000D01*
X50823906Y-108560000D01*
X49795530Y-108485382D01*
X48812104Y-108268262D01*
X47870325Y-107911454D01*
X46989905Y-107422424D01*
X46189316Y-106811435D01*
X45485306Y-106091268D01*
X44892630Y-105277013D01*
X44423704Y-104385731D01*
X44088353Y-103436099D01*
X43892873Y-102444309D01*
X43840000Y-101579835D01*
X43840000Y-101379872D01*
X48565000Y-101379872D01*
X48565000Y-101820128D01*
X48650890Y-102251925D01*
X48819369Y-102658669D01*
X49063962Y-103024729D01*
X49375271Y-103336038D01*
X49741331Y-103580631D01*
X50148075Y-103749110D01*
X50579872Y-103835000D01*
X51020128Y-103835000D01*
X51451925Y-103749110D01*
X51858669Y-103580631D01*
X52224729Y-103336038D01*
X52536038Y-103024729D01*
X52780631Y-102658669D01*
X52949110Y-102251925D01*
X53035000Y-101820128D01*
X53035000Y-101379872D01*
X52949110Y-100948075D01*
X52867065Y-100750000D01*
X62011928Y-100750000D01*
X62011928Y-102450000D01*
X62024188Y-102574482D01*
X62060498Y-102694180D01*
X62119463Y-102804494D01*
X62198815Y-102901185D01*
X62295506Y-102980537D01*
X62405820Y-103039502D01*
X62525518Y-103075812D01*
X62650000Y-103088072D01*
X64350000Y-103088072D01*
X64474482Y-103075812D01*
X64594180Y-103039502D01*
X64704494Y-102980537D01*
X64801185Y-102901185D01*
X64880537Y-102804494D01*
X64939502Y-102694180D01*
X64961513Y-102621620D01*
X65093368Y-102753475D01*
X65336589Y-102915990D01*
X65606842Y-103027932D01*
X65893740Y-103085000D01*
X66186260Y-103085000D01*
X66473158Y-103027932D01*
X66743411Y-102915990D01*
X66986632Y-102753475D01*
X67193475Y-102546632D01*
X67315195Y-102364466D01*
X67384822Y-102481355D01*
X67579731Y-102697588D01*
X67813080Y-102871641D01*
X68075901Y-102996825D01*
X68223110Y-103041476D01*
X68453000Y-102920155D01*
X68453000Y-101727000D01*
X68433000Y-101727000D01*
X68433000Y-101473000D01*
X68453000Y-101473000D01*
X68453000Y-100279845D01*
X68223110Y-100158524D01*
X68075901Y-100203175D01*
X67813080Y-100328359D01*
X67579731Y-100502412D01*
X67384822Y-100718645D01*
X67315195Y-100835534D01*
X67193475Y-100653368D01*
X66986632Y-100446525D01*
X66743411Y-100284010D01*
X66473158Y-100172068D01*
X66186260Y-100115000D01*
X65893740Y-100115000D01*
X65606842Y-100172068D01*
X65336589Y-100284010D01*
X65093368Y-100446525D01*
X64961513Y-100578380D01*
X64939502Y-100505820D01*
X64880537Y-100395506D01*
X64801185Y-100298815D01*
X64704494Y-100219463D01*
X64594180Y-100160498D01*
X64579500Y-100156045D01*
X64579500Y-94427142D01*
X87512195Y-71494447D01*
X89879805Y-71494447D01*
X89963326Y-71793553D01*
X90103595Y-72070617D01*
X90295221Y-72314992D01*
X90530840Y-72517287D01*
X90801397Y-72669728D01*
X91067412Y-72760586D01*
X91313000Y-72640584D01*
X91313000Y-71247000D01*
X90014831Y-71247000D01*
X89879805Y-71494447D01*
X87512195Y-71494447D01*
X89347143Y-69659500D01*
X90643032Y-69659500D01*
X90530840Y-69722713D01*
X90295221Y-69925008D01*
X90103595Y-70169383D01*
X89963326Y-70446447D01*
X89879805Y-70745553D01*
X90014831Y-70993000D01*
X91313000Y-70993000D01*
X91313000Y-70973000D01*
X91567000Y-70973000D01*
X91567000Y-70993000D01*
X91587000Y-70993000D01*
X91587000Y-71247000D01*
X91567000Y-71247000D01*
X91567000Y-72640584D01*
X91812588Y-72760586D01*
X92078603Y-72669728D01*
X92349160Y-72517287D01*
X92584779Y-72314992D01*
X92703725Y-72163303D01*
X92853813Y-72346187D01*
X93095161Y-72544256D01*
X93162969Y-72580500D01*
X92763029Y-72580500D01*
X92710000Y-72575277D01*
X92656971Y-72580500D01*
X92498381Y-72596120D01*
X92294894Y-72657847D01*
X92107360Y-72758086D01*
X91942985Y-72892985D01*
X91909182Y-72934174D01*
X70394180Y-94449178D01*
X70352986Y-94482985D01*
X70218087Y-94647360D01*
X70164821Y-94747014D01*
X70117847Y-94834896D01*
X70056120Y-95038382D01*
X70035277Y-95250000D01*
X70040501Y-95303039D01*
X70040500Y-100579393D01*
X69966525Y-100653368D01*
X69844805Y-100835534D01*
X69775178Y-100718645D01*
X69580269Y-100502412D01*
X69346920Y-100328359D01*
X69084099Y-100203175D01*
X68936890Y-100158524D01*
X68707000Y-100279845D01*
X68707000Y-101473000D01*
X68727000Y-101473000D01*
X68727000Y-101727000D01*
X68707000Y-101727000D01*
X68707000Y-102920155D01*
X68936890Y-103041476D01*
X69084099Y-102996825D01*
X69346920Y-102871641D01*
X69580269Y-102697588D01*
X69775178Y-102481355D01*
X69844805Y-102364466D01*
X69966525Y-102546632D01*
X70173368Y-102753475D01*
X70416589Y-102915990D01*
X70686842Y-103027932D01*
X70973740Y-103085000D01*
X71266260Y-103085000D01*
X71553158Y-103027932D01*
X71823411Y-102915990D01*
X72066632Y-102753475D01*
X72273475Y-102546632D01*
X72390000Y-102372240D01*
X72506525Y-102546632D01*
X72713368Y-102753475D01*
X72956589Y-102915990D01*
X73226842Y-103027932D01*
X73513740Y-103085000D01*
X73806260Y-103085000D01*
X74093158Y-103027932D01*
X74363411Y-102915990D01*
X74606632Y-102753475D01*
X74813475Y-102546632D01*
X74930000Y-102372240D01*
X75046525Y-102546632D01*
X75253368Y-102753475D01*
X75496589Y-102915990D01*
X75766842Y-103027932D01*
X76053740Y-103085000D01*
X76346260Y-103085000D01*
X76633158Y-103027932D01*
X76903411Y-102915990D01*
X77146632Y-102753475D01*
X77353475Y-102546632D01*
X77470000Y-102372240D01*
X77586525Y-102546632D01*
X77793368Y-102753475D01*
X78036589Y-102915990D01*
X78306842Y-103027932D01*
X78593740Y-103085000D01*
X78886260Y-103085000D01*
X79173158Y-103027932D01*
X79443411Y-102915990D01*
X79686632Y-102753475D01*
X79893475Y-102546632D01*
X80055990Y-102303411D01*
X80167932Y-102033158D01*
X80225000Y-101746260D01*
X80225000Y-101453740D01*
X80210307Y-101379872D01*
X124765000Y-101379872D01*
X124765000Y-101820128D01*
X124850890Y-102251925D01*
X125019369Y-102658669D01*
X125263962Y-103024729D01*
X125575271Y-103336038D01*
X125941331Y-103580631D01*
X126348075Y-103749110D01*
X126779872Y-103835000D01*
X127220128Y-103835000D01*
X127651925Y-103749110D01*
X128058669Y-103580631D01*
X128424729Y-103336038D01*
X128736038Y-103024729D01*
X128980631Y-102658669D01*
X129149110Y-102251925D01*
X129235000Y-101820128D01*
X129235000Y-101379872D01*
X129149110Y-100948075D01*
X128980631Y-100541331D01*
X128736038Y-100175271D01*
X128424729Y-99863962D01*
X128058669Y-99619369D01*
X127651925Y-99450890D01*
X127220128Y-99365000D01*
X126779872Y-99365000D01*
X126348075Y-99450890D01*
X125941331Y-99619369D01*
X125575271Y-99863962D01*
X125263962Y-100175271D01*
X125019369Y-100541331D01*
X124850890Y-100948075D01*
X124765000Y-101379872D01*
X80210307Y-101379872D01*
X80167932Y-101166842D01*
X80055990Y-100896589D01*
X79893475Y-100653368D01*
X79686632Y-100446525D01*
X79443411Y-100284010D01*
X79173158Y-100172068D01*
X79157657Y-100168985D01*
X102047143Y-77279500D01*
X114246971Y-77279500D01*
X114300000Y-77284723D01*
X114353029Y-77279500D01*
X114511619Y-77263880D01*
X114715106Y-77202153D01*
X114902640Y-77101914D01*
X115067015Y-76967015D01*
X115100827Y-76925815D01*
X117565821Y-74460822D01*
X117607015Y-74427015D01*
X117741914Y-74262640D01*
X117842153Y-74075106D01*
X117903880Y-73871619D01*
X117919500Y-73713029D01*
X117919500Y-73713022D01*
X117924722Y-73660001D01*
X117919500Y-73606979D01*
X117919500Y-69903021D01*
X117924722Y-69849999D01*
X117919500Y-69796978D01*
X117919500Y-69796971D01*
X117903880Y-69638381D01*
X117842153Y-69434894D01*
X117741914Y-69247360D01*
X117607015Y-69082985D01*
X117565821Y-69049178D01*
X116370826Y-67854184D01*
X116337015Y-67812985D01*
X116172640Y-67678086D01*
X115985106Y-67577847D01*
X115781619Y-67516120D01*
X115623029Y-67500500D01*
X115570000Y-67495277D01*
X115516971Y-67500500D01*
X108003021Y-67500500D01*
X107949999Y-67495278D01*
X107896978Y-67500500D01*
X107896971Y-67500500D01*
X107738381Y-67516120D01*
X107534894Y-67577847D01*
X107347360Y-67678086D01*
X107182985Y-67812985D01*
X107149178Y-67854179D01*
X105954184Y-69049174D01*
X105912985Y-69082985D01*
X105778086Y-69247360D01*
X105677847Y-69434895D01*
X105663584Y-69481914D01*
X105616120Y-69638382D01*
X105595277Y-69850000D01*
X105596169Y-69859053D01*
X105553813Y-69893813D01*
X105410000Y-70069050D01*
X105266187Y-69893813D01*
X105024839Y-69695744D01*
X104749488Y-69548566D01*
X104450714Y-69457934D01*
X104140000Y-69427331D01*
X103829287Y-69457934D01*
X103530513Y-69548566D01*
X103255162Y-69695744D01*
X103013813Y-69893813D01*
X102870000Y-70069050D01*
X102726187Y-69893813D01*
X102484839Y-69695744D01*
X102209488Y-69548566D01*
X101910714Y-69457934D01*
X101600000Y-69427331D01*
X101289287Y-69457934D01*
X100990513Y-69548566D01*
X100715162Y-69695744D01*
X100473813Y-69893813D01*
X100330000Y-70069050D01*
X100186187Y-69893813D01*
X99944839Y-69695744D01*
X99669488Y-69548566D01*
X99370714Y-69457934D01*
X99060000Y-69427331D01*
X98749287Y-69457934D01*
X98450513Y-69548566D01*
X98175162Y-69695744D01*
X97933813Y-69893813D01*
X97790000Y-70069050D01*
X97646187Y-69893813D01*
X97603830Y-69859052D01*
X97604722Y-69849999D01*
X97599500Y-69796978D01*
X97599500Y-69796971D01*
X97583880Y-69638381D01*
X97522153Y-69434894D01*
X97421914Y-69247360D01*
X97287015Y-69082985D01*
X97245821Y-69049178D01*
X96050826Y-67854184D01*
X96017015Y-67812985D01*
X95852640Y-67678086D01*
X95665106Y-67577847D01*
X95461619Y-67516120D01*
X95303029Y-67500500D01*
X95250000Y-67495277D01*
X95196971Y-67500500D01*
X88953018Y-67500500D01*
X88899999Y-67495278D01*
X88846980Y-67500500D01*
X88846971Y-67500500D01*
X88688381Y-67516120D01*
X88484894Y-67577847D01*
X88297360Y-67678086D01*
X88132985Y-67812985D01*
X88099178Y-67854179D01*
X62774180Y-93179178D01*
X62732986Y-93212985D01*
X62598087Y-93377360D01*
X62497848Y-93564894D01*
X62497847Y-93564896D01*
X62436120Y-93768382D01*
X62415277Y-93980000D01*
X62420501Y-94033039D01*
X62420500Y-100156045D01*
X62405820Y-100160498D01*
X62295506Y-100219463D01*
X62198815Y-100298815D01*
X62119463Y-100395506D01*
X62060498Y-100505820D01*
X62024188Y-100625518D01*
X62011928Y-100750000D01*
X52867065Y-100750000D01*
X52780631Y-100541331D01*
X52536038Y-100175271D01*
X52224729Y-99863962D01*
X51858669Y-99619369D01*
X51451925Y-99450890D01*
X51020128Y-99365000D01*
X50579872Y-99365000D01*
X50148075Y-99450890D01*
X49741331Y-99619369D01*
X49375271Y-99863962D01*
X49063962Y-100175271D01*
X48819369Y-100541331D01*
X48650890Y-100948075D01*
X48565000Y-101379872D01*
X43840000Y-101379872D01*
X43840000Y-74930000D01*
X64955277Y-74930000D01*
X64960500Y-74983029D01*
X64960500Y-76253028D01*
X64976120Y-76411618D01*
X65037847Y-76615105D01*
X65138086Y-76802640D01*
X65272985Y-76967015D01*
X65437360Y-77101914D01*
X65624894Y-77202153D01*
X65828381Y-77263880D01*
X66040000Y-77284723D01*
X66251618Y-77263880D01*
X66455105Y-77202153D01*
X66642640Y-77101914D01*
X66807015Y-76967015D01*
X66941914Y-76802640D01*
X67042153Y-76615106D01*
X67103880Y-76411619D01*
X67119500Y-76253029D01*
X67119500Y-75377142D01*
X88077144Y-54419500D01*
X95196971Y-54419500D01*
X95250000Y-54424723D01*
X95303029Y-54419500D01*
X95461619Y-54403880D01*
X95665106Y-54342153D01*
X95852640Y-54241914D01*
X96017015Y-54107015D01*
X96050826Y-54065816D01*
X97245821Y-52870822D01*
X97287015Y-52837015D01*
X97421914Y-52672640D01*
X97522153Y-52485106D01*
X97583880Y-52281619D01*
X97599500Y-52123029D01*
X97599500Y-52123022D01*
X97604722Y-52070001D01*
X97603830Y-52060948D01*
X97646187Y-52026187D01*
X97790000Y-51850950D01*
X97933813Y-52026187D01*
X98175161Y-52224256D01*
X98450512Y-52371434D01*
X98749286Y-52462066D01*
X99060000Y-52492669D01*
X99370713Y-52462066D01*
X99669487Y-52371434D01*
X99944838Y-52224256D01*
X100186187Y-52026187D01*
X100330000Y-51850950D01*
X100473813Y-52026187D01*
X100715161Y-52224256D01*
X100990512Y-52371434D01*
X101289286Y-52462066D01*
X101600000Y-52492669D01*
X101910713Y-52462066D01*
X102209487Y-52371434D01*
X102484838Y-52224256D01*
X102726187Y-52026187D01*
X102870000Y-51850950D01*
X103013813Y-52026187D01*
X103255161Y-52224256D01*
X103530512Y-52371434D01*
X103829286Y-52462066D01*
X104140000Y-52492669D01*
X104450713Y-52462066D01*
X104749487Y-52371434D01*
X105024838Y-52224256D01*
X105266187Y-52026187D01*
X105410000Y-51850950D01*
X105553813Y-52026187D01*
X105795161Y-52224256D01*
X106070512Y-52371434D01*
X106369286Y-52462066D01*
X106680000Y-52492669D01*
X106990713Y-52462066D01*
X107289487Y-52371434D01*
X107564838Y-52224256D01*
X107806187Y-52026187D01*
X107950000Y-51850950D01*
X108093813Y-52026187D01*
X108335161Y-52224256D01*
X108610512Y-52371434D01*
X108909286Y-52462066D01*
X109220000Y-52492669D01*
X109530713Y-52462066D01*
X109829487Y-52371434D01*
X110104838Y-52224256D01*
X110346187Y-52026187D01*
X110490000Y-51850950D01*
X110633813Y-52026187D01*
X110875161Y-52224256D01*
X111150512Y-52371434D01*
X111449286Y-52462066D01*
X111760000Y-52492669D01*
X112070713Y-52462066D01*
X112369487Y-52371434D01*
X112644838Y-52224256D01*
X112773560Y-52118617D01*
X112819463Y-52204494D01*
X112898815Y-52301185D01*
X112995506Y-52380537D01*
X113105820Y-52439502D01*
X113225518Y-52475812D01*
X113350000Y-52488072D01*
X115250000Y-52488072D01*
X115374482Y-52475812D01*
X115494180Y-52439502D01*
X115604494Y-52380537D01*
X115701185Y-52301185D01*
X115780537Y-52204494D01*
X115839502Y-52094180D01*
X115875812Y-51974482D01*
X115888072Y-51850000D01*
X115888072Y-50579872D01*
X124765000Y-50579872D01*
X124765000Y-51020128D01*
X124850890Y-51451925D01*
X125019369Y-51858669D01*
X125263962Y-52224729D01*
X125575271Y-52536038D01*
X125941331Y-52780631D01*
X126348075Y-52949110D01*
X126779872Y-53035000D01*
X127220128Y-53035000D01*
X127651925Y-52949110D01*
X128058669Y-52780631D01*
X128424729Y-52536038D01*
X128736038Y-52224729D01*
X128980631Y-51858669D01*
X129149110Y-51451925D01*
X129235000Y-51020128D01*
X129235000Y-50579872D01*
X129149110Y-50148075D01*
X128980631Y-49741331D01*
X128736038Y-49375271D01*
X128424729Y-49063962D01*
X128058669Y-48819369D01*
X127651925Y-48650890D01*
X127220128Y-48565000D01*
X126779872Y-48565000D01*
X126348075Y-48650890D01*
X125941331Y-48819369D01*
X125575271Y-49063962D01*
X125263962Y-49375271D01*
X125019369Y-49741331D01*
X124850890Y-50148075D01*
X124765000Y-50579872D01*
X115888072Y-50579872D01*
X115888072Y-49750000D01*
X115875812Y-49625518D01*
X115839502Y-49505820D01*
X115780537Y-49395506D01*
X115701185Y-49298815D01*
X115604494Y-49219463D01*
X115494180Y-49160498D01*
X115374482Y-49124188D01*
X115250000Y-49111928D01*
X113350000Y-49111928D01*
X113225518Y-49124188D01*
X113105820Y-49160498D01*
X112995506Y-49219463D01*
X112898815Y-49298815D01*
X112819463Y-49395506D01*
X112773560Y-49481383D01*
X112644839Y-49375744D01*
X112369488Y-49228566D01*
X112070714Y-49137934D01*
X111760000Y-49107331D01*
X111449287Y-49137934D01*
X111150513Y-49228566D01*
X110875162Y-49375744D01*
X110633813Y-49573813D01*
X110490000Y-49749050D01*
X110346187Y-49573813D01*
X110104839Y-49375744D01*
X109829488Y-49228566D01*
X109530714Y-49137934D01*
X109220000Y-49107331D01*
X108909287Y-49137934D01*
X108610513Y-49228566D01*
X108335162Y-49375744D01*
X108093813Y-49573813D01*
X107950000Y-49749050D01*
X107806187Y-49573813D01*
X107564839Y-49375744D01*
X107289488Y-49228566D01*
X106990714Y-49137934D01*
X106680000Y-49107331D01*
X106369287Y-49137934D01*
X106070513Y-49228566D01*
X105795162Y-49375744D01*
X105553813Y-49573813D01*
X105410000Y-49749050D01*
X105266187Y-49573813D01*
X105024839Y-49375744D01*
X104749488Y-49228566D01*
X104450714Y-49137934D01*
X104140000Y-49107331D01*
X103829287Y-49137934D01*
X103530513Y-49228566D01*
X103255162Y-49375744D01*
X103013813Y-49573813D01*
X102870000Y-49749050D01*
X102726187Y-49573813D01*
X102484839Y-49375744D01*
X102209488Y-49228566D01*
X101910714Y-49137934D01*
X101600000Y-49107331D01*
X101289287Y-49137934D01*
X100990513Y-49228566D01*
X100715162Y-49375744D01*
X100473813Y-49573813D01*
X100330000Y-49749050D01*
X100186187Y-49573813D01*
X99944839Y-49375744D01*
X99669488Y-49228566D01*
X99370714Y-49137934D01*
X99060000Y-49107331D01*
X98749287Y-49137934D01*
X98450513Y-49228566D01*
X98175162Y-49375744D01*
X97933813Y-49573813D01*
X97790000Y-49749050D01*
X97646187Y-49573813D01*
X97404839Y-49375744D01*
X97129488Y-49228566D01*
X96830714Y-49137934D01*
X96520000Y-49107331D01*
X96209287Y-49137934D01*
X95910513Y-49228566D01*
X95635162Y-49375744D01*
X95393813Y-49573813D01*
X95250000Y-49749050D01*
X95106187Y-49573813D01*
X94864839Y-49375744D01*
X94589488Y-49228566D01*
X94290714Y-49137934D01*
X93980000Y-49107331D01*
X93669287Y-49137934D01*
X93370513Y-49228566D01*
X93095162Y-49375744D01*
X92853813Y-49573813D01*
X92703725Y-49756696D01*
X92584779Y-49605008D01*
X92349160Y-49402713D01*
X92078603Y-49250272D01*
X91812588Y-49159414D01*
X91567000Y-49279416D01*
X91567000Y-50673000D01*
X91587000Y-50673000D01*
X91587000Y-50927000D01*
X91567000Y-50927000D01*
X91567000Y-50947000D01*
X91313000Y-50947000D01*
X91313000Y-50927000D01*
X90014831Y-50927000D01*
X89879805Y-51174447D01*
X89963326Y-51473553D01*
X90103595Y-51750617D01*
X90295221Y-51994992D01*
X90530840Y-52197287D01*
X90643032Y-52260500D01*
X87683029Y-52260500D01*
X87630000Y-52255277D01*
X87576971Y-52260500D01*
X87418381Y-52276120D01*
X87214894Y-52337847D01*
X87027360Y-52438086D01*
X86862985Y-52572985D01*
X86829182Y-52614174D01*
X65314180Y-74129178D01*
X65272986Y-74162985D01*
X65138087Y-74327360D01*
X65037848Y-74514894D01*
X64976120Y-74718381D01*
X64960500Y-74876971D01*
X64955277Y-74930000D01*
X43840000Y-74930000D01*
X43840000Y-50823920D01*
X43857707Y-50579872D01*
X48565000Y-50579872D01*
X48565000Y-51020128D01*
X48650890Y-51451925D01*
X48819369Y-51858669D01*
X49063962Y-52224729D01*
X49375271Y-52536038D01*
X49741331Y-52780631D01*
X50148075Y-52949110D01*
X50579872Y-53035000D01*
X51020128Y-53035000D01*
X51451925Y-52949110D01*
X51858669Y-52780631D01*
X52224729Y-52536038D01*
X52536038Y-52224729D01*
X52780631Y-51858669D01*
X52949110Y-51451925D01*
X53035000Y-51020128D01*
X53035000Y-50579872D01*
X52949110Y-50148075D01*
X52780631Y-49741331D01*
X52595993Y-49465000D01*
X56411928Y-49465000D01*
X56411928Y-51215000D01*
X56441001Y-51510186D01*
X56527104Y-51794028D01*
X56666927Y-52055618D01*
X56855097Y-52284903D01*
X57084382Y-52473073D01*
X57345972Y-52612896D01*
X57629814Y-52698999D01*
X57925000Y-52728072D01*
X59675000Y-52728072D01*
X59970186Y-52698999D01*
X59977610Y-52696747D01*
X57694185Y-54980173D01*
X57652985Y-55013985D01*
X57518086Y-55178360D01*
X57417847Y-55365895D01*
X57417847Y-55365896D01*
X57356120Y-55569382D01*
X57335277Y-55781000D01*
X57340500Y-55834029D01*
X57340501Y-58319377D01*
X57265506Y-58359463D01*
X57168815Y-58438815D01*
X57089463Y-58535506D01*
X57030498Y-58645820D01*
X56994188Y-58765518D01*
X56981928Y-58890000D01*
X56981928Y-60490000D01*
X56994188Y-60614482D01*
X57030498Y-60734180D01*
X57089463Y-60844494D01*
X57168815Y-60941185D01*
X57265506Y-61020537D01*
X57375820Y-61079502D01*
X57495518Y-61115812D01*
X57620000Y-61128072D01*
X59220000Y-61128072D01*
X59344482Y-61115812D01*
X59464180Y-61079502D01*
X59574494Y-61020537D01*
X59671185Y-60941185D01*
X59750537Y-60844494D01*
X59809502Y-60734180D01*
X59825117Y-60682702D01*
X60106903Y-60682702D01*
X60178486Y-60926671D01*
X60433996Y-61047571D01*
X60708184Y-61116300D01*
X60990512Y-61130217D01*
X61270130Y-61088787D01*
X61536292Y-60993603D01*
X61661514Y-60926671D01*
X61733097Y-60682702D01*
X60920000Y-59869605D01*
X60106903Y-60682702D01*
X59825117Y-60682702D01*
X59845812Y-60614482D01*
X59858072Y-60490000D01*
X59858072Y-60482785D01*
X59927298Y-60503097D01*
X60740395Y-59690000D01*
X61099605Y-59690000D01*
X61912702Y-60503097D01*
X62156671Y-60431514D01*
X62277571Y-60176004D01*
X62346300Y-59901816D01*
X62360217Y-59619488D01*
X62318787Y-59339870D01*
X62223603Y-59073708D01*
X62156671Y-58948486D01*
X61912702Y-58876903D01*
X61099605Y-59690000D01*
X60740395Y-59690000D01*
X59927298Y-58876903D01*
X59858072Y-58897215D01*
X59858072Y-58890000D01*
X59845812Y-58765518D01*
X59825118Y-58697298D01*
X60106903Y-58697298D01*
X60920000Y-59510395D01*
X61733097Y-58697298D01*
X61661514Y-58453329D01*
X61406004Y-58332429D01*
X61131816Y-58263700D01*
X60849488Y-58249783D01*
X60569870Y-58291213D01*
X60303708Y-58386397D01*
X60178486Y-58453329D01*
X60106903Y-58697298D01*
X59825118Y-58697298D01*
X59809502Y-58645820D01*
X59750537Y-58535506D01*
X59671185Y-58438815D01*
X59574494Y-58359463D01*
X59499500Y-58319377D01*
X59499500Y-56228142D01*
X61111928Y-54615715D01*
X61111928Y-55090000D01*
X61124188Y-55214482D01*
X61160498Y-55334180D01*
X61219463Y-55444494D01*
X61298815Y-55541185D01*
X61395506Y-55620537D01*
X61505820Y-55679502D01*
X61625518Y-55715812D01*
X61750000Y-55728072D01*
X65250000Y-55728072D01*
X65374482Y-55715812D01*
X65494180Y-55679502D01*
X65604494Y-55620537D01*
X65701185Y-55541185D01*
X65780537Y-55444494D01*
X65839502Y-55334180D01*
X65875812Y-55214482D01*
X65888072Y-55090000D01*
X65888072Y-51590000D01*
X65875812Y-51465518D01*
X65839502Y-51345820D01*
X65780537Y-51235506D01*
X65701185Y-51138815D01*
X65604494Y-51059463D01*
X65494180Y-51000498D01*
X65374482Y-50964188D01*
X65250000Y-50951928D01*
X61750000Y-50951928D01*
X61625518Y-50964188D01*
X61505820Y-51000498D01*
X61395506Y-51059463D01*
X61298815Y-51138815D01*
X61219463Y-51235506D01*
X61178506Y-51312131D01*
X61188072Y-51215000D01*
X61188072Y-50425553D01*
X89879805Y-50425553D01*
X90014831Y-50673000D01*
X91313000Y-50673000D01*
X91313000Y-49279416D01*
X91067412Y-49159414D01*
X90801397Y-49250272D01*
X90530840Y-49402713D01*
X90295221Y-49605008D01*
X90103595Y-49849383D01*
X89963326Y-50126447D01*
X89879805Y-50425553D01*
X61188072Y-50425553D01*
X61188072Y-49465000D01*
X61158999Y-49169814D01*
X61072896Y-48885972D01*
X61048324Y-48840000D01*
X61111928Y-48840000D01*
X61124188Y-48964482D01*
X61160498Y-49084180D01*
X61219463Y-49194494D01*
X61298815Y-49291185D01*
X61395506Y-49370537D01*
X61505820Y-49429502D01*
X61625518Y-49465812D01*
X61750000Y-49478072D01*
X63214250Y-49475000D01*
X63373000Y-49316250D01*
X63373000Y-47467000D01*
X63627000Y-47467000D01*
X63627000Y-49316250D01*
X63785750Y-49475000D01*
X65250000Y-49478072D01*
X65374482Y-49465812D01*
X65494180Y-49429502D01*
X65604494Y-49370537D01*
X65701185Y-49291185D01*
X65780537Y-49194494D01*
X65839502Y-49084180D01*
X65875812Y-48964482D01*
X65888072Y-48840000D01*
X65885000Y-47625750D01*
X65726250Y-47467000D01*
X63627000Y-47467000D01*
X63373000Y-47467000D01*
X61273750Y-47467000D01*
X61115000Y-47625750D01*
X61111928Y-48840000D01*
X61048324Y-48840000D01*
X60933073Y-48624382D01*
X60744903Y-48395097D01*
X60515618Y-48206927D01*
X60254028Y-48067104D01*
X59970186Y-47981001D01*
X59675000Y-47951928D01*
X57925000Y-47951928D01*
X57629814Y-47981001D01*
X57345972Y-48067104D01*
X57084382Y-48206927D01*
X56855097Y-48395097D01*
X56666927Y-48624382D01*
X56527104Y-48885972D01*
X56441001Y-49169814D01*
X56411928Y-49465000D01*
X52595993Y-49465000D01*
X52536038Y-49375271D01*
X52224729Y-49063962D01*
X51858669Y-48819369D01*
X51451925Y-48650890D01*
X51020128Y-48565000D01*
X50579872Y-48565000D01*
X50148075Y-48650890D01*
X49741331Y-48819369D01*
X49375271Y-49063962D01*
X49063962Y-49375271D01*
X48819369Y-49741331D01*
X48650890Y-50148075D01*
X48565000Y-50579872D01*
X43857707Y-50579872D01*
X43914617Y-49795530D01*
X44131739Y-48812102D01*
X44488546Y-47870325D01*
X44977575Y-46989905D01*
X45588569Y-46189313D01*
X45945898Y-45840000D01*
X61111928Y-45840000D01*
X61115000Y-47054250D01*
X61273750Y-47213000D01*
X63373000Y-47213000D01*
X63373000Y-45363750D01*
X63627000Y-45363750D01*
X63627000Y-47213000D01*
X65726250Y-47213000D01*
X65885000Y-47054250D01*
X65888072Y-45840000D01*
X65875812Y-45715518D01*
X65839502Y-45595820D01*
X65780537Y-45485506D01*
X65701185Y-45388815D01*
X65604494Y-45309463D01*
X65494180Y-45250498D01*
X65374482Y-45214188D01*
X65250000Y-45201928D01*
X63785750Y-45205000D01*
X63627000Y-45363750D01*
X63373000Y-45363750D01*
X63214250Y-45205000D01*
X61750000Y-45201928D01*
X61625518Y-45214188D01*
X61505820Y-45250498D01*
X61395506Y-45309463D01*
X61298815Y-45388815D01*
X61219463Y-45485506D01*
X61160498Y-45595820D01*
X61124188Y-45715518D01*
X61111928Y-45840000D01*
X45945898Y-45840000D01*
X46308732Y-45485306D01*
X47122987Y-44892630D01*
X48014269Y-44423704D01*
X48963900Y-44088353D01*
X49955692Y-43892873D01*
X50820164Y-43840000D01*
X126976080Y-43840000D01*
X128004470Y-43914617D01*
G37*
%TD.AperFunction*%
%TD*%
M02*
