%TF.GenerationSoftware,KiCad,Pcbnew,5.1.8+dfsg1-1+b1*%
%TF.CreationDate,2021-04-12T18:27:31-05:00*%
%TF.ProjectId,weather,77656174-6865-4722-9e6b-696361645f70,B*%
%TF.SameCoordinates,Original*%
%TF.FileFunction,Soldermask,Bot*%
%TF.FilePolarity,Negative*%
%FSLAX46Y46*%
G04 Gerber Fmt 4.6, Leading zero omitted, Abs format (unit mm)*
G04 Created by KiCad (PCBNEW 5.1.8+dfsg1-1+b1) date 2021-04-12 18:27:31*
%MOMM*%
%LPD*%
G01*
G04 APERTURE LIST*
%ADD10C,1.600000*%
%ADD11R,1.600000X1.600000*%
%ADD12O,1.700000X1.700000*%
%ADD13R,1.700000X1.700000*%
%ADD14R,3.500000X3.500000*%
%ADD15O,1.900000X2.100000*%
%ADD16R,1.900000X2.100000*%
%ADD17C,3.200000*%
G04 APERTURE END LIST*
D10*
%TO.C,C1*%
X60920000Y-59690000D03*
D11*
X58420000Y-59690000D03*
%TD*%
D12*
%TO.C,U1*%
X78740000Y-101600000D03*
X76200000Y-101600000D03*
X73660000Y-101600000D03*
X71120000Y-101600000D03*
X68580000Y-101600000D03*
X66040000Y-101600000D03*
D13*
X63500000Y-101600000D03*
%TD*%
%TO.C,J1*%
G36*
G01*
X57925000Y-48590000D02*
X59675000Y-48590000D01*
G75*
G02*
X60550000Y-49465000I0J-875000D01*
G01*
X60550000Y-51215000D01*
G75*
G02*
X59675000Y-52090000I-875000J0D01*
G01*
X57925000Y-52090000D01*
G75*
G02*
X57050000Y-51215000I0J875000D01*
G01*
X57050000Y-49465000D01*
G75*
G02*
X57925000Y-48590000I875000J0D01*
G01*
G37*
G36*
G01*
X62500000Y-45840000D02*
X64500000Y-45840000D01*
G75*
G02*
X65250000Y-46590000I0J-750000D01*
G01*
X65250000Y-48090000D01*
G75*
G02*
X64500000Y-48840000I-750000J0D01*
G01*
X62500000Y-48840000D01*
G75*
G02*
X61750000Y-48090000I0J750000D01*
G01*
X61750000Y-46590000D01*
G75*
G02*
X62500000Y-45840000I750000J0D01*
G01*
G37*
D14*
X63500000Y-53340000D03*
%TD*%
D15*
%TO.C,A1*%
X91440000Y-71120000D03*
X91440000Y-50800000D03*
X93980000Y-71120000D03*
X93980000Y-50800000D03*
X96520000Y-71120000D03*
X96520000Y-50800000D03*
X99060000Y-71120000D03*
X99060000Y-50800000D03*
X101600000Y-71120000D03*
X101600000Y-50800000D03*
X104140000Y-71120000D03*
X104140000Y-50800000D03*
X106680000Y-71120000D03*
X106680000Y-50800000D03*
X109220000Y-71120000D03*
X109220000Y-50800000D03*
X111760000Y-71120000D03*
X111760000Y-50800000D03*
X114300000Y-71120000D03*
D16*
X114300000Y-50800000D03*
%TD*%
D17*
%TO.C,REF\u002A\u002A*%
X127000000Y-50800000D03*
%TD*%
%TO.C,REF\u002A\u002A*%
X127000000Y-101600000D03*
%TD*%
%TO.C,REF\u002A\u002A*%
X50800000Y-101600000D03*
%TD*%
%TO.C,REF\u002A\u002A*%
X50800000Y-50800000D03*
%TD*%
M02*
